<svg width="26" height="26" viewBox="0 0 26 26" fill="none" xmlns="http://www.w3.org/2000/svg">
<g id="icon/achivement/inactive" opacity="0.38">
<path id="Vector" d="M12.9007 1.01785H19.7086C19.7086 1.01785 21.1238 0.903878 21.2002 1.97478C21.2767 3.04569 21.2002 9.3885 21.2002 9.3885C21.2002 9.3885 21.1238 14.2902 16.5342 16.6615C16.5342 16.6615 13.7804 18.3443 10.2617 17.0439C10.2617 17.0439 7.20199 15.973 5.82512 13.5253C4.44824 11.0775 4.67772 8.24722 4.67772 8.24722L4.6693 4.6268L4.66395 2.21803C4.66395 2.21803 4.45512 1.04768 5.79069 1.01403C7.1255 0.980371 12.9007 1.01785 12.9007 1.01785Z" stroke="#131313" stroke-width="2" stroke-miterlimit="10"/>
<path id="Vector_2" d="M5.13675 13.8314C5.13675 13.8314 1.69456 14.2138 1.00612 10.3892V5.81719C1.00612 5.81719 0.853133 4.6522 2.07702 4.6522C3.30092 4.6522 4.66938 4.62695 4.66938 4.62695L4.65179 8.83637C4.65179 8.83637 4.83078 12.225 5.82519 13.5254C5.82519 13.5254 5.51922 13.8314 5.13675 13.8314Z" stroke="#131313" stroke-width="2" stroke-miterlimit="10"/>
<path id="Vector_3" d="M20.7353 13.6781C20.7353 13.6781 24.1775 14.0605 24.8659 10.2359V5.66387C24.8659 5.66387 25.0189 4.49888 23.795 4.49888C22.5711 4.49888 21.2027 4.47363 21.2027 4.47363L21.2203 8.68305C21.2203 8.68305 21.1239 11.8422 20.053 13.3721C20.053 13.3721 20.3528 13.6781 20.7353 13.6781Z" stroke="#131313" stroke-width="2" stroke-miterlimit="10"/>
<path id="Vector_4" d="M12.9009 17.5366L12.943 21.157" stroke="#131313" stroke-width="2" stroke-miterlimit="10"/>
<path id="Vector_5" d="M10.5755 21.1756L16.4326 21.1572C16.8219 21.1572 17.2082 21.2528 17.5417 21.4533C17.9319 21.6873 18.3319 22.0935 18.3702 22.7819V24.3087C18.3702 24.3087 18.4467 25.0002 17.3758 25.0002C16.3049 25.0002 12.943 25.0002 12.943 25.0002H9.83123H8.30749C8.30749 25.0002 7.43164 24.9238 7.43164 24.0823C7.43164 23.2409 7.43164 22.3727 7.43164 22.3727C7.43164 22.3727 7.50813 21.1756 9.038 21.1756C10.5679 21.1756 10.5755 21.1756 10.5755 21.1756Z" stroke="#131313" stroke-width="2" stroke-miterlimit="10"/>
</g>
</svg>
