<svg width="24" height="26" viewBox="0 0 24 26" fill="none" xmlns="http://www.w3.org/2000/svg">
<g opacity="0.38">
<path d="M7.29723 10.6868L6.9041 10.5645L1.25903 8.80359C1.13082 8.76369 1 8.85919 1 8.99394V22.3308C1 22.4146 1.05233 22.4898 1.13148 22.5186L7.93631 24.9879C7.97686 25.0029 8.02134 25.0036 8.06255 24.9911L15.3959 22.7397C15.4345 22.7279 15.4764 22.7279 15.515 22.7403L22.4074 24.9283C22.5363 24.9689 22.6671 24.8734 22.6671 24.738V11.2225C22.6671 11.1362 22.6115 11.059 22.5285 11.0328L17.0561 9.27259" stroke="#131313" stroke-width="2" stroke-miterlimit="10"/>
<path d="M8.11293 12.1304L7.9978 24.9904" stroke="#131313" stroke-width="2" stroke-miterlimit="10"/>
<path d="M15.5155 22.7399L15.4331 12.1006" stroke="#131313" stroke-width="2" stroke-miterlimit="10"/>
<path d="M11.8892 17.425C11.8414 17.4944 11.7407 17.4977 11.689 17.4309C10.8988 16.404 6.13487 9.86797 6.00405 7.18542C5.89285 4.90057 6.60977 3.82389 6.88319 3.50075C6.9571 3.41375 7.02906 3.3261 7.09839 3.23518C7.57787 2.61245 9.59125 0.376012 13.2648 1.1675C17.5166 2.08327 17.6474 6.66212 17.6474 6.66212C17.6474 6.66212 17.8437 8.1666 16.3392 10.6523C14.993 12.8756 12.4171 16.6538 11.8892 17.425Z" stroke="#131313" stroke-width="2" stroke-miterlimit="10"/>
<path d="M11.7929 9.67129C13.4005 9.67129 14.7038 8.36807 14.7038 6.76045C14.7038 5.15284 13.4005 3.84961 11.7929 3.84961C10.1853 3.84961 8.88208 5.15284 8.88208 6.76045C8.88208 8.36807 10.1853 9.67129 11.7929 9.67129Z" stroke="#131313" stroke-width="2" stroke-miterlimit="10"/>
</g>
</svg>
