<svg width="26" height="26" viewBox="0 0 26 26" fill="none" xmlns="http://www.w3.org/2000/svg">
<g id="icon/home/inactive">
<path id="Vector" opacity="0.38" d="M17.6262 25L20.3375 24.9578C20.3375 24.9578 22.2822 24.7037 22.3666 23.0931C22.4509 21.4832 22.3666 15.6091 22.3666 15.6091C22.3666 15.6091 22.2394 14.4911 22.8318 14.4911C23.1733 14.4911 23.6164 14.4744 24.0248 14.3329C24.9292 14.0199 25.282 12.9388 24.7505 12.1419C24.5497 11.8416 24.2404 11.4663 23.763 11.0165C22.3244 9.6606 14.1558 1.39773 14.1558 1.39773C14.1558 1.39773 12.9287 0.423182 11.8281 1.52508L1.57819 11.7873C1.29568 12.0702 1.09618 12.4287 1.02656 12.8222C0.962964 13.1848 0.995767 13.6184 1.3238 13.9991C1.54338 14.2545 1.84998 14.4201 2.17935 14.4871C2.39358 14.5307 2.67742 14.5756 2.93918 14.5756C2.93918 14.5756 3.70101 14.5756 3.70101 15.2539C3.70101 15.9322 3.70101 22.9658 3.70101 22.9658C3.70101 22.9658 3.91456 24.9149 5.71203 24.9571C7.51017 24.9993 9.11082 24.9571 9.11082 24.9571C9.11082 24.9571 9.88002 24.9993 9.88002 24.1521C9.88002 23.3049 9.88002 19.152 9.88002 19.152C9.88002 19.152 9.79567 17.2874 11.4037 16.9489H13.6892C13.6892 16.9489 15.4666 16.7794 16.059 18.0508C16.059 18.0508 16.3128 18.644 16.3128 19.5763C16.3128 20.5086 16.3128 24.0677 16.3128 24.0677C16.3128 24.0677 16.1454 25 17.6262 25Z" stroke="#131313" stroke-width="2" stroke-miterlimit="10"/>
</g>
</svg>
