<svg width="22" height="26" viewBox="0 0 22 26" fill="none" xmlns="http://www.w3.org/2000/svg">
<g opacity="0.38">
<path d="M10.927 25H18.3011C18.3011 25 20.8478 25.0446 20.9734 22.6586C21.099 20.2726 20.2199 16.3796 17.1432 13.8052C17.1432 13.8052 16.2007 13.0844 14.1293 14.3704C12.3084 15.5006 10.1736 15.1238 9.48288 14.9355C9.3573 14.9016 8.64778 14.6554 8.52597 14.6096C8.1913 14.484 7.52573 14.2222 7.15966 13.9936C6.67242 13.6891 5.24081 13.0304 4.06665 14.3647C3.99067 14.4507 3.91218 14.5349 3.83056 14.6152C3.26545 15.169 1.00628 17.6273 1.00628 21.5284V22.5726C1.00628 22.5726 0.765165 24.7671 3.27173 25H10.927Z" stroke="#131313" stroke-width="2" stroke-miterlimit="10"/>
<path d="M10.9897 12.3021C14.1107 12.3021 16.6408 9.77207 16.6408 6.65107C16.6408 3.53007 14.1107 1 10.9897 1C7.86869 1 5.33862 3.53007 5.33862 6.65107C5.33862 9.77207 7.86869 12.3021 10.9897 12.3021Z" stroke="#131313" stroke-width="2" stroke-miterlimit="10"/>
</g>
</svg>
