<svg xmlns="http://www.w3.org/2000/svg" width="74" height="56" viewBox="0 0 74 56" fill="none">
  <path d="M31.1678 19.1026L31.6647 17.6115L30.1 17.463C27.0587 17.1744 24.0229 17.0396 20.9458 17.0079C22.6678 15.2938 24.443 13.6685 26.3374 12.1627L26.3377 12.1625C28.9067 10.1194 31.6917 8.39237 34.5931 6.73504L34.5939 6.73461C36.2419 5.79174 37.8449 4.80419 39.4359 3.824C39.6386 3.69911 39.8412 3.57433 40.0436 3.44978L40.0436 3.44981L40.0516 3.44482C40.6081 3.0966 41.0945 2.67106 41.5097 2.25542L41.5167 2.2484L41.5236 2.24127C41.7309 2.02699 41.9426 1.94848 42.3994 2.04887L42.4019 2.04941C42.8586 2.14883 43.2986 2.26932 43.755 2.40159C43.6934 2.51269 43.6338 2.62497 43.5773 2.73776C42.3908 5.03415 41.9641 7.52451 42.9593 10.1609C43.5932 11.846 44.6593 13.1803 45.9751 14.2678C48.2281 16.1302 50.8436 17.0955 53.5463 17.6091L53.5486 17.6095C57.1531 18.2874 60.6869 18.024 64.1698 17.0192L64.1725 17.0184C66.1938 16.4304 68.104 15.5826 69.8838 14.4338C70.0551 14.5903 70.2352 14.7475 70.4117 14.8848C70.4717 14.9332 70.5325 14.9825 70.5941 15.0325C71.1008 15.4434 71.6636 15.8999 72.2772 16.2908C72.4522 16.4023 72.5406 16.5437 72.7284 17.1558C72.7118 17.172 72.6908 17.1913 72.6645 17.2135C71.8509 17.8584 71.0551 18.5191 70.271 19.1702L70.1338 19.2841C69.2967 19.979 68.4708 20.6626 67.6245 21.3256L67.62 21.3293C66.5212 22.1985 65.39 23.022 64.2399 23.8594C63.826 24.1608 63.4096 24.464 62.9913 24.7718C61.7377 25.6853 60.4696 26.599 59.1984 27.515C57.2824 28.8956 55.3593 30.2813 53.4676 31.6792L53.4651 31.6811C51.5084 33.1346 49.4159 34.3405 47.2439 35.5922C46.9171 35.7805 46.5885 35.9699 46.2584 36.1613C43.8153 37.5696 41.3917 39.0704 39.1181 40.8195C37.7793 39.8751 36.2827 39.3427 34.8946 38.9038C34.8235 38.8811 34.7526 38.8585 34.6818 38.8359C32.6178 38.178 30.6933 37.5646 28.9287 36.6137C27.2648 35.7066 25.6272 34.7482 24.0499 33.7199L24.0499 33.7199L24.0415 33.7145C21.409 32.0281 18.7963 30.3272 16.1791 28.6233C14.8689 27.7703 13.5576 26.9166 12.2421 26.0636L12.2386 26.0614C10.8569 25.1721 9.37576 24.4147 7.7065 23.9402C6.7462 23.6671 5.84223 23.6357 4.9941 23.8018C5.54576 23.4286 6.15029 23.1062 6.80119 22.8153C8.56007 22.0488 10.4326 21.6016 12.4049 21.2724L12.408 21.2719C13.6142 21.0675 14.8144 20.8861 16.004 20.7778L16.0068 20.7775C18.2103 20.5719 20.4238 20.3857 22.6144 20.2556C24.2908 20.1631 25.9677 20.1179 27.661 20.0723C28.3445 20.0539 29.0306 20.0354 29.7205 20.0137H29.7208H29.7214H29.7219H29.7224H29.723H29.7235H29.724H29.7246H29.7251H29.7256H29.7262H29.7267H29.7272H29.7278H29.7283H29.7288H29.7293H29.7299H29.7304H29.7309H29.7315H29.732H29.7325H29.733H29.7336H29.7341H29.7346H29.7351H29.7357H29.7362H29.7367H29.7372H29.7378H29.7383H29.7388H29.7393H29.7398H29.7404H29.7409H29.7414H29.7419H29.7425H29.743H29.7435H29.744H29.7445H29.7451H29.7456H29.7461H29.7466H29.7471H29.7476H29.7482H29.7487H29.7492H29.7497H29.7502H29.7507H29.7513H29.7518H29.7523H29.7528H29.7533H29.7538H29.7544H29.7549H29.7554H29.7559H29.7564H29.7569H29.7574H29.7579H29.7585H29.759H29.7595H29.76H29.7605H29.761H29.7615H29.762H29.7625H29.7631H29.7636H29.7641H29.7646H29.7651H29.7656H29.7661H29.7666H29.7671H29.7676H29.7681H29.7687H29.7692H29.7697H29.7702H29.7707H29.7712H29.7717H29.7722H29.7727H29.7732H29.7737H29.7742H29.7747H29.7752H29.7757H29.7762H29.7767H29.7773H29.7778H29.7783H29.7788H29.7793H29.7798H29.7803H29.7808H29.7813H29.7818H29.7823H29.7828H29.7833H29.7838H29.7843H29.7848H29.7853H29.7858H29.7863H29.7868H29.7873H29.7878H29.7883H29.7888H29.7893H29.7898H29.7903H29.7908H29.7913H29.7918H29.7923H29.7928H29.7933H29.7938H29.7943H29.7948H29.7953H29.7958H29.7963H29.7968H29.7973H29.7978H29.7983H29.7988H29.7993H29.7998H29.8003H29.8008H29.8013H29.8018H29.8023H29.8028H29.8033H29.8038H29.8042H29.8047H29.8052H29.8057H29.8062H29.8067H29.8072H29.8077H29.8082H29.8087H29.8092H29.8097H29.8102H29.8107H29.8112H29.8117H29.8122H29.8127H29.8132H29.8137H29.8142H29.8147H29.8152H29.8156H29.8161H29.8166H29.8171H29.8176H29.8181H29.8186H29.8191H29.8196H29.8201H29.8206H29.8211H29.8216H29.8221H29.8226H29.8231H29.8236H29.8241H29.8246H29.825H29.8255H29.826H29.8265H29.827H29.8275H29.828H29.8285H29.829H29.8295H29.83H29.8305H29.831H29.8315H29.832H29.8325H29.8329H29.8334H29.8339H29.8344H29.8349H29.8354H29.8359H29.8364H29.8369H29.8374H29.8379H29.8384H29.8389H29.8394H29.8399H29.8404H29.8409H29.8413H29.8418H29.8423H29.8428H29.8433H29.8438H29.8443H29.8448H29.8453H29.8458H29.8463H29.8468H29.8473H29.8478H29.8483H29.8488H29.8493H29.8498H29.8503H29.8507H29.8512H29.8517H29.8522H29.8527H29.8532H29.8537H29.8542H29.8547H29.8552H29.8557H29.8562H29.8567H29.8572H29.8577H29.8582H29.8587H29.8592H29.8597H29.8602H29.8607H29.8612H29.8617H29.8622H29.8627H29.8632H29.8637H29.8641H29.8646H29.8651H29.8656H29.8661H29.8666H29.8671H29.8676H29.8681H29.8686H29.8691H29.8696H29.8701H29.8706H29.8711H29.8716H29.8721H29.8726H29.8731H29.8736H29.8741H29.8746H29.8751H29.8756H29.8761H29.8766H29.8771H29.8776H29.8781H29.8786H29.8791H29.8796H29.8801H29.8806H29.8811H29.8816H29.8821H29.8826H29.8831H29.8837H29.8842H29.8847H29.8852H29.8857H29.8862H29.8867H29.8872H29.8877H29.8882H29.8887H29.8892H29.8897H29.8902H29.8907H29.8912H29.8917H29.8922H29.8927H29.8932H29.8937H29.8943H29.8948H29.8953H29.8958H29.8963H29.8968H29.8973H29.8978H29.8983H29.8988H29.8993H29.8998H29.9004H29.9009H29.9014H29.9019H29.9024H29.9029H29.9034H29.9039H29.9044H29.905H29.9055H29.906H29.9065H29.907H29.9075H29.908H29.9085H29.9091H29.9096H29.9101H29.9106H29.9111H29.9116H29.9121H29.9127H29.9132H29.9137H29.9142H29.9147H29.9152H29.9158H29.9163H29.9168H29.9173H29.9178H29.9184H29.9189H29.9194H29.9199H29.9204H29.9209H29.9215H29.922H29.9225H29.923H29.9236H29.9241H29.9246H29.9251H29.9256H29.9262H29.9267H29.9272H29.9277H29.9283H29.9288H29.9293H29.9298H29.9304H29.9309H29.9314H29.9319H29.9325H29.933H29.9335H29.9341H29.9346H29.9351H29.9356H29.9362H29.9367H29.9372H29.9378H29.9383H29.9388H29.9394H29.9399H29.9404H29.9409H29.9415H29.942H29.9425H29.9431H29.9436H29.9442H29.9447H29.9452H29.9458H29.9463H29.9468H29.9474H29.9479H29.9484H29.949H29.9495H29.9501H29.9506H29.9511H29.9517H29.9522H29.9528H29.9533H29.9538H29.9544H29.9549H29.9555H29.956H29.9566H29.9571H29.9576H29.9582H29.9587H29.9593H29.9598H29.9604H29.9609H29.9615H29.962H29.9626H29.9631H30.8641L31.149 19.1589L31.1678 19.1026Z" stroke="white" stroke-width="2.5" stroke-miterlimit="10"/>
  <path d="M16.3773 45.0482L16.3792 45.0491C19.358 46.5872 22.3367 48.1253 25.2968 49.6822M16.3773 45.0482L17.7265 39.8701C15.2905 38.4817 12.8357 37.1309 10.3435 35.8364M16.3773 45.0482C14.7046 44.1907 13.0223 43.3523 11.3373 42.5126M16.3773 45.0482L11.3373 42.5126M25.2968 49.6822C26.015 50.0574 26.7292 50.4409 27.4433 50.8245C28.8716 51.5916 30.2999 52.3588 31.7615 53.0592C33.2539 53.7917 34.8034 54.4326 36.3475 55.0713C36.781 55.2507 37.2141 55.4298 37.6453 55.6107C38.245 55.8734 38.8446 55.7796 39.388 55.3481C40.0813 54.804 40.7746 54.2787 41.4867 53.7534M25.2968 49.6822L25.5295 49.2397C25.5294 49.2396 25.5292 49.2395 25.529 49.2394C25.5288 49.2393 25.5285 49.2391 25.5283 49.239L25.2968 49.6822ZM41.4867 53.7534C43.8044 52.03 46.3082 50.6015 48.8147 49.1714C49.0642 49.0291 49.3136 48.8868 49.563 48.7441C50.706 48.0875 51.8677 47.4121 52.9358 46.6429C54.5972 45.4547 56.2419 44.2332 57.8867 43.0117C58.7091 42.4009 59.5316 41.79 60.3562 41.1834C60.7184 40.9173 61.0806 40.6515 61.4426 40.3859C63.6841 38.7413 65.9198 37.1009 68.1139 35.4049C69.4121 34.3999 70.6625 33.3471 71.9129 32.2942C72.4132 31.873 72.9135 31.4517 73.4168 31.0335C73.548 30.9022 73.6604 30.7334 73.7541 30.5645C74.1101 29.8891 73.8853 29.2325 73.5668 28.6134C73.3044 28.1256 73.1733 28.1068 72.7423 28.4633L72.7399 28.4653C72.1411 28.9711 71.5422 29.477 70.9621 29.9829M41.4867 53.7534L41.1898 53.351C41.1895 53.3512 41.1892 53.3515 41.1889 53.3517M41.4867 53.7534L41.1883 53.3521C41.1885 53.352 41.1887 53.3519 41.1889 53.3517M70.9621 29.9829C68.9804 31.7135 66.8683 33.2542 64.7578 34.7938C64.2142 35.1904 63.6707 35.5869 63.1295 35.9865M70.9621 29.9829L71.2907 30.3598C71.2908 30.3597 71.2909 30.3596 71.291 30.3595M70.9621 29.9829L71.291 30.3595M63.1295 35.9865C60.8809 37.6562 58.6135 39.3072 56.3275 40.9395M63.1295 35.9865L63.4276 36.3879C63.4274 36.3881 63.4272 36.3882 63.4271 36.3883C61.1764 38.0596 58.9071 39.712 56.619 41.3457M63.1295 35.9865L31.4436 47.1347M56.3275 40.9395C56.0824 41.1163 55.8379 41.2936 55.5933 41.4709C54.2295 42.4595 52.8668 43.4472 51.4368 44.354C50.1646 45.153 48.8638 45.9091 47.561 46.6664C46.7529 47.1361 45.944 47.6063 45.1407 48.0875M56.3275 40.9395L56.618 41.3464C56.6183 41.3462 56.6187 41.3459 56.619 41.3457M56.3275 40.9395L56.6201 41.3449C56.6197 41.3452 56.6194 41.3454 56.619 41.3457M45.1407 48.0875C43.1731 49.2694 41.3368 50.6202 39.5192 52.0273M45.1407 48.0875L45.3976 48.5164M45.1407 48.0875L45.3981 48.5161C45.398 48.5162 45.3978 48.5163 45.3976 48.5164M39.5192 52.0273C39.0132 52.4213 38.4886 52.5151 37.8889 52.365C35.6591 51.7834 33.5042 51.033 31.5179 49.851M39.5192 52.0273L39.8252 52.4227C39.8256 52.4224 39.8259 52.4222 39.8263 52.4219M39.5192 52.0273L39.8264 52.4218C39.8263 52.4219 39.8263 52.4219 39.8263 52.4219M31.5179 49.851C30.6665 49.3454 29.8152 48.8369 28.9627 48.3278C27.6012 47.5148 26.237 46.7 24.8658 45.8924C21.8489 44.1101 18.832 42.3466 15.7964 40.6018C14.8044 40.0251 13.8003 39.4666 12.7978 38.9091C12.0392 38.4872 11.2816 38.0658 10.5309 37.6375M31.5179 49.851L31.2622 50.2807M31.5179 49.851L31.2626 50.2809C31.2625 50.2809 31.2623 50.2808 31.2622 50.2807M10.5309 37.6375C9.93131 37.2998 9.31295 37.1309 8.60089 37.1872M10.5309 37.6375L10.2831 38.0718C10.2835 38.072 10.284 38.0722 10.2844 38.0725M10.5309 37.6375L10.2856 38.0731C10.2852 38.0729 10.2848 38.0727 10.2844 38.0725M8.60089 37.1872C7.81388 37.2623 7.04559 37.1309 6.40848 36.5306M8.60089 37.1872L8.64029 37.6857C8.64155 37.6856 8.64282 37.6855 8.64408 37.6854M8.60089 37.1872L8.64836 37.685C8.64693 37.6851 8.6455 37.6852 8.64408 37.6854M6.40848 36.5306C6.11815 36.269 5.77162 36.0749 5.42112 35.8786C5.31919 35.8215 5.21691 35.7643 5.11559 35.7051M6.40848 36.5306L6.06558 36.8945C6.06705 36.8959 6.06853 36.8972 6.07 36.8986M6.40848 36.5306L6.07378 36.902C6.07252 36.9009 6.07126 36.8998 6.07 36.8986M5.11559 35.7051C4.70335 35.48 4.2536 35.4237 3.80388 35.4987C3.62866 35.5238 3.45715 35.56 3.2877 35.5958C3.0766 35.6404 2.8687 35.6843 2.66081 35.7051M5.11559 35.7051L4.86342 36.1368C4.86567 36.1382 4.86791 36.1395 4.87014 36.1408M5.11559 35.7051L4.87594 36.1439C4.87401 36.1429 4.87208 36.1418 4.87014 36.1408M2.66081 35.7051C2.19235 35.7614 1.96753 35.4424 2.22987 35.0484C2.43599 34.7483 2.71703 34.4856 3.01685 34.3168C3.91629 33.8102 4.89072 33.829 5.86511 34.0353C7.45787 34.373 8.91943 35.086 10.3435 35.8364M2.66081 35.7051L2.71062 36.2026C2.71213 36.2024 2.71364 36.2023 2.71514 36.2021M2.66081 35.7051L2.72046 36.2015C2.71869 36.2017 2.71692 36.2019 2.71514 36.2021M10.3435 35.8364L10.5766 35.3941C10.5762 35.3938 10.5757 35.3936 10.5752 35.3933M10.3435 35.8364L10.574 35.3927C10.5744 35.3929 10.5748 35.3931 10.5752 35.3933M10.5752 35.3933C13.074 36.6913 15.5342 38.0451 17.974 39.4357L17.9741 39.4357C19.3255 40.2062 20.6672 40.9906 22.0061 41.7733L22.0076 41.7742C23.3478 42.5577 24.6852 43.3396 26.0316 44.1073L26.0328 44.1079C26.4271 44.3341 26.8192 44.5613 27.2101 44.7878C28.6141 45.6013 30.0048 46.4071 31.4436 47.1347M10.5752 35.3933C9.14866 34.6416 7.6345 33.8994 5.96882 33.5462L5.96871 33.5462C4.93994 33.3283 3.82292 33.2889 2.77149 33.8811C2.40005 34.0903 2.0636 34.4073 1.81769 34.7654L1.81764 34.7654L1.81369 34.7713C1.61927 35.0633 1.51916 35.4717 1.75633 35.8245C1.98268 36.1613 2.38135 36.2409 2.71514 36.2021M31.4436 47.1347L31.2181 47.5809L31.4437 47.1347C31.4437 47.1347 31.4436 47.1347 31.4436 47.1347ZM31.4436 47.1347C32.7728 47.8063 34.112 48.4251 35.4604 49.0482C36.139 49.3618 36.8199 49.6764 37.503 49.9994L37.5071 50.0013C37.6715 50.0809 37.7893 50.1412 37.8881 50.1919C37.9847 50.2413 38.063 50.2815 38.1488 50.321C38.2984 50.3901 38.3353 50.3881 38.3389 50.3879C38.339 50.3879 38.3471 50.3881 38.3704 50.3791C38.3967 50.3688 38.4387 50.3481 38.5041 50.3058C38.6412 50.2173 38.8222 50.0737 39.1086 49.8395M31.4436 47.1347L63.7077 31.1542M2.71514 36.2021C2.93055 36.1803 3.13998 36.1378 3.32814 36.0983C3.34919 36.0938 3.36996 36.0894 3.39049 36.0851C3.56207 36.0489 3.71686 36.0162 3.87468 35.9937L3.8747 35.9938L3.88618 35.9919C4.23702 35.9333 4.56921 35.9782 4.87014 36.1408M4.87014 36.1408C4.98924 36.2102 5.102 36.2735 5.20908 36.3336C5.54554 36.5223 5.82585 36.6796 6.07 36.8986M6.07 36.8986C6.8442 37.6254 7.77172 37.7678 8.64408 37.6854M8.64408 37.6854C9.24074 37.639 9.75944 37.7771 10.2844 38.0725M10.2844 38.0725C11.0471 38.5076 11.8065 38.9299 12.5641 39.3512C13.5598 39.9049 14.5524 40.4569 15.5451 41.034L15.5473 41.0353C18.5808 42.7788 21.5959 44.5414 24.6114 46.3229L24.612 46.3233C25.9825 47.1304 27.3439 47.9434 28.7041 48.7558C29.5566 49.2649 30.4087 49.7738 31.2622 50.2807M31.2622 50.2807C33.3046 51.496 35.5092 52.2611 37.7627 52.8489L37.7675 52.8501C38.5086 53.0356 39.1929 52.9151 39.8263 52.4219M39.8263 52.4219C41.6382 51.0192 43.4559 49.6829 45.3976 48.5164M45.3976 48.5164C46.1884 48.0428 46.9924 47.5753 47.799 47.1065C49.109 46.3449 50.4256 45.5795 51.7027 44.7774L51.7045 44.7763C53.1488 43.8604 54.5258 42.8623 55.8892 41.8739C56.1328 41.6974 56.376 41.5211 56.619 41.3457M71.291 30.3595C71.8677 29.8566 72.4635 29.3533 73.0629 28.8469L73.0631 28.8468C73.0781 28.8344 73.0923 28.8228 73.1057 28.8121C73.1116 28.8229 73.1178 28.8342 73.1242 28.8461C73.4295 29.4404 73.5428 29.8886 73.3142 30.3268C73.237 30.4653 73.1568 30.5821 73.0774 30.6655C72.5752 31.0828 72.0783 31.5013 71.5828 31.9184C70.3356 32.9687 69.0974 34.0112 67.8078 35.0095C65.6193 36.7013 63.3893 38.3375 61.1476 39.9822C60.7854 40.248 60.4229 40.5139 60.0602 40.7804L60.0599 40.7806C59.2314 41.3901 58.407 42.0024 57.5837 42.6139C55.9412 43.8337 54.3029 45.0505 52.645 46.2362L52.6436 46.2371C51.5992 46.9893 50.4587 47.6529 49.3139 48.3106C49.0644 48.4533 48.8145 48.5959 48.5642 48.7386C46.0622 50.1661 43.5322 51.6094 41.1889 53.3517M71.291 30.3595L41.1889 53.3517M63.7077 31.1542C63.7075 31.1544 63.7072 31.1546 63.707 31.1548L63.4106 30.7521L63.7077 31.1542ZM63.7077 31.1542C64.2945 30.7223 64.8878 30.2925 65.4832 29.8612C67.4552 28.4328 69.4502 26.9879 71.307 25.3903L71.3124 25.3855C71.6237 25.1098 71.9378 24.846 72.2603 24.5752C72.4388 24.4253 72.6198 24.2733 72.8044 24.1159L72.8055 24.1149C72.9374 24.0017 73.0083 23.9456 73.0972 23.9011L73.1032 23.8981C73.3557 24.3373 73.4671 24.7514 73.3791 25.1437C73.3516 25.2615 73.253 25.4201 73.1196 25.5403L73.1185 25.5413C70.3632 28.0391 67.4365 30.3165 64.4265 32.5253C62.5903 33.8666 60.7588 35.2079 58.9276 36.549L58.9271 36.5493L58.926 36.5501C57.0947 37.8913 55.2636 39.2323 53.4279 40.5732L53.4278 40.5733C51.5786 41.9248 49.5947 43.0951 47.5741 44.2377L47.5722 44.2388C44.644 45.9114 41.747 47.6731 39.1086 49.8395M39.1086 49.8395C39.1087 49.8394 39.1089 49.8393 39.109 49.8392L39.4255 50.2263L39.1082 49.8398C39.1083 49.8397 39.1085 49.8396 39.1086 49.8395ZM11.3373 42.5126C10.6628 42.1765 9.98788 41.8402 9.31296 41.5023M11.3373 42.5126L9.31296 41.5023M9.31296 41.5023C8.18866 40.9395 7.02689 40.5267 5.8089 40.189L9.31296 41.5023Z" fill="white" stroke="white"/>
  <path d="M67.7318 11.5944C67.6985 11.6204 67.6655 11.6459 67.6329 11.6712C67.6082 11.6903 67.5837 11.7093 67.5593 11.7283C67.5591 11.7285 67.5589 11.7286 67.5587 11.7288L67.2515 11.3343C65.9585 12.3474 64.4595 12.9477 62.9042 13.4355L67.7318 11.5944ZM67.7318 11.5944C68.0786 11.8577 68.4106 12.1151 68.7401 12.3787C67.2162 13.3859 65.5911 14.1535 63.8468 14.6828C61.5662 15.364 59.2435 15.7284 56.8559 15.6189L56.8546 15.6189C54.3009 15.5085 51.8845 15.0131 49.6421 13.8544L49.6387 13.8526C48.211 13.1288 46.9711 12.1828 46.0554 10.8782L46.0542 10.8765C44.6947 8.95688 44.4823 6.89988 45.3085 4.68119C45.64 3.80833 46.1503 3.01067 46.7465 2.26872C46.7653 2.24582 46.7785 2.23321 46.7861 2.22677C46.7968 2.22696 46.8173 2.22862 46.8508 2.23572C47.3387 2.34556 47.8261 2.4397 48.3339 2.5324C48.3257 2.54069 48.3175 2.54894 48.3093 2.55716L48.3092 2.55708L48.3019 2.56477C47.3975 3.50965 46.6861 4.59747 46.3599 5.92425L46.3598 5.92457C45.8066 8.18131 46.4981 10.0861 48.1123 11.6215C49.7186 13.1502 51.6879 13.9495 53.7637 14.4114L53.7672 14.4122C56.913 15.0885 60.0181 14.8744 63.0548 13.9123L67.7318 11.5944ZM46.794 2.22088C46.794 2.22093 46.7934 2.22133 46.7922 2.22193C46.7934 2.22114 46.794 2.22083 46.794 2.22088ZM46.778 2.22695C46.777 2.22715 46.7764 2.2272 46.7764 2.22717L46.778 2.22695Z" fill="black" fill-opacity="0.87" stroke="white"/>
  <path d="M49.7312 2.55404C50.1622 3.26696 50.5182 3.9236 50.9492 4.52396C52.0548 6.0061 53.5164 7.09425 55.1091 8.01355C58.5008 10.0022 62.1735 11.0153 66.1273 11.0153C66.3521 11.0153 66.5957 11.0153 66.8581 11.0716C66.3521 11.353 65.8649 11.672 65.359 11.9346C64.9093 12.1785 64.4595 12.3849 63.9911 12.5725C63.7662 12.6663 63.4852 12.7038 63.2603 12.6851C61.0679 12.4412 58.913 11.9722 56.833 11.1842C54.4907 10.3024 52.3359 9.1017 50.4995 7.37567C49.6376 6.55017 48.8693 5.63088 48.2696 4.61777C48.2322 4.54273 48.2134 4.4114 48.2509 4.37387C48.7381 3.77351 49.244 3.17316 49.7499 2.5728L49.7312 2.55404Z" fill="white"/>
</svg>