<svg width="48" height="126" viewBox="0 0 48 126" fill="none" xmlns="http://www.w3.org/2000/svg">
<path d="M13.8139 20.147C13.6211 19.9383 13.4834 19.7859 13.3884 19.6631L13.4004 19.6164L13.2822 19.2654L12.3847 16.5991L12.1852 16.0064L11.5912 15.8107C10.6166 15.4896 10.2178 15.2202 10.0643 15.0614C9.99166 14.9862 9.96381 14.9474 9.97894 14.7545C10.0008 14.4757 10.1 14.1454 10.2753 13.5619C10.2931 13.5026 10.3117 13.4407 10.3311 13.3759C10.5231 12.7345 10.7507 11.9263 10.844 10.9734L10.8441 10.9732C10.8933 10.4693 11.1594 9.59704 11.6541 8.49552C12.1351 7.42463 12.7869 6.23659 13.5209 5.13008C14.2588 4.01769 15.0527 3.02865 15.8073 2.32825C16.6117 1.58166 17.1685 1.35272 17.443 1.34498L17.4078 0.0964501L17.4418 1.34501C22.0966 1.21832 24.6864 1.21835 29.3413 1.34505L29.3413 1.34511L29.3537 1.34532C29.3599 1.34543 29.4622 1.35209 29.6803 1.48675C29.8938 1.61861 30.1543 1.83397 30.455 2.14586C31.0578 2.77096 31.704 3.65858 32.3414 4.66175C33.4005 6.32858 34.3404 8.15917 34.9444 9.33555C35.0662 9.57275 35.1743 9.78334 35.267 9.96064C36.0465 11.4572 36.0462 13.1468 35.5838 14.9207C35.5153 15.1756 35.2886 15.4051 34.548 15.892C34.5191 15.911 34.4892 15.9306 34.4584 15.9508C34.1596 16.1463 33.7775 16.3965 33.4463 16.6869C33.0655 17.0207 32.6646 17.4787 32.4529 18.1156L32.3423 18.4482L32.4208 18.7899C32.525 19.2436 32.538 19.4063 32.5594 19.6741C32.5729 19.8431 32.5897 20.054 32.635 20.4062L32.6349 20.4063L32.6363 20.416C32.7618 21.3366 32.7637 22.2703 32.7637 23.3025C32.7637 23.3171 32.7637 23.3319 32.7637 23.3469C32.7635 23.7415 32.7633 24.3195 32.8829 24.8747C33.1406 26.1448 33.4088 27.4048 33.6758 28.6594C34.429 32.1983 35.1731 35.6942 35.646 39.2537L35.6459 39.2537L35.6479 39.2674C35.8999 41.0157 35.5172 42.8631 35.0893 44.9288C35.0329 45.2015 34.9756 45.4781 34.9189 45.7587L34.9188 45.7587L34.9172 45.7672C34.6548 47.1138 34.6685 48.4212 35.0544 49.6655C35.4417 50.914 36.1794 52.0202 37.2447 52.9964C37.4603 53.1939 37.6754 53.3902 37.8894 53.5855C39.168 54.7521 40.4117 55.8868 41.5245 57.082C44.9863 60.8579 46.75 65.1864 46.75 70.0256V70.1152V70.2047V70.2942V70.3837V70.4732V70.5628V70.6523V70.7418V70.8313V70.9208V71.0104V71.0999V71.1894V71.279V71.3685V71.458V71.5475V71.6371V71.7266V71.8161V71.9057V71.9952V72.0848V72.1743V72.2638V72.3534V72.4429V72.5325V72.622V72.7115V72.8011V72.8906V72.9802V73.0697V73.1593V73.2488V73.3384V73.4279V73.5175V73.607V73.6966V73.7861V73.8757V73.9652V74.0548V74.1443V74.2339V74.3235V74.413V74.5026V74.5921V74.6817V74.7713V74.8608V74.9504V75.0399V75.1295V75.2191V75.3086V75.3982V75.4878V75.5773V75.6669V75.7565V75.8461V75.9356V76.0252V76.1148V76.2043V76.2939V76.3835V76.4731V76.5626V76.6522V76.7418V76.8314V76.921V77.0105V77.1001V77.1897V77.2793V77.3689V77.4584V77.548V77.6376V77.7272V77.8168V77.9064V77.9959V78.0855V78.1751V78.2647V78.3543V78.4439V78.5335V78.6231V78.7127V78.8023V78.8919V78.9814V79.071V79.1606V79.2502V79.3398V79.4294V79.519V79.6086V79.6982V79.7878V79.8774V79.967V80.0566V80.1462V80.2358V80.3254V80.415V80.5046V80.5942V80.6838V80.7734V80.863V80.9526V81.0423V81.1319V81.2215V81.3111V81.4007V81.4903V81.5799V81.6695V81.7591V81.8487V81.9383V82.0279V82.1176V82.2072V82.2968V82.3864V82.476V82.5656V82.6552V82.7449V82.8345V82.9241V83.0137V83.1033V83.1929V83.2825V83.3722V83.4618V83.5514V83.641V83.7306V83.8203V83.9099V83.9995V84.0891V84.1787V84.2684V84.358V84.4476V84.5372V84.6269V84.7165V84.8061V84.8957V84.9854V85.075V85.1646V85.2542V85.3438V85.4335V85.5231V85.6127V85.7024V85.792V85.8816V85.9712V86.0609V86.1505V86.2401V86.3298V86.4194V86.509V86.5986V86.6883V86.7779V86.8675V86.9572V87.0468V87.1364V87.2261V87.3157V87.4053V87.4949V87.5846V87.6742V87.7638V87.8535V87.9431V88.0328V88.1224V88.212V88.3017V88.3913V88.4809V88.5706V88.6602V88.7498V88.8395V88.9291V89.0187V89.1084V89.198V89.2876V89.3773V89.4669V89.5565V89.6462V89.7358V89.8255V89.9151V90.0047V90.0944V90.184V90.2737V90.3633V90.4529V90.5426V90.6322V90.7218V90.8115V90.9011V90.9908V91.0804V91.17V91.2597V91.3493V91.4389V91.5286V91.6182V91.7079V91.7975V91.8871V91.9768V92.0664V92.1561V92.2457V92.3353V92.425V92.5146V92.6043V92.6939V92.7835V92.8732V92.9628V93.0525V93.1421V93.2317V93.3214V93.411V93.5006V93.5903V93.6799V93.7696V93.8592V93.9488V94.0385V94.1281V94.2178V94.3074V94.397V94.4867V94.5763V94.666V94.7556V94.8452V94.9349V95.0245V95.1142V95.2038V95.2934V95.3831V95.4727V95.5623V95.652V95.7416V95.8313V95.9209V96.0105V96.1002V96.1898V96.2794V96.3691V96.4587V96.5483V96.638V96.7276V96.8173V96.9069V96.9965V97.0862V97.1758V97.2654V97.3551V97.4447V97.5343V97.624V97.7136V97.8032V97.8929V97.9825V98.0721V98.1618V98.2514V98.341V98.4307V98.5203V98.6099V98.6996V98.7892V98.8788V98.9685V99.0581V99.1477V99.2374V99.327V99.4166V99.5062V99.5959V99.6855V99.7751V99.8648V99.9544V100.044V100.134V100.223V100.313V100.403V100.492V100.582V100.671V100.761V100.851V100.94V101.03V101.12V101.209V101.299V101.388V101.478V101.568V101.657V101.747V101.837V101.926V102.016V102.105V102.195V102.285V102.374V102.464V102.553V102.643V102.733V102.822V102.912V103.002V103.091V103.181V103.27V103.36V103.45V103.539V103.629V103.718V103.808V103.898V103.987V104.077V104.167V104.256V104.346V104.435V104.525V104.615V104.704V104.794V104.883V104.973V105.063V105.152V105.242V105.331V105.421V105.511V105.6V105.69V105.779V105.869V105.959V106.048V106.138V106.227V106.317V106.407V106.496V106.586V106.675V106.765V106.855V106.944V107.034V107.123V107.213V107.303V107.392V107.482V107.571V107.661V107.75V107.84V107.93V108.019V108.109V108.198V108.288V108.378V108.467V108.557V108.646V108.736V108.826V108.915V109.005V109.094V109.184V109.273V109.363V109.453V109.542V109.632V109.721V109.811V109.9V109.99V110.08V110.169V110.259V110.348V110.438V110.527V110.617V110.707V110.796V110.886V110.975V111.065V111.154V111.244V111.333V111.423V111.513V111.602V111.692V111.781V111.871V111.96V112.05V112.14V112.229V112.319V112.408V112.498V112.587V112.677V112.766V112.856V112.945V113.035V113.125V113.214V113.304V113.393V113.483V113.572V113.662V113.751V113.841V113.93V114.02V114.109V114.199V114.289V114.378V114.468V114.557V114.647V114.736V114.826V114.915V115.005V115.094V115.184V115.273V115.363V115.452V115.542V115.631V115.721V115.81V115.9C46.75 120.874 42.6517 124.75 36.9314 124.75H36.8809H36.8304H36.78H36.7295H36.679H36.6286H36.5781H36.5276H36.4772H36.4267H36.3762H36.3258H36.2753H36.2249H36.1744H36.124H36.0735H36.023H35.9726H35.9221H35.8717H35.8212H35.7708H35.7203H35.6699H35.6194H35.569H35.5185H35.4681H35.4177H35.3672H35.3168H35.2663H35.2159H35.1655H35.115H35.0646H35.0141H34.9637H34.9133H34.8628H34.8124H34.762H34.7115H34.6611H34.6107H34.5603H34.5098H34.4594H34.409H34.3586H34.3081H34.2577H34.2073H34.1569H34.1064H34.056H34.0056H33.9552H33.9048H33.8543H33.8039H33.7535H33.7031H33.6527H33.6023H33.5519H33.5015H33.451H33.4006H33.3502H33.2998H33.2494H33.199H33.1486H33.0982H33.0478H32.9974H32.947H32.8966H32.8462H32.7958H32.7454H32.695H32.6446H32.5942H32.5438H32.4934H32.443H32.3926H32.3422H32.2918H32.2414H32.191H32.1406H32.0903H32.0399H31.9895H31.9391H31.8887H31.8383H31.7879H31.7375H31.6871H31.6368H31.5864H31.536H31.4856H31.4352H31.3848H31.3345H31.2841H31.2337H31.1833H31.1329H31.0826H31.0322H30.9818H30.9314H30.8811H30.8307H30.7803H30.7299H30.6796H30.6292H30.5788H30.5284H30.4781H30.4277H30.3773H30.327H30.2766H30.2262H30.1759H30.1255H30.0751H30.0248H29.9744H29.924H29.8737H29.8233H29.7729H29.7226H29.6722H29.6218H29.5715H29.5211H29.4708H29.4204H29.37H29.3197H29.2693H29.2189H29.1686H29.1182H29.0679H29.0175H28.9672H28.9168H28.8664H28.8161H28.7657H28.7154H28.665H28.6147H28.5643H28.514H28.4636H28.4133H28.3629H28.3125H28.2622H28.2118H28.1615H28.1111H28.0608H28.0104H27.9601H27.9097H27.8594H27.809H27.7587H27.7083H27.658H27.6076H27.5573H27.507H27.4566H27.4063H27.3559H27.3056H27.2552H27.2049H27.1545H27.1042H27.0538H27.0035H26.9531H26.9028H26.8525H26.8021H26.7518H26.7014H26.6511H26.6007H26.5504H26.5001H26.4497H26.3994H26.349H26.2987H26.2484H26.198H26.1477H26.0973H26.047H25.9966H25.9463H25.896H25.8456H25.7953H25.7449H25.6946H25.6443H25.5939H25.5436H25.4932H25.4429H25.3926H25.3422H25.2919H25.2416H25.1912H25.1409H25.0905H25.0402H24.9899H24.9395H24.8892H24.8388H24.7885H24.7382H24.6878H24.6375H24.5872H24.5368H24.4865H24.4361H24.3858H24.3355H24.2851H24.2348H24.1845H24.1341H24.0838H24.0334H23.9831H23.9328H23.8824H23.8321H23.7818H23.7314H23.6811H23.6307H23.5804H23.5301H23.4797H23.4294H23.3791H23.3287H23.2784H23.228H23.1777H23.1274H23.077H23.0267H22.9764H22.926H22.8757H22.8253H22.775H22.7247H22.6743H22.624H22.5736H22.5233H22.473H22.4226H22.3723H22.322H22.2716H22.2213H22.1709H22.1206H22.0702H22.0199H21.9696H21.9192H21.8689H21.8185H21.7682H21.7179H21.6675H21.6172H21.5668H21.5165H21.4662H21.4158H21.3655H21.3151H21.2648H21.2144H21.1641H21.1137H21.0634H21.0131H20.9627H20.9124H20.862H20.8117H20.7613H20.711H20.6606H20.6103H20.5599H20.5096H20.4592H20.4089H20.3586H20.3082H20.2579H20.2075H20.1572H20.1068H20.0565H20.0061H19.9558H19.9054H19.8551H19.8047H19.7543H19.704H19.6536H19.6033H19.5529H19.5026H19.4522H19.4019H19.3515H19.3012H19.2508H19.2005H19.1501H19.0997H19.0494H18.999H18.9487H18.8983H18.8479H18.7976H18.7472H18.6969H18.6465H18.5961H18.5458H18.4954H18.4451H18.3947H18.3443H18.294H18.2436H18.1932H18.1429H18.0925H18.0421H17.9918H17.9414H17.891H17.8407H17.7903H17.7399H17.6896H17.6392H17.5888H17.5384H17.4881H17.4377H17.3873H17.337H17.2866H17.2362H17.1858H17.1355H17.0851H17.0347H16.9843H16.9339H16.8836H16.8332H16.7828H16.7324H16.682H16.6317H16.5813H16.5309H16.4805H16.4301H16.3797H16.3294H16.279H16.2286H16.1782H16.1278H16.0774H16.027H15.9766H15.9263H15.8759H15.8255H15.7751H15.7247H15.6743H15.6239H15.5735H15.5231H15.4727H15.4223H15.3719H15.3215H15.2711H15.2207H15.1703H15.1199H15.0695H15.0191H14.9687H14.9183H14.8679H14.8175H14.7671H14.7167H14.6663H14.6158H14.5654H14.515H14.4646H14.4142H14.3638H14.3134H14.263H14.2125H14.1621H14.1117H14.0613H14.0109H13.9605H13.91H13.8596H13.8092H13.7588H13.7083H13.6579H13.6075H13.5571H13.5066H13.4562H13.4058H13.3554H13.3049H13.2545H13.2041H13.1536H13.1032H13.0528H13.0023H12.9519H12.9014H12.851H12.8006H12.7501H12.6997H12.6492H12.5988H12.5484H12.4979H12.4475H12.397H12.3466H12.2961H12.2457H12.1952H12.1448H12.0943H12.0439H11.9934H11.9429H11.8925H11.842H11.7916H11.7411H11.6906H11.6402H11.5897H11.5393H11.4888H11.4383H11.3879H11.3374H11.2869H11.2365H11.186H11.1355C5.32971 124.75 1.27058 120.881 1.27058 115.815C1.27058 110.736 1.26544 105.653 1.26029 100.569C1.25 90.4 1.23971 80.2277 1.27058 70.0719V70.0681C1.27058 64.6288 3.42157 59.9364 7.55757 55.9448L7.56392 55.9387L7.57017 55.9325C8.28864 55.2193 9.02698 54.5607 9.79305 53.8774C10.19 53.5233 10.5945 53.1626 11.0074 52.7842C13.0276 50.9331 14.0725 48.5147 13.2636 45.705C11.334 38.9115 12.8007 32.4801 14.9236 25.5869L14.9296 25.5675L14.9349 25.548C15.1158 24.8851 15.0663 24.1774 15.0271 23.6888C15.0201 23.6013 15.0132 23.519 15.0068 23.4413C14.9716 23.0185 14.9478 22.7323 14.9694 22.4855C14.9734 22.4578 14.9767 22.4303 14.9792 22.403C14.981 22.3881 14.9827 22.3741 14.9842 22.361C14.9882 22.3273 14.992 22.293 14.9948 22.2615C14.9962 22.2463 14.9981 22.224 14.9994 22.1988C15.0001 22.1861 15.001 22.1672 15.0014 22.1446C15.0016 22.133 15.0017 22.1179 15.0014 22.1004C15.0011 22.0835 15.0003 22.059 14.9982 22.0295C14.9971 22.0144 14.9954 21.9957 14.9929 21.9744C14.9905 21.9535 14.9868 21.9263 14.981 21.8946C14.9754 21.864 14.9664 21.8208 14.9516 21.7701C14.9452 21.7488 14.9302 21.7034 14.9214 21.6792C14.9104 21.651 14.8842 21.5906 14.8687 21.5585C14.8517 21.526 14.814 21.462 14.7856 21.4178C14.6946 21.2271 14.5927 21.0783 14.5265 20.9848C14.3214 20.6954 14.0531 20.4054 13.8514 20.1874C13.8386 20.1737 13.8261 20.1602 13.8139 20.147ZM13.2945 19.5291C13.2818 19.5077 13.2778 19.4977 13.2789 19.4981C13.2801 19.4985 13.2865 19.5092 13.2945 19.5291Z" />
</svg>
