<svg xmlns="http://www.w3.org/2000/svg" width="124" height="124" viewBox="0 0 124 124" fill="none">
  <path d="M0 61.9566C0 27.7389 27.7583 0 62 0C96.2417 0 124 27.7389 124 61.9566C124 96.1743 96.2417 123.913 62 123.913C27.7583 123.913 0 96.1743 0 61.9566Z" fill="#007E4C"/>
  <path d="M67.6762 0.267054C56.6338 8.32141 27.9534 13.9237 15.5 32.5C3.47207 55 10.6576 77.6701 7.47207 91.4714C2.70448 82.7014 0 72.6388 0 61.9566C0 27.7416 27.761 0 62 0C63.9134 0 65.8055 0.0854574 67.6762 0.267054Z" fill="white" fill-opacity="0.05"/>
  <path d="M123.751 61.5819C124.006 95.7959 96.4532 123.744 62.2152 123.999C62.0228 124 61.8304 124.002 61.6379 123.993C74.2847 114.049 99.4833 107.099 110.5 85C119.358 67.2331 112.798 42.0932 114.143 28.9117C120.157 38.3636 123.661 49.5541 123.751 61.5819Z" fill="black" fill-opacity="0.1"/>
</svg>