<svg xmlns="http://www.w3.org/2000/svg" width="75" height="45" viewBox="0 0 75 45" fill="none">
  <path d="M37.0572 9.70831C37.3833 9.75619 37.8393 9.7745 38.2957 9.54947C38.7707 9.31529 39.0267 8.92692 39.1742 8.6384L37.0572 9.70831ZM37.0572 9.70831C36.8408 9.68034 36.6248 9.6524 36.4093 9.6245C34.738 9.4082 33.0906 9.19501 31.4232 8.99907C31.0896 8.96429 30.688 8.87247 30.3234 8.60323C29.9441 8.32314 29.752 7.96031 29.6408 7.67424L29.6376 7.666L29.6345 7.65771C29.3041 6.77066 28.982 5.95199 28.6566 5.12473C28.3729 4.40364 28.0867 3.67602 27.7901 2.89088L27.7864 2.88113L27.7829 2.87131C27.7749 2.84909 27.7681 2.83376 27.7631 2.8239C27.7354 2.81292 27.6681 2.79181 27.5361 2.77876L27.5283 2.77798L27.5283 2.77796L27.5258 2.77769C24.5627 2.46566 21.5942 2.15306 18.625 1.81805L18.6184 1.8173L18.6184 1.81728C18.4493 1.79728 18.3685 1.81149 18.3423 1.81825C18.334 1.82853 18.3178 1.85118 18.297 1.89296L18.2895 1.90791L18.2816 1.92266C17.9283 2.58466 17.5689 3.24595 17.2121 3.90232L17.2108 3.90465C16.8529 4.56321 16.4976 5.21685 16.1491 5.86977L16.1439 5.87964L16.1438 5.87961C13.8036 10.1718 11.4634 14.4696 9.12294 18.7678L9.12258 18.7685L9.12248 18.7686C6.78878 23.0544 4.45488 27.3406 2.12096 31.6213C2.17407 31.6305 2.23253 31.6394 2.29672 31.6476C4.86992 31.9374 7.43073 32.2256 9.98975 32.4695L9.99708 32.4702L10.0044 32.4709C10.3103 32.5037 10.7037 32.5852 11.065 32.848C11.4375 33.1191 11.6218 33.4706 11.7273 33.7238L11.7353 33.7431L11.7427 33.7627C12.0393 34.5478 12.3427 35.3284 12.6486 36.1153L12.6496 36.1179C12.9537 36.9001 13.2602 37.6887 13.5606 38.4838C13.5894 38.5568 13.6118 38.5931 13.6223 38.6079C13.6248 38.6114 13.6267 38.6139 13.6281 38.6155C13.6296 38.6173 13.6304 38.6182 13.6305 38.6183L13.6304 38.6182C13.6302 38.618 13.6301 38.618 13.6302 38.6181C13.6303 38.6181 13.6334 38.6204 13.6412 38.6244C13.6492 38.6285 13.6636 38.6351 13.6865 38.6429C13.7336 38.659 13.8133 38.6791 13.9401 38.6936C15.7341 38.8977 17.5325 39.1244 19.3132 39.3487C20.0683 39.4439 20.8203 39.5387 21.5674 39.6311C21.6853 39.6449 21.7663 39.644 21.8185 39.6389C21.8441 39.6364 21.8615 39.633 21.8721 39.6304C21.8779 39.629 21.8819 39.6277 21.8843 39.6269C21.8899 39.6214 21.9099 39.6 21.9388 39.549C22.1655 39.14 22.4076 38.7357 22.6368 38.3529C22.6696 38.2983 22.702 38.244 22.7342 38.1903C22.9973 37.7502 23.2413 37.3362 23.4576 36.924C23.6538 36.5502 23.9564 36.1605 24.4566 35.9296C24.9182 35.7164 25.3852 35.7177 25.7325 35.7461L25.7576 35.7481L25.7827 35.7512C27.9592 36.0178 30.1305 36.2616 32.2985 36.4608L32.3096 36.4618L32.3096 36.4619C32.614 36.4926 33.0267 36.5687 33.405 36.839C33.8044 37.1244 34 37.505 34.111 37.8077C34.441 38.6935 34.7626 39.5112 35.0877 40.3375C35.3713 41.0585 35.6575 41.7861 35.9541 42.5712L35.9559 42.5759C35.9642 42.5983 35.9714 42.6134 35.9763 42.6226C35.9777 42.6253 35.979 42.6275 35.98 42.6293C36.0016 42.6398 36.072 42.6679 36.2296 42.6829L36.2403 42.6839L36.2509 42.6851C38.8362 42.9762 41.4191 43.3118 43.9654 43.646C44.1333 43.6661 44.2099 43.6521 44.2319 43.6463C44.2401 43.6379 44.2606 43.6145 44.2893 43.5652C44.4596 43.2732 44.6234 43.003 44.78 42.7446C45.1216 42.181 45.4289 41.6741 45.694 41.1212C45.9303 40.6106 46.3082 40.1471 46.9154 39.9091C47.4498 39.6996 47.9946 39.7384 48.3856 39.788C49.8937 39.9746 51.3841 40.1353 52.8856 40.2972C53.8958 40.4061 54.9111 40.5156 55.9402 40.6338L56.0214 40.6432C56.0322 40.6269 56.0456 40.6046 56.0609 40.5745L56.0691 40.5584L56.0777 40.5425L72.2249 10.8528C72.2162 10.8518 72.2073 10.8507 72.1982 10.8497L72.197 10.8496C70.7174 10.6826 69.2374 10.5212 67.7546 10.3595L67.7539 10.3594C66.2722 10.1978 64.7878 10.0359 63.303 9.86837L63.2912 9.86704L63.2912 9.86698C63.1501 9.84969 63.0787 9.85945 63.0525 9.86523C63.0442 9.87533 63.0291 9.89594 63.0095 9.93229L63.0085 9.93415C62.8342 10.2568 62.6618 10.5702 62.492 10.8789C62.1648 11.4739 61.8474 12.051 61.5452 12.6407C61.3661 13.0065 61.0687 13.3877 60.5745 13.5996C60.1229 13.7932 59.6788 13.7679 59.3688 13.7221C59.2494 13.7065 59.1301 13.6908 59.011 13.6752C57.2647 13.4462 55.5551 13.2221 53.8243 13.0364C53.4603 13.0008 53.0364 12.898 52.6605 12.6019C52.2832 12.3046 52.1012 11.9272 51.9981 11.6457C51.7168 10.8891 51.4221 10.1363 51.1227 9.37192L51.1209 9.36723C50.8231 8.60663 50.5207 7.83441 50.2309 7.05489L50.2266 7.0435L50.2226 7.03203C50.1936 6.94912 50.1688 6.90726 50.1566 6.88957C50.1469 6.8756 50.1428 6.87301 50.1421 6.87258L50.142 6.87253L50.142 6.87251C50.1402 6.87123 50.1221 6.85819 50.0714 6.84217C50.0177 6.82519 49.9298 6.80574 49.794 6.79482L49.7827 6.79392L49.7714 6.79281C46.8235 6.50199 43.8771 6.16661 40.9416 5.83247L40.9368 5.83192L40.9262 5.83071L40.9262 5.83067C40.7883 5.81378 40.723 5.82592 40.7028 5.83143C40.6955 5.83897 40.674 5.86343 40.6445 5.91827L40.6435 5.92014C40.4692 6.24274 40.2968 6.55621 40.127 6.86483C39.7979 7.4633 39.4787 8.04356 39.175 8.63684L37.0572 9.70831ZM40.6958 5.83376C40.6958 5.83372 40.6965 5.83341 40.6979 5.83291C40.6966 5.83354 40.6958 5.83379 40.6958 5.83376ZM1.75166 31.5205C1.75168 31.5205 1.75231 31.5208 1.75348 31.5215C1.75223 31.5209 1.75165 31.5205 1.75166 31.5205Z" stroke="white" stroke-width="2.5" stroke-miterlimit="10"/>
</svg>