<svg xmlns="http://www.w3.org/2000/svg" width="54" height="54" viewBox="0 0 54 54" fill="none">
  <path d="M17.4444 4.16522L26.1968 1.19704C26.5754 1.06863 26.9838 1.05666 27.3693 1.16266L42.4827 5.31838C42.9588 5.4493 43.3697 5.75175 43.6362 6.16747L44.1111 6.90841M17.4444 4.16522V4.16522C16.8921 4.16522 16.3794 4.45199 16.0903 4.92261L12.4216 10.8946C12.219 11.2244 11.925 11.4884 11.5753 11.6544L11.2222 11.822M17.4444 4.16522L29.1521 14.8002C29.6161 15.2218 30.251 15.4013 30.8671 15.2853L35.8889 14.3391M10.3333 50.287L16.1075 50.7066C16.4025 50.728 16.6891 50.8146 16.9466 50.9602L20.0975 52.7411C20.3978 52.9108 20.7368 53 21.0817 53H33.8889M10.3333 50.287L1.21361 32.1721C1.07316 31.8931 1 31.5851 1 31.2728V24.9652M10.3333 50.287L18.3752 40.3827C18.6371 40.0602 18.9929 39.8273 19.3931 39.7162L26.1111 37.8522M44.1111 6.90841L49.5197 15.3458C49.759 15.7191 49.8675 16.1614 49.828 16.6031L49.0572 25.2293C49.02 25.6457 49.1142 26.0632 49.3265 26.4233L52.6735 32.0985C52.8858 32.4585 52.98 32.8761 52.9428 33.2924L52.6193 36.9128C52.5781 37.374 52.3781 37.8066 52.0536 38.1368L47.6667 42.6M44.1111 6.90841L42.2722 12.1219C42.0349 12.7946 41.4574 13.29 40.7564 13.4221L35.8889 14.3391M35.8889 14.3391L38.5924 29.7846C38.7082 30.4458 39.1478 31.0048 39.7631 31.2731L44.1449 33.1837C44.6869 33.42 45.0966 33.8841 45.2638 34.4513L47.6667 42.6M47.6667 42.6L43.6667 46.6696M37.4444 39.4348L43.6667 46.6696M43.6667 46.6696L38.0323 52.402C37.6562 52.7845 37.1423 53 36.6059 53H33.8889M33.8889 53V47.4256C33.8889 46.9384 33.711 46.4679 33.3888 46.1026L26.1111 37.8522M11.2222 11.822L5.88671 14.3552C5.59616 14.4932 5.34316 14.6992 5.14918 14.9557L1.40467 19.9083C1.14208 20.2556 1 20.6791 1 21.1145V24.9652M11.2222 11.822L19.6001 18.7491C20.1854 19.2331 20.4461 20.0068 20.2731 20.7462L19.4444 24.287M1 24.9652L12.1382 22.786C12.4134 22.7322 12.6968 22.7368 12.97 22.7996L19.4444 24.287M19.4444 24.287L18.5685 28.0299C18.421 28.6603 18.5877 29.3232 19.016 29.8087L21.1487 32.2264M26.1111 37.8522L21.1487 32.2264M21.1487 32.2264L29.4444 24.513" stroke="white" stroke-width="2" stroke-linecap="round"/>
</svg>