<svg xmlns="http://www.w3.org/2000/svg" width="70" height="72" viewBox="0 0 70 72" fill="none">
  <path d="M58.1482 37.2632V37.0211C58.1482 36.3308 58.1654 35.6431 58.1822 34.9733V34.9725V34.9715V34.9705V34.9695V34.9684V34.9674V34.9664V34.9654V34.9644V34.9634V34.9623V34.9613V34.9603V34.9593V34.9583V34.9573V34.9563V34.9553V34.9542V34.9532V34.9522V34.9512V34.9502V34.9492V34.9482V34.9472V34.9462V34.9452V34.9442V34.9432V34.9421V34.9411V34.9401V34.9391V34.9381V34.9371V34.9361V34.9351V34.9341V34.9331V34.9321V34.9311V34.9301V34.9291V34.9281V34.9271V34.9261V34.9251V34.9241V34.9231V34.9221V34.9211V34.9201V34.9192V34.9182V34.9172V34.9162V34.9152V34.9142V34.9132V34.9122V34.9112V34.9102V34.9092V34.9082V34.9072V34.9063V34.9053V34.9043V34.9033V34.9023V34.9013V34.9003V34.8993V34.8984V34.8974V34.8964V34.8954V34.8944V34.8934V34.8924V34.8915V34.8905V34.8895V34.8885V34.8875V34.8865V34.8856V34.8846V34.8836V34.8826V34.8816V34.8807V34.8797V34.8787V34.8777V34.8767V34.8758V34.8748V34.8738V34.8728V34.8718V34.8709V34.8699V34.8689V34.8679V34.867V34.866V34.865V34.864V34.8631V34.8621V34.8611V34.8601V34.8592V34.8582V34.8572V34.8563V34.8553V34.8543V34.8533V34.8524V34.8514V34.8504V34.8495V34.8485V34.8475V34.8465V34.8456V34.8446V34.8436V34.8427V34.8417V34.8407V34.8398V34.8388V34.8378V34.8369V34.8359V34.8349V34.834V34.833V34.832V34.8311V34.8301V34.8291V34.8282V34.8272V34.8262V34.8253V34.8243V34.8233V34.8224V34.8214V34.8204V34.8195V34.8185V34.8175V34.8166V34.8156V34.8147V34.8137V34.8127V34.8118V34.8108V34.8098V34.8089V34.8079V34.807V34.806V34.805V34.8041V34.8031V34.8022V34.8012V34.8002V34.7993V34.7983V34.7974V34.7964V34.7954V34.7945V34.7935V34.7926V34.7916V34.7906V34.7897V34.7887V34.7878V34.7868V34.7859V34.7849V34.7839V34.783V34.782V34.7811V34.7801V34.7791V34.7782V34.7772V34.7763V34.7753V34.7744V34.7734V34.7724V34.7715V34.7705V34.7696V34.7686V34.7677V34.7667V34.7657V34.7648V34.7638V34.7629V34.7619V34.761V34.76V34.7591V34.7581V34.7571V34.7562V34.7552V34.7543V34.7533V34.7524V34.7514V34.7505V34.7495V34.7485V34.7476V34.7466V34.7457V34.7447V34.7438V34.7428V34.7418V34.7409V34.7399V34.739V34.738V34.7371V34.7361V34.7352V34.7342V34.7332V34.7323V34.7313V34.7304V34.7294V34.7285V34.7275V34.7266V34.7256V34.7246V34.7237V34.7227V34.7218V34.7208V34.7199V34.7189V34.718V34.717V34.716V34.7151V34.7141V34.7132V34.7122V34.7113V34.7103V34.7094V34.7084V34.7074V34.7065V34.7055V34.7046V34.7036V34.7027V34.7017V34.7007V34.6998V34.6988V34.6979V34.6969V34.696V34.695V34.694V34.6931V34.6921V34.6912V34.6902V34.6892V34.6883V34.6873V34.6864V34.6854V34.6845V34.6835V34.6825V34.6816V34.6806V34.6797V34.6787V34.6777V34.6768V34.6758V34.6749V34.6739V34.6729V34.672V34.671V34.6701V34.6691V34.6681V34.6672V34.6662V34.6652V34.6643V34.6633V34.6624V34.6614V34.6604V34.6595V34.6585V34.6575V34.6566V34.6556V34.6547V34.6537V34.6527V34.6518V34.6508V34.6498V34.6489V34.6479V34.6469V34.646V34.645V34.644V34.6431V34.6421V34.6411V34.6402V34.6392V34.6382V34.6373V34.6363V34.6353V34.6344V34.6334V34.6324V34.6315V34.6305V34.6295V34.6285V34.6276V34.6266V34.6256V34.6247V34.6237V34.6227V34.6217V34.6208V34.6198V34.6188V34.6179V34.6169V34.6159V34.6149V34.614V34.613V34.612V34.611V34.6101V34.6091V34.6081V34.6071V34.6062V34.6052V34.6042V34.6032V34.6023V34.6013V34.6003V34.5993V34.5983V34.5974V34.5964V34.5954V34.5944V34.5934V34.5925V34.5915V34.5905V34.5895V34.5885V34.5875V34.5866V34.5856V34.5846V34.5836V34.5826V34.5816V34.5807V34.5797V34.5787V34.5777V34.5767V34.5757V34.5747V34.5738V34.5728V34.5718V34.5708V34.5698V34.5688V34.5678V34.5668V34.5658V34.5648V34.5639V34.5629V34.5619V34.5609V34.5599V34.5589V34.5579V34.5569V34.5559V34.5549V34.5539V34.5529V34.5519V34.5509V34.5499V34.5489V34.5479V34.5469V34.5459V34.5449V34.5439V34.5429V34.5419V34.5409V34.5399V34.5389V34.5379V34.5369V34.5359V34.5349V34.5339V34.5329V34.5319V34.5309V34.5299V34.5289V34.5279V34.5269V34.5259V34.5248V34.5238V34.5228V34.5218V34.5208V34.5198V34.5188V34.5178V34.5168V34.5157V34.5147V34.5137V34.5127V34.5117V34.5107V34.5096V34.5086V34.5076V34.5066V34.5056V34.5046V34.5035V34.5025V34.5015V34.5005V34.4995V34.4984V34.4974V34.4964V34.4954V34.4943V34.4933V34.4923V34.4913V34.4902V34.4892V34.4882V34.4871V34.3605L58.2076 34.2364C59.1479 29.6447 56.9771 26.2912 54.6181 22.9089L54.6144 22.9036C54.0877 22.14 53.5832 21.4459 53.0701 20.74C52.6524 20.1654 52.2291 19.5829 51.7833 18.9486M58.1482 37.2632L52.806 18.2299M58.1482 37.2632C58.1024 37.7566 57.9664 38.5386 57.7503 39.3158C57.6796 38.5761 57.6636 37.8201 57.69 37.3158C57.8119 35.1795 57.7815 33.0043 57.3441 30.8513L57.3439 30.8506C56.7139 27.7586 55.3017 25.5051 53.8796 23.4821L53.8784 23.4804C53.6591 23.1695 53.441 22.8631 53.2248 22.5592C52.1601 21.0632 51.1403 19.6302 50.241 18.0409L50.2403 18.0396C48.2187 14.476 47.6749 10.1428 48.0372 5.3878M58.1482 37.2632L48.0372 5.3878M51.7833 18.9486L52.806 18.2299M51.7833 18.9486C51.7834 18.9487 51.7835 18.9489 51.7835 18.949L52.806 18.2299M51.7833 18.9486C50.3279 16.879 49.1102 14.4689 48.6316 11.3976L48.6306 11.3912C48.3409 9.46587 48.3445 7.56462 48.4487 5.69153L48.4488 5.69057C48.4706 5.30405 48.3819 5.00354 48.2792 4.82452C48.2669 4.80309 48.2552 4.78454 48.2443 4.7685M52.806 18.2299C51.4298 16.273 50.3084 14.0401 49.8667 11.2052C49.5948 9.39881 49.5948 7.59245 49.6968 5.761C49.7647 4.55676 49.1701 3.57831 48.4055 3.45287C47.641 3.32743 46.8934 4.13025 46.7914 5.28432M48.2443 4.7685C48.2568 4.75136 48.269 4.73625 48.2807 4.72319C48.3059 4.69507 48.3225 4.68143 48.3302 4.67594M48.2443 4.7685C48.2007 4.70448 48.1692 4.68059 48.1594 4.67441M48.2443 4.7685C48.1604 4.88337 48.0646 5.08974 48.0372 5.3878M48.3302 4.67594C48.3336 4.67424 48.3353 4.67305 48.3353 4.67287C48.3353 4.6727 48.3336 4.67355 48.3302 4.67594ZM48.3302 4.67594C48.3165 4.68285 48.2744 4.69807 48.2031 4.68638C48.1792 4.68246 48.1652 4.67713 48.1594 4.67441M48.1594 4.67441C48.1573 4.6731 48.1562 4.67259 48.1562 4.67266C48.1562 4.67273 48.1572 4.67339 48.1594 4.67441ZM48.0372 5.3878C48.0374 5.38505 48.0376 5.3823 48.0378 5.37954L46.7914 5.28432M46.7914 5.28432C46.4177 10.1765 46.9613 14.7928 49.1531 18.6564L46.7914 5.28432ZM66.7249 34.1781L66.7116 34.786L66.6947 35.5627L66.6944 35.5764V35.59C66.6944 36.0429 66.7733 36.3633 66.827 36.5815L66.8295 36.5918C66.8739 36.7719 66.8916 36.8509 66.8922 36.988C66.8857 37.3632 66.772 37.5087 66.7251 37.5558C66.6815 37.5994 66.6204 37.6335 66.5408 37.6467C66.5296 37.6328 66.5157 37.6138 66.4993 37.5884C66.3921 37.4223 66.273 37.096 66.2541 36.6201L66.2539 36.617C66.2439 36.3811 66.2342 36.1448 66.2244 35.9081C66.1515 34.1468 66.0778 32.3642 65.9097 30.5815L65.9095 30.5796C65.6385 27.7518 64.8265 25.2061 63.7613 22.8992L63.76 22.8965C62.7626 20.7496 61.8605 18.669 61.3312 16.3239C60.6126 13.1409 60.3938 9.80908 60.3934 6.37272C60.4 5.98772 60.5033 5.70981 60.6033 5.55545C60.7075 5.72068 60.8164 6.0201 60.8338 6.43999L60.8337 6.43999L60.8343 6.45083C60.8607 6.97815 60.8839 7.51074 60.9073 8.04676C60.9721 9.53461 61.0381 11.0489 61.1779 12.5504L61.1783 12.5549C61.4491 15.354 62.243 17.8752 63.3115 20.1632L66.7249 34.1781ZM66.7249 34.1781C66.6877 33.819 66.6515 33.4622 66.6154 33.1071C66.4527 31.5043 66.2936 29.9378 66.0622 28.3729L66.0615 28.3681C65.6306 25.3751 64.544 22.8059 63.3118 20.1638L66.7249 34.1781ZM58.1396 41.1811C58.1399 41.182 58.1376 41.1789 58.133 41.171C58.1372 41.1768 58.1393 41.1804 58.1396 41.1811ZM60.7059 5.43781C60.706 5.43818 60.7033 5.44017 60.6976 5.44269C60.703 5.43871 60.7058 5.43744 60.7059 5.43781ZM60.5107 5.44042C60.505 5.4377 60.5023 5.43557 60.5023 5.43519C60.5024 5.43481 60.5053 5.43617 60.5107 5.44042ZM66.5742 37.6808C66.5742 37.6811 66.5716 37.6796 66.5668 37.6752C66.5718 37.6782 66.5742 37.6804 66.5742 37.6808ZM66.4273 67.9722C66.3352 68.1082 66.2687 68.1494 66.2445 68.1601H3.41608C3.39183 68.1494 3.32538 68.1082 3.2333 67.9722C3.08208 67.7489 2.94922 67.3727 2.94922 66.9013V51.8483C2.94922 51.3769 3.08208 51.0006 3.2333 50.7773C3.32537 50.6414 3.39182 50.6002 3.41607 50.5894H66.2445C66.2687 50.6002 66.3352 50.6414 66.4273 50.7773C66.5785 51.0006 66.7113 51.3769 66.7113 51.8483V66.9013C66.7113 67.3727 66.5785 67.7489 66.4273 67.9722ZM3.42617 68.1634C3.42612 68.1637 3.42399 68.1633 3.41995 68.1617C3.4242 68.1625 3.42622 68.1632 3.42617 68.1634ZM3.42617 50.5861C3.42622 50.5863 3.42419 50.5871 3.41994 50.5878C3.42399 50.5863 3.42612 50.5859 3.42617 50.5861ZM66.2344 50.5861C66.2345 50.5859 66.2366 50.5863 66.2406 50.5878C66.2363 50.5871 66.2343 50.5863 66.2344 50.5861ZM66.2406 68.1617C66.2368 68.1632 66.2346 68.1636 66.2344 68.1635C66.2342 68.1633 66.2362 68.1625 66.2406 68.1617Z" stroke="white" stroke-width="2.5" stroke-miterlimit="10"/>
  <path d="M19.709 49.3394V69.4101" stroke="white" stroke-width="2.5" stroke-miterlimit="10"/>
  <path d="M57.2734 51.8734V69.4101" stroke="white" stroke-width="2.5" stroke-miterlimit="10"/>
</svg>