<svg width="52" height="38" viewBox="0 0 52 38" fill="none" xmlns="http://www.w3.org/2000/svg">
<g id="Large Icons/Articles">
<path id="Vector 28" d="M26.3175 5.8412V35M26.3175 5.8412C33.1666 2.54229 37.2611 1.11772 45.1083 1.86135C45.6155 1.90942 46 2.33876 46 2.84825V29.7675C46 30.4375 45.3502 30.9163 44.7028 30.7438C36.6499 28.5983 32.6586 30.3233 26.3175 35M26.3175 5.8412C19.2631 1.18988 14.9138 0.0173614 6.7756 1.77929C6.32093 1.87772 6 2.28267 6 2.74787V29.835C6 30.4844 6.61241 30.9601 7.24627 30.8187C15.1077 29.0654 19.4411 30.0837 26.3175 35" stroke="black" stroke-opacity="0.87" stroke-width="2"/>
<path id="Vector 29" d="M5 5H2C1.44772 5 1 5.44772 1 6V35.4337C1 36.1643 1.76012 36.6488 2.43226 36.3624C10.6152 32.875 17.5154 32.6317 25 34" stroke="black" stroke-opacity="0.87" stroke-width="2"/>
<path id="Vector 30" d="M47 5H50C50.5523 5 51 5.44772 51 6V35.4337C51 36.1643 50.2398 36.6486 49.5682 36.3608C41.4359 32.8749 34.9834 32.6319 27.5 34" stroke="black" stroke-opacity="0.87" stroke-width="2"/>
</g>
</svg>
