<svg width="52" height="52" viewBox="0 0 52 52" fill="none" xmlns="http://www.w3.org/2000/svg">
<ellipse cx="20" cy="22.3988" rx="2" ry="2.05701" fill="#131313"/>
<path d="M32 33.7132C32 37.1638 29.2874 39.9128 26 39.9128C22.7126 39.9128 20 37.1638 20 33.7132C20 30.2626 22.7126 27.5137 26 27.5137C29.2874 27.5137 32 30.2626 32 33.7132Z" stroke="#131313" stroke-width="2"/>
<ellipse cx="26" cy="31.1408" rx="4" ry="3.59977" fill="#131313"/>
<ellipse cx="32" cy="22.3988" rx="2" ry="2.05701" fill="#131313"/>
<path fill-rule="evenodd" clip-rule="evenodd" d="M16.5856 11.5277C19.2699 9.86775 22.3632 9.0293 26 9.0293C29.6368 9.0293 32.7301 9.86775 35.4144 11.5277C38.0908 13.1827 40.301 15.6173 42.2332 18.7183C43.8556 21.3221 45.1314 23.8751 45.6909 26.5464C46.2563 29.2464 46.0795 32.0158 44.8817 35.0222C44.0412 37.1321 42.3577 38.7147 40.4367 39.9015C38.5101 41.0918 36.2618 41.9359 34.1517 42.5347C32.0354 43.1351 30.0192 43.4995 28.5352 43.714C27.7919 43.8214 27.1791 43.8917 26.7503 43.9352C26.5358 43.957 26.3671 43.9721 26.2509 43.9818C26.1928 43.9867 26.1478 43.9902 26.1167 43.9926L26.0807 43.9953L26.0707 43.996L26.0677 43.9962C26.0674 43.9962 26.0661 43.9963 26 42.97C25.9339 43.9963 25.9336 43.9963 25.9332 43.9962L25.9293 43.996L25.9193 43.9953L25.8833 43.9926C25.8522 43.9902 25.8072 43.9867 25.7491 43.9818C25.6329 43.9721 25.4642 43.957 25.2497 43.9352C24.8209 43.8917 24.2081 43.8214 23.4648 43.714C21.9808 43.4995 19.9646 43.1351 17.8483 42.5347C15.7382 41.9359 13.4899 41.0918 11.5633 39.9015C9.64235 38.7147 7.95883 37.1321 7.11825 35.0222C5.92047 32.0158 5.74366 29.2464 6.30914 26.5464C6.8686 23.8751 8.1444 21.3221 9.76684 18.7183C11.699 15.6173 13.9092 13.1827 16.5856 11.5277ZM26 42.97L25.9332 43.9962L26 44.0008L26.0661 43.9963L26 42.97ZM26 41.9388C26.0235 41.937 26.053 41.9346 26.0884 41.9316C26.194 41.9228 26.3513 41.9087 26.5539 41.8881C26.9591 41.847 27.5443 41.78 28.2569 41.677C29.6845 41.4707 31.6111 41.1217 33.6198 40.5517C35.6346 39.9801 37.6934 39.1967 39.4068 38.1382C41.1257 37.0762 42.4151 35.7885 43.0311 34.2423C44.0774 31.6159 44.2153 29.2692 43.7357 26.9796C43.2501 24.6612 42.1213 22.3511 40.5493 19.8282C38.7323 16.9121 36.7261 14.739 34.3838 13.2906C32.0495 11.847 29.3217 11.0863 26 11.0863C22.6783 11.0863 19.9505 11.847 17.6162 13.2906C15.2739 14.739 13.2677 16.9121 11.4507 19.8282C9.87873 22.3511 8.74985 24.6612 8.26429 26.9796C7.78475 29.2692 7.92256 31.6159 8.96891 34.2423C9.58494 35.7885 10.8743 37.0762 12.5932 38.1382C14.3066 39.1967 16.3654 39.9801 18.3802 40.5517C20.3889 41.1217 22.3155 41.4707 23.7431 41.677C24.4557 41.78 25.0409 41.847 25.4461 41.8881C25.6487 41.9087 25.806 41.9228 25.9116 41.9316C25.947 41.9346 25.9765 41.937 26 41.9388Z" fill="#131313"/>
<path d="M11.0002 18.8001C11.0002 18.8001 8.69008 12.1552 11.6269 9.82354C14.477 7.56076 20.1268 10.8521 20.1268 10.8521" stroke="#131313" stroke-width="2"/>
<path d="M32.1621 10.9576C32.1621 10.9576 37.1984 7.5074 40.1482 9.82151C43.011 12.0673 41.3822 18.532 41.3822 18.532" stroke="#131313" stroke-width="2"/>
</svg>
