<svg width="40" height="36" viewBox="0 0 40 36" fill="none" xmlns="http://www.w3.org/2000/svg">
<g id="Group 1084">
<ellipse id="Ellipse 44" cx="14" cy="14.3988" rx="2" ry="2.05701" fill="#F7F8FB"/>
<path id="Ellipse 48" d="M26 25.7132C26 29.1638 23.2874 31.9128 20 31.9128C16.7126 31.9128 14 29.1638 14 25.7132C14 22.2626 16.7126 19.5137 20 19.5137C23.2874 19.5137 26 22.2626 26 25.7132Z" stroke="#F7F8FB" stroke-width="2"/>
<ellipse id="Ellipse 49" cx="20" cy="23.1408" rx="4" ry="3.59977" fill="#F7F8FB"/>
<ellipse id="Ellipse 45" cx="26" cy="14.3988" rx="2" ry="2.05701" fill="#F7F8FB"/>
<path id="Vector 2 (Stroke)" fill-rule="evenodd" clip-rule="evenodd" d="M10.5856 3.52767C13.2699 1.86775 16.3632 1.0293 20 1.0293C23.6368 1.0293 26.7301 1.86775 29.4144 3.52767C32.0908 5.18269 34.301 7.61732 36.2332 10.7183C37.8556 13.3221 39.1314 15.8751 39.6909 18.5464C40.2563 21.2464 40.0795 24.0158 38.8817 27.0222C38.0412 29.1321 36.3577 30.7147 34.4367 31.9015C32.5101 33.0918 30.2618 33.9359 28.1517 34.5347C26.0354 35.1351 24.0192 35.4995 22.5352 35.714C21.7919 35.8214 21.1791 35.8917 20.7503 35.9352C20.5358 35.957 20.3671 35.9721 20.2509 35.9818C20.1928 35.9867 20.1478 35.9902 20.1167 35.9926L20.0807 35.9953L20.0707 35.996L20.0677 35.9962C20.0674 35.9962 20.0661 35.9963 20 34.97C19.9339 35.9963 19.9336 35.9963 19.9332 35.9962L19.9293 35.996L19.9193 35.9953L19.8833 35.9926C19.8522 35.9902 19.8072 35.9867 19.7491 35.9818C19.6329 35.9721 19.4642 35.957 19.2497 35.9352C18.8209 35.8917 18.2081 35.8214 17.4648 35.714C15.9808 35.4995 13.9646 35.1351 11.8483 34.5347C9.73816 33.9359 7.48993 33.0918 5.56335 31.9015C3.64235 30.7147 1.95883 29.1321 1.11825 27.0222C-0.0795326 24.0158 -0.256345 21.2464 0.309138 18.5464C0.868603 15.8751 2.1444 13.3221 3.76684 10.7183C5.69903 7.61732 7.90923 5.18269 10.5856 3.52767ZM20 34.97L19.9332 35.9962L20 36.0008L20.0661 35.9963L20 34.97ZM20 33.9388C20.0235 33.937 20.053 33.9346 20.0884 33.9316C20.194 33.9228 20.3513 33.9087 20.5539 33.8881C20.9591 33.847 21.5443 33.78 22.2569 33.677C23.6845 33.4707 25.6111 33.1217 27.6198 32.5517C29.6346 31.9801 31.6934 31.1967 33.4068 30.1382C35.1257 29.0762 36.4151 27.7885 37.0311 26.2423C38.0774 23.6159 38.2153 21.2692 37.7357 18.9796C37.2501 16.6612 36.1213 14.3511 34.5493 11.8282C32.7323 8.91208 30.7261 6.73901 28.3838 5.29058C26.0495 3.84705 23.3217 3.08631 20 3.08631C16.6783 3.08631 13.9505 3.84705 11.6162 5.29058C9.27386 6.73901 7.26773 8.91208 5.45073 11.8282C3.87873 14.3511 2.74985 16.6612 2.26429 18.9796C1.78475 21.2692 1.92256 23.6159 2.96891 26.2423C3.58494 27.7885 4.87428 29.0762 6.59322 30.1382C8.30658 31.1967 10.3654 31.9801 12.3802 32.5517C14.3889 33.1217 16.3155 33.4707 17.7431 33.677C18.4557 33.78 19.0409 33.847 19.4461 33.8881C19.6487 33.9087 19.806 33.9228 19.9116 33.9316C19.947 33.9346 19.9765 33.937 20 33.9388Z" fill="#F7F8FB"/>
<path id="Vector 24" d="M5.00024 10.8001C5.00024 10.8001 2.69008 4.15516 5.62687 1.82354C8.47696 -0.439245 14.1268 2.85205 14.1268 2.85205" stroke="#F7F8FB" stroke-width="2"/>
<path id="Vector 25" d="M26.1616 2.95756C26.1616 2.95756 31.1979 -0.492602 34.1477 1.82151C37.0105 4.06731 35.3817 10.532 35.3817 10.532" stroke="#F7F8FB" stroke-width="2"/>
</g>
</svg>
