<svg width="148" height="120" viewBox="0 0 148 120" fill="none" xmlns="http://www.w3.org/2000/svg">
<path id="Vector" d="M144.392 3.2981C144.35 3.1215 144.239 2.97928 144.062 2.93645C140.657 2.11021 104.308 -5.57849 75.3096 34.7149C75.0916 35.0178 74.6246 35.0233 74.4339 34.7025C71.5391 29.8344 52.263 0.786076 4.05841 0.00564113C3.83417 0.00201074 3.63714 0.119018 3.57768 0.335257C1.94791 6.26215 -19.2301 88.9169 64.0787 99.7264C64.3286 99.7588 64.5313 99.9732 64.5313 100.225V119.5C64.5313 119.776 64.7551 120 65.0313 120H82.9616C83.2377 120 83.4616 119.776 83.4616 119.5V100.272C83.4616 100.012 83.6133 99.799 83.872 99.7714C90.1119 99.1062 165.109 89.2861 144.392 3.2981ZM64.2406 80.8545C64.2193 81.1369 63.9805 81.3592 63.7005 81.3167C58.4894 80.5268 14.275 72.269 18.6788 20.0046C18.7035 19.7118 18.9765 19.4608 19.2691 19.4884C24.659 19.9955 68.3854 25.803 64.2406 80.8545ZM83.5296 81.2772C83.2674 81.3371 82.9988 81.1998 82.9399 80.9374C81.8415 76.0407 73.6876 32.4846 127.804 19.5111C128.117 19.436 128.489 19.6556 128.539 19.9737C129.432 25.6774 134.61 69.5995 83.5296 81.2772Z" fill="white"/>
</svg>
