<svg width="430" height="932" viewBox="0 0 430 932" fill="none" xmlns="http://www.w3.org/2000/svg">
<g clip-path="url(#clip0_5321_14523)">
<rect width="430" height="932" fill="#007E4C"/>
<text fill="white" xml:space="preserve" style="white-space: pre" font-family="Red Hat Display" font-size="32" font-weight="bold" letter-spacing="0em"><tspan x="124" y="793.4">GreenCircle</tspan></text>
<path d="M285.392 409.298C285.35 409.121 285.239 408.979 285.062 408.936C281.657 408.11 245.308 400.422 216.31 440.715C216.092 441.018 215.625 441.023 215.434 440.703C212.539 435.834 193.263 406.786 145.058 406.006C144.834 406.002 144.637 406.119 144.578 406.335C142.948 412.262 121.77 494.917 205.079 505.726C205.329 505.759 205.531 505.973 205.531 506.225V525.5C205.531 525.776 205.755 526 206.031 526H223.962C224.238 526 224.462 525.776 224.462 525.5V506.272C224.462 506.012 224.613 505.799 224.872 505.771C231.112 505.106 306.109 495.286 285.392 409.298ZM205.241 486.855C205.219 487.137 204.98 487.359 204.701 487.317C199.489 486.527 155.275 478.269 159.679 426.005C159.703 425.712 159.977 425.461 160.269 425.488C165.659 425.995 209.385 431.803 205.241 486.855ZM224.53 487.277C224.267 487.337 223.999 487.2 223.94 486.937C222.841 482.041 214.688 438.485 268.804 425.511C269.117 425.436 269.489 425.656 269.539 425.974C270.432 431.677 275.61 475.599 224.53 487.277Z" fill="white"/>
<path d="M115.374 2.49846C115.415 2.35913 115.396 2.21698 115.291 2.11651C113.209 0.123564 89.8131 -21.0144 51.3714 -3.58766C51.0989 -3.46414 50.7723 -3.64443 50.7694 -3.9436C50.7249 -8.62665 49.0231 -38.2621 13.9213 -59.2879C13.7673 -59.3801 13.5818 -59.3759 13.454 -59.2497C9.82426 -55.6632 -40.9506 -3.75685 15.5823 39.4811C15.7424 39.6035 15.797 39.8331 15.6962 40.0076L7.4869 54.2266C7.37644 54.4179 7.44199 54.6625 7.63331 54.773L20.8119 62.3816C21.0032 62.4921 21.2478 62.4265 21.3583 62.2352L29.5481 48.05C29.6522 47.8698 29.8428 47.7831 30.033 47.8675C34.7643 49.9671 94.0134 74.6195 115.374 2.49846ZM23.6843 25.6759C23.5566 25.8631 23.3066 25.9253 23.1294 25.7839C19.7497 23.0879 -9.3352 -1.72999 16.1719 -38.4051C16.3061 -38.5981 16.5896 -38.6669 16.7814 -38.531C20.4005 -35.9676 50.1908 -13.1726 23.6843 25.6759ZM37.6326 34.1193C37.4266 34.0559 37.2937 33.8579 37.3579 33.6522C38.5872 29.712 51.072 -5.97352 96.3569 7.42971C96.6041 7.50287 96.7722 7.80798 96.6795 8.0485C94.9543 12.525 80.1126 47.1801 37.6326 34.1193Z" fill="white" fill-opacity="0.08"/>
<path d="M56.1957 201.941C56.0957 201.836 55.963 201.781 55.8235 201.822C53.0565 202.629 23.0527 212.321 18.9238 254.326C18.8946 254.624 18.5751 254.816 18.3146 254.669C14.2367 252.366 -12.2793 239.022 -48.039 258.908C-48.1959 258.996 -48.285 259.159 -48.2396 259.332C-46.9485 264.269 -27.3837 334.194 38.3279 306.854C38.5139 306.777 38.7401 306.845 38.8408 307.019L47.0502 321.238C47.1606 321.429 47.4053 321.495 47.5966 321.384L60.7752 313.776C60.9665 313.665 61.032 313.421 60.9216 313.229L52.7317 299.044C52.6277 298.864 52.6479 298.656 52.8161 298.533C57.0001 295.485 107.974 256.5 56.1957 201.941ZM30.4233 292.935C30.5216 293.14 30.4504 293.387 30.2394 293.47C26.2146 295.049 -9.82069 307.828 -28.8287 267.401C-28.9288 267.188 -28.8466 266.908 -28.633 266.81C-24.6035 264.957 10.0328 250.556 30.4233 292.935ZM44.7096 285.078C44.5518 285.224 44.3138 285.24 44.1677 285.082C41.37 282.047 16.7079 253.392 50.9579 220.876C51.1448 220.698 51.4931 220.705 51.6551 220.906C54.6692 224.638 77.2606 254.819 44.7096 285.078Z" fill="white" fill-opacity="0.08"/>
<path d="M420.196 484.942C420.096 484.836 419.963 484.782 419.824 484.823C417.056 485.629 387.053 495.322 382.924 537.326C382.895 537.624 382.575 537.817 382.315 537.67C378.237 535.367 351.721 522.023 315.961 541.909C315.804 541.996 315.715 542.159 315.76 542.333C317.052 547.269 336.616 617.195 402.328 589.855C402.514 589.778 402.74 589.845 402.841 590.02L411.05 604.239C411.161 604.43 411.405 604.495 411.597 604.385L424.775 596.776C424.966 596.666 425.032 596.421 424.922 596.23L416.732 582.045C416.628 581.864 416.648 581.656 416.816 581.533C421 578.486 471.974 539.501 420.196 484.942ZM394.423 575.936C394.522 576.14 394.45 576.388 394.239 576.47C390.215 578.049 354.179 590.829 335.171 550.401C335.071 550.189 335.153 549.909 335.367 549.81C339.396 547.958 374.033 533.556 394.423 575.936ZM408.71 568.078C408.552 568.225 408.314 568.241 408.168 568.082C405.37 565.048 380.708 536.393 414.958 503.876C415.145 503.699 415.493 503.706 415.655 503.906C418.669 507.639 441.261 537.82 408.71 568.078Z" fill="white" fill-opacity="0.08"/>
<path d="M428.196 845.941C428.096 845.836 427.963 845.781 427.824 845.822C425.056 846.629 395.053 856.321 390.924 898.326C390.895 898.624 390.575 898.816 390.315 898.669C386.237 896.366 359.721 883.022 323.961 902.908C323.804 902.996 323.715 903.159 323.76 903.332C325.052 908.269 344.616 978.194 410.328 950.854C410.514 950.777 410.74 950.845 410.841 951.019L419.05 965.238C419.161 965.429 419.405 965.495 419.597 965.384L432.775 957.776C432.966 957.665 433.032 957.421 432.922 957.229L424.732 943.044C424.628 942.864 424.648 942.656 424.816 942.533C429 939.485 479.974 900.5 428.196 845.941ZM402.423 936.935C402.522 937.14 402.45 937.387 402.239 937.47C398.215 939.049 362.179 951.828 343.171 911.401C343.071 911.188 343.153 910.908 343.367 910.81C347.396 908.957 382.033 894.556 402.423 936.935ZM416.71 929.077C416.552 929.224 416.314 929.24 416.168 929.082C413.37 926.047 388.708 897.392 422.958 864.876C423.145 864.698 423.493 864.705 423.655 864.906C426.669 868.638 449.261 898.819 416.71 929.077Z" fill="white" fill-opacity="0.08"/>
<path d="M38.1957 492.942C38.0957 492.836 37.963 492.782 37.8235 492.823C35.0565 493.629 5.05267 503.322 0.923821 545.326C0.894553 545.624 0.575095 545.817 0.314583 545.67C-3.76333 543.367 -30.2793 530.023 -66.039 549.909C-66.1959 549.996 -66.285 550.159 -66.2396 550.333C-64.9485 555.269 -45.3837 625.195 20.3279 597.855C20.5139 597.778 20.7401 597.845 20.8408 598.02L29.0502 612.239C29.1606 612.43 29.4052 612.495 29.5966 612.385L42.7752 604.776C42.9665 604.666 43.032 604.421 42.9216 604.23L34.7317 590.045C34.6277 589.864 34.6479 589.656 34.8161 589.533C39.0001 586.486 89.9742 547.501 38.1957 492.942ZM12.4233 583.936C12.5216 584.14 12.4504 584.388 12.2394 584.47C8.21464 586.049 -27.8207 598.829 -46.8287 558.401C-46.9288 558.189 -46.8466 557.909 -46.633 557.81C-42.6035 555.958 -7.96723 541.556 12.4233 583.936ZM26.7096 576.078C26.5517 576.225 26.3138 576.241 26.1677 576.082C23.37 573.048 -1.29208 544.393 32.9579 511.876C33.1448 511.699 33.4931 511.706 33.6551 511.906C36.6692 515.639 59.2606 545.82 26.7096 576.078Z" fill="white" fill-opacity="0.08"/>
<path d="M447.196 188.941C447.096 188.836 446.963 188.781 446.824 188.822C444.056 189.629 414.053 199.321 409.924 241.326C409.895 241.624 409.575 241.816 409.315 241.669C405.237 239.366 378.721 226.022 342.961 245.908C342.804 245.996 342.715 246.159 342.76 246.332C344.052 251.269 363.616 321.194 429.328 293.854C429.514 293.777 429.74 293.845 429.841 294.019L438.05 308.238C438.161 308.429 438.405 308.495 438.597 308.384L451.775 300.776C451.966 300.665 452.032 300.421 451.922 300.229L443.732 286.044C443.628 285.864 443.648 285.656 443.816 285.533C448 282.485 498.974 243.5 447.196 188.941ZM421.423 279.935C421.522 280.14 421.45 280.387 421.239 280.47C417.215 282.049 381.179 294.828 362.171 254.401C362.071 254.188 362.153 253.908 362.367 253.81C366.396 251.957 401.033 237.556 421.423 279.935ZM435.71 272.077C435.552 272.224 435.314 272.24 435.168 272.082C432.37 269.047 407.708 240.392 441.958 207.876C442.145 207.698 442.493 207.705 442.655 207.906C445.669 211.638 468.261 241.819 435.71 272.077Z" fill="white" fill-opacity="0.08"/>
<path d="M419.196 -47.0588C419.096 -47.1642 418.963 -47.2187 418.824 -47.178C416.056 -46.3712 386.053 -36.679 381.924 5.32585C381.895 5.6236 381.575 5.81632 381.315 5.6692C377.237 3.36627 350.721 -9.97768 314.961 9.90847C314.804 9.99574 314.715 10.1585 314.76 10.3322C316.052 15.269 335.616 85.1945 401.328 57.8544C401.514 57.777 401.74 57.8445 401.841 58.0191L410.05 72.2381C410.161 72.4294 410.405 72.4949 410.597 72.3845L423.775 64.7758C423.966 64.6654 424.032 64.4207 423.922 64.2294L415.732 50.0442C415.628 49.864 415.648 49.6555 415.816 49.533C420 46.4854 470.974 7.50039 419.196 -47.0588ZM393.423 43.9353C393.522 44.1396 393.45 44.3872 393.239 44.4699C389.215 46.0488 353.179 58.8281 334.171 18.4008C334.071 18.1881 334.153 17.9082 334.367 17.81C338.396 15.9575 373.033 1.55582 393.423 43.9353ZM407.71 36.0775C407.552 36.2242 407.314 36.2403 407.168 36.0818C404.37 33.0471 379.708 4.39219 413.958 -28.1241C414.145 -28.3015 414.493 -28.2946 414.655 -28.094C417.669 -24.3617 440.261 5.81914 407.71 36.0775Z" fill="white" fill-opacity="0.08"/>
<path d="M103.491 901.358C103.567 901.234 103.585 901.092 103.51 900.967C102.014 898.503 84.8867 872.031 43.2446 878.914C42.9494 878.963 42.6805 878.704 42.7552 878.414C43.9242 873.879 49.9507 844.813 21.4868 815.419C21.3619 815.29 21.1816 815.246 21.0256 815.335C16.5912 817.86 -45.8879 854.856 -2.47203 911.252C-2.34911 911.412 -2.35579 911.648 -2.49828 911.79L-14.108 923.4C-14.2643 923.556 -14.2643 923.81 -14.108 923.966L-3.34777 934.726C-3.19156 934.882 -2.9383 934.882 -2.78209 934.726L8.80009 923.144C8.94724 922.997 9.15381 922.962 9.3157 923.093C13.3423 926.346 64.192 965.493 103.491 901.358ZM8.92692 900.015C8.75508 900.162 8.49751 900.158 8.36295 899.975C5.79617 896.496 -15.8743 864.996 18.2558 836.173C18.4354 836.021 18.7271 836.028 18.8772 836.209C21.7095 839.622 44.585 869.35 8.92692 900.015ZM20.2146 911.78C20.032 911.666 19.9549 911.44 20.0702 911.258C22.2773 907.77 43.5729 876.532 83.8457 901.199C84.0655 901.334 84.149 901.672 83.9972 901.88C81.1721 905.758 57.8667 935.391 20.2146 911.78Z" fill="white" fill-opacity="0.08"/>
</g>
<defs>
<clipPath id="clip0_5321_14523">
<rect width="430" height="932" fill="white"/>
</clipPath>
</defs>
</svg>
