<svg width="382" height="514" viewBox="0 0 382 514" fill="none" xmlns="http://www.w3.org/2000/svg">
<circle cx="192.5" cy="249.5" r="138.5" fill="#005435"/>
<circle cx="233.907" cy="185.203" r="11.7004" transform="rotate(107.924 233.907 185.203)" fill="#F49B16"/>
<path d="M249.844 190.529L254.5 192.035" stroke="#F49B16" stroke-width="2" stroke-linecap="round"/>
<path d="M241.581 200.223L243.809 204.58" stroke="#F49B16" stroke-width="2" stroke-linecap="round"/>
<path d="M228.889 201.238L227.383 205.895" stroke="#F49B16" stroke-width="2" stroke-linecap="round"/>
<path d="M219.193 192.98L214.836 195.207" stroke="#F49B16" stroke-width="2" stroke-linecap="round"/>
<path d="M213.524 178.783L218.18 180.289" stroke="#F49B16" stroke-width="2" stroke-linecap="round"/>
<path d="M224.21 166.236L226.438 170.594" stroke="#F49B16" stroke-width="2" stroke-linecap="round"/>
<path d="M240.639 164.922L239.133 169.578" stroke="#F49B16" stroke-width="2" stroke-linecap="round"/>
<path d="M253.182 175.607L248.824 177.834" stroke="#F49B16" stroke-width="2" stroke-linecap="round"/>
<path d="M207.28 277.092C200.987 286.01 193.242 292.857 185.808 296.719C178.372 300.582 171.261 301.453 166.224 298.443C161.19 295.434 159.163 289.105 159.973 281.285C160.783 273.467 164.429 264.171 170.722 255.254C177.015 246.336 184.76 239.489 192.194 235.627C199.63 231.764 206.741 230.893 211.778 233.903C216.812 236.912 218.839 243.241 218.029 251.061C217.219 258.879 213.573 268.175 207.28 277.092Z" fill="url(#paint0_linear_5598_28668)" stroke="black" stroke-width="0.1"/>
<path d="M208.183 262.934C206.36 265.563 204.379 267.585 202.652 268.73C201.788 269.303 200.991 269.654 200.312 269.754C199.634 269.854 199.077 269.705 198.681 269.28C198.283 268.854 198.079 268.183 198.059 267.326C198.038 266.47 198.201 265.435 198.53 264.287C199.188 261.993 200.506 259.258 202.329 256.63C204.153 254.001 206.134 251.979 207.86 250.834C208.724 250.261 209.521 249.91 210.2 249.81C210.879 249.71 211.436 249.859 211.832 250.283C212.229 250.71 212.433 251.38 212.454 252.238C212.474 253.094 212.311 254.129 211.982 255.277C211.325 257.571 210.006 260.305 208.183 262.934Z" fill="#4F2424" stroke="black" stroke-width="0.1"/>
<ellipse cx="189.001" cy="300.298" rx="74.1024" ry="11.7004" fill="#6A3232"/>
<circle cx="22.5" cy="449.5" r="5.5" fill="#5940C1"/>
<circle cx="301" cy="85" r="7" fill="#D9D9D9" fill-opacity="0.3"/>
<ellipse cx="191" cy="251" rx="140" ry="140" stroke="white" stroke-opacity="0.6" stroke-width="16"/>
<path d="M191 111C220.577 111 249.394 120.367 273.318 137.758C297.241 155.148 315.043 179.669 324.169 207.802C333.295 235.936 333.277 266.237 324.116 294.359C314.956 322.482 297.125 346.98 273.18 364.342" stroke="#14AE5C" stroke-opacity="0.6" stroke-width="16" stroke-linecap="round"/>
<circle cx="114.5" cy="31.5" r="5.5" fill="#D9D9D9"/>
<circle cx="143" cy="13" r="13" fill="#D9D9D9" fill-opacity="0.3"/>
<circle cx="376.5" cy="254.5" r="5.5" fill="#5940C1"/>
<circle opacity="0.5" cx="332" cy="505" r="9" fill="#796CE8"/>
<path d="M152 336C152 331.582 155.582 328 160 328H374C378.418 328 382 331.582 382 336V463C382 467.418 378.418 471 374 471H160C155.582 471 152 467.418 152 463V336Z" fill="#007E4C"/>
<path d="M224.024 447.528C221.432 447.528 219.016 447.08 216.776 446.184C214.568 445.256 212.712 443.96 211.208 442.296L215.432 438.36C216.712 439.736 217.976 440.696 219.224 441.24C220.504 441.752 222.072 442.008 223.928 442.008C225.272 442.008 226.44 441.816 227.432 441.432C228.456 441.016 229.24 440.44 229.784 439.704C230.36 438.968 230.648 438.12 230.648 437.16C230.648 436.264 230.424 435.496 229.976 434.856C229.528 434.216 228.92 433.72 228.152 433.368C227.384 432.984 226.472 432.792 225.416 432.792H221.192V427.608H224.84C226.344 427.608 227.528 427.224 228.392 426.456C229.256 425.656 229.688 424.568 229.688 423.192C229.688 422.296 229.432 421.496 228.92 420.792C228.408 420.056 227.704 419.48 226.808 419.064C225.944 418.648 224.952 418.44 223.832 418.44C222.168 418.44 220.728 418.728 219.512 419.304C218.328 419.88 217.08 420.904 215.768 422.376L211.496 418.44C213.064 416.68 214.936 415.32 217.112 414.36C219.32 413.368 221.64 412.872 224.072 412.872C226.408 412.872 228.472 413.288 230.264 414.12C232.056 414.92 233.464 416.04 234.488 417.48C235.512 418.92 236.024 420.568 236.024 422.424C236.024 424.216 235.432 425.816 234.248 427.224C233.064 428.6 231.528 429.56 229.64 430.104C231.88 430.552 233.656 431.448 234.968 432.792C236.312 434.136 236.984 435.752 236.984 437.64C236.984 439.528 236.424 441.224 235.304 442.728C234.184 444.232 232.648 445.416 230.696 446.28C228.776 447.112 226.552 447.528 224.024 447.528ZM255.477 447.528C252.629 447.528 250.133 446.824 247.989 445.416C245.845 444.008 244.165 442.072 242.949 439.608C241.765 437.112 241.173 434.216 241.173 430.92C241.173 427.304 241.829 424.152 243.141 421.464C244.485 418.744 246.341 416.632 248.709 415.128C251.109 413.624 253.909 412.872 257.109 412.872C258.869 412.872 260.613 413.16 262.341 413.736C264.069 414.312 265.509 415.112 266.661 416.136L263.109 420.648C262.181 419.912 261.189 419.368 260.133 419.016C259.077 418.664 257.909 418.488 256.629 418.488C254.677 418.488 253.013 418.984 251.637 419.976C250.261 420.968 249.205 422.392 248.469 424.248C247.765 426.072 247.397 428.312 247.365 430.968C248.485 429.432 249.829 428.248 251.397 427.416C252.965 426.552 254.613 426.12 256.341 426.12C258.549 426.12 260.501 426.568 262.197 427.464C263.893 428.328 265.221 429.544 266.181 431.112C267.141 432.648 267.621 434.408 267.621 436.392C267.621 438.504 267.093 440.408 266.037 442.104C264.981 443.768 263.541 445.096 261.717 446.088C259.893 447.048 257.813 447.528 255.477 447.528ZM255.285 431.064C253.813 431.064 252.421 431.368 251.109 431.976C249.829 432.584 248.693 433.448 247.701 434.568C248.021 436.104 248.517 437.448 249.189 438.6C249.893 439.72 250.757 440.584 251.781 441.192C252.805 441.8 253.941 442.104 255.189 442.104C256.373 442.104 257.429 441.864 258.357 441.384C259.317 440.904 260.069 440.248 260.613 439.416C261.157 438.552 261.429 437.592 261.429 436.536C261.429 435.448 261.173 434.504 260.661 433.704C260.149 432.872 259.429 432.232 258.501 431.784C257.605 431.304 256.533 431.064 255.285 431.064ZM271.649 447V442.488L285.665 428.28C286.337 427.576 286.865 426.92 287.249 426.312C287.665 425.704 287.953 425.112 288.113 424.536C288.305 423.928 288.401 423.32 288.401 422.712C288.401 421.464 287.873 420.424 286.817 419.592C285.793 418.76 284.481 418.344 282.881 418.344C281.345 418.344 279.921 418.664 278.609 419.304C277.297 419.912 275.857 420.968 274.289 422.472L270.737 418.152C272.625 416.392 274.593 415.08 276.641 414.216C278.689 413.32 280.833 412.872 283.073 412.872C285.345 412.872 287.345 413.272 289.073 414.072C290.801 414.872 292.145 415.976 293.105 417.384C294.065 418.792 294.545 420.44 294.545 422.328C294.545 423.416 294.385 424.44 294.065 425.4C293.777 426.36 293.297 427.336 292.625 428.328C291.953 429.288 291.057 430.328 289.937 431.448L279.761 441.672L295.073 441.624V447H271.649ZM299.165 447V442.488L313.181 428.28C313.853 427.576 314.381 426.92 314.765 426.312C315.181 425.704 315.469 425.112 315.629 424.536C315.821 423.928 315.917 423.32 315.917 422.712C315.917 421.464 315.389 420.424 314.333 419.592C313.309 418.76 311.997 418.344 310.397 418.344C308.861 418.344 307.437 418.664 306.125 419.304C304.813 419.912 303.373 420.968 301.805 422.472L298.253 418.152C300.141 416.392 302.109 415.08 304.157 414.216C306.205 413.32 308.349 412.872 310.589 412.872C312.861 412.872 314.861 413.272 316.589 414.072C318.317 414.872 319.661 415.976 320.621 417.384C321.581 418.792 322.061 420.44 322.061 422.328C322.061 423.416 321.901 424.44 321.581 425.4C321.293 426.36 320.813 427.336 320.141 428.328C319.469 429.288 318.573 430.328 317.453 431.448L307.277 441.672L322.589 441.624V447H299.165Z" fill="white"/>
<path d="M173.367 365V354.074H168.939V352.4H179.685V354.074H175.257V365H173.367ZM183.314 365.18C182.426 365.18 181.616 364.97 180.884 364.55C180.164 364.13 179.594 363.56 179.174 362.84C178.754 362.12 178.544 361.316 178.544 360.428C178.544 359.54 178.754 358.736 179.174 358.016C179.594 357.296 180.164 356.726 180.884 356.306C181.616 355.874 182.426 355.658 183.314 355.658C184.214 355.658 185.024 355.874 185.744 356.306C186.464 356.726 187.034 357.296 187.454 358.016C187.874 358.736 188.084 359.54 188.084 360.428C188.084 361.316 187.874 362.12 187.454 362.84C187.034 363.56 186.464 364.13 185.744 364.55C185.024 364.97 184.214 365.18 183.314 365.18ZM183.314 363.596C183.878 363.596 184.388 363.458 184.844 363.182C185.3 362.894 185.66 362.51 185.924 362.03C186.188 361.55 186.32 361.01 186.32 360.41C186.32 359.822 186.182 359.294 185.906 358.826C185.642 358.346 185.282 357.962 184.826 357.674C184.382 357.386 183.878 357.242 183.314 357.242C182.75 357.242 182.24 357.386 181.784 357.674C181.34 357.962 180.98 358.346 180.704 358.826C180.44 359.294 180.308 359.822 180.308 360.41C180.308 361.01 180.44 361.55 180.704 362.03C180.968 362.51 181.328 362.894 181.784 363.182C182.24 363.458 182.75 363.596 183.314 363.596ZM193.183 365.162C192.295 365.162 191.617 364.958 191.149 364.55C190.681 364.13 190.447 363.524 190.447 362.732V357.35H188.503V355.838H190.447V353.498L192.229 353.066V355.838H194.929V357.35H192.229V362.318C192.229 362.786 192.331 363.122 192.535 363.326C192.751 363.518 193.099 363.614 193.579 363.614C193.831 363.614 194.053 363.596 194.245 363.56C194.449 363.524 194.665 363.47 194.893 363.398V364.91C194.653 364.994 194.371 365.054 194.047 365.09C193.735 365.138 193.447 365.162 193.183 365.162ZM199.153 365.162C198.493 365.162 197.911 365.048 197.407 364.82C196.903 364.58 196.507 364.25 196.219 363.83C195.931 363.41 195.787 362.924 195.787 362.372C195.787 361.508 196.117 360.83 196.777 360.338C197.437 359.834 198.343 359.582 199.495 359.582C200.395 359.582 201.229 359.756 201.997 360.104V359.132C201.997 358.472 201.805 357.98 201.421 357.656C201.049 357.332 200.497 357.17 199.765 357.17C199.345 357.17 198.907 357.236 198.451 357.368C197.995 357.488 197.485 357.68 196.921 357.944L196.255 356.594C196.951 356.27 197.599 356.036 198.199 355.892C198.799 355.736 199.405 355.658 200.017 355.658C201.205 355.658 202.123 355.94 202.771 356.504C203.431 357.068 203.761 357.872 203.761 358.916V365H201.997V364.208C201.589 364.532 201.151 364.772 200.683 364.928C200.215 365.084 199.705 365.162 199.153 365.162ZM197.515 362.336C197.515 362.78 197.701 363.14 198.073 363.416C198.457 363.68 198.955 363.812 199.567 363.812C200.047 363.812 200.485 363.746 200.881 363.614C201.289 363.47 201.661 363.248 201.997 362.948V361.4C201.649 361.196 201.283 361.052 200.899 360.968C200.527 360.872 200.107 360.824 199.639 360.824C198.979 360.824 198.457 360.962 198.073 361.238C197.701 361.502 197.515 361.868 197.515 362.336ZM205.835 365V352.4L207.635 352.058V365H205.835ZM213.733 365V352.4H216.271L220.213 360.464L224.155 352.4H226.675V365H224.893V354.704L220.195 364.1L215.497 354.704V365H213.733ZM231.743 365.162C231.083 365.162 230.501 365.048 229.997 364.82C229.493 364.58 229.097 364.25 228.809 363.83C228.521 363.41 228.377 362.924 228.377 362.372C228.377 361.508 228.707 360.83 229.367 360.338C230.027 359.834 230.933 359.582 232.085 359.582C232.985 359.582 233.819 359.756 234.587 360.104V359.132C234.587 358.472 234.395 357.98 234.011 357.656C233.639 357.332 233.087 357.17 232.355 357.17C231.935 357.17 231.497 357.236 231.041 357.368C230.585 357.488 230.075 357.68 229.511 357.944L228.845 356.594C229.541 356.27 230.189 356.036 230.789 355.892C231.389 355.736 231.995 355.658 232.607 355.658C233.795 355.658 234.713 355.94 235.361 356.504C236.021 357.068 236.351 357.872 236.351 358.916V365H234.587V364.208C234.179 364.532 233.741 364.772 233.273 364.928C232.805 365.084 232.295 365.162 231.743 365.162ZM230.105 362.336C230.105 362.78 230.291 363.14 230.663 363.416C231.047 363.68 231.545 363.812 232.157 363.812C232.637 363.812 233.075 363.746 233.471 363.614C233.879 363.47 234.251 363.248 234.587 362.948V361.4C234.239 361.196 233.873 361.052 233.489 360.968C233.117 360.872 232.697 360.824 232.229 360.824C231.569 360.824 231.047 360.962 230.663 361.238C230.291 361.502 230.105 361.868 230.105 362.336ZM242.086 365.162C241.198 365.162 240.52 364.958 240.052 364.55C239.584 364.13 239.35 363.524 239.35 362.732V357.35H237.406V355.838H239.35V353.498L241.132 353.066V355.838H243.832V357.35H241.132V362.318C241.132 362.786 241.234 363.122 241.438 363.326C241.654 363.518 242.002 363.614 242.482 363.614C242.734 363.614 242.956 363.596 243.148 363.56C243.352 363.524 243.568 363.47 243.796 363.398V364.91C243.556 364.994 243.274 365.054 242.95 365.09C242.638 365.138 242.35 365.162 242.086 365.162ZM249.409 365.162C248.509 365.162 247.693 364.952 246.961 364.532C246.241 364.112 245.665 363.542 245.233 362.822C244.813 362.102 244.603 361.298 244.603 360.41C244.603 359.534 244.807 358.742 245.215 358.034C245.623 357.314 246.175 356.744 246.871 356.324C247.567 355.892 248.341 355.676 249.193 355.676C250.045 355.676 250.801 355.892 251.461 356.324C252.121 356.744 252.643 357.32 253.027 358.052C253.423 358.772 253.621 359.588 253.621 360.5V361.004H246.403C246.499 361.508 246.685 361.958 246.961 362.354C247.249 362.75 247.609 363.062 248.041 363.29C248.485 363.518 248.965 363.632 249.481 363.632C249.925 363.632 250.351 363.566 250.759 363.434C251.179 363.29 251.527 363.086 251.803 362.822L252.955 363.956C252.415 364.364 251.857 364.67 251.281 364.874C250.717 365.066 250.093 365.162 249.409 365.162ZM246.421 359.654H251.839C251.767 359.174 251.599 358.754 251.335 358.394C251.083 358.022 250.765 357.734 250.381 357.53C250.009 357.314 249.601 357.206 249.157 357.206C248.701 357.206 248.281 357.308 247.897 357.512C247.513 357.716 247.189 358.004 246.925 358.376C246.673 358.736 246.505 359.162 246.421 359.654ZM255.335 365V355.838H257.135V357.008C257.423 356.576 257.777 356.24 258.197 356C258.629 355.748 259.115 355.622 259.655 355.622C260.027 355.634 260.333 355.688 260.573 355.784V357.404C260.405 357.332 260.231 357.284 260.051 357.26C259.871 357.224 259.691 357.206 259.511 357.206C258.983 357.206 258.515 357.35 258.107 357.638C257.699 357.914 257.375 358.322 257.135 358.862V365H255.335ZM262.015 365V355.838H263.815V365H262.015ZM262.915 354.362C262.615 354.362 262.357 354.254 262.141 354.038C261.925 353.81 261.817 353.546 261.817 353.246C261.817 352.934 261.925 352.676 262.141 352.472C262.357 352.256 262.615 352.148 262.915 352.148C263.227 352.148 263.491 352.256 263.707 352.472C263.923 352.676 264.031 352.934 264.031 353.246C264.031 353.546 263.923 353.81 263.707 354.038C263.491 354.254 263.227 354.362 262.915 354.362ZM268.833 365.162C268.173 365.162 267.591 365.048 267.087 364.82C266.583 364.58 266.187 364.25 265.899 363.83C265.611 363.41 265.467 362.924 265.467 362.372C265.467 361.508 265.797 360.83 266.457 360.338C267.117 359.834 268.023 359.582 269.175 359.582C270.075 359.582 270.909 359.756 271.677 360.104V359.132C271.677 358.472 271.485 357.98 271.101 357.656C270.729 357.332 270.177 357.17 269.445 357.17C269.025 357.17 268.587 357.236 268.131 357.368C267.675 357.488 267.165 357.68 266.601 357.944L265.935 356.594C266.631 356.27 267.279 356.036 267.879 355.892C268.479 355.736 269.085 355.658 269.697 355.658C270.885 355.658 271.803 355.94 272.451 356.504C273.111 357.068 273.441 357.872 273.441 358.916V365H271.677V364.208C271.269 364.532 270.831 364.772 270.363 364.928C269.895 365.084 269.385 365.162 268.833 365.162ZM267.195 362.336C267.195 362.78 267.381 363.14 267.753 363.416C268.137 363.68 268.635 363.812 269.247 363.812C269.727 363.812 270.165 363.746 270.561 363.614C270.969 363.47 271.341 363.248 271.677 362.948V361.4C271.329 361.196 270.963 361.052 270.579 360.968C270.207 360.872 269.787 360.824 269.319 360.824C268.659 360.824 268.137 360.962 267.753 361.238C267.381 361.502 267.195 361.868 267.195 362.336ZM275.515 365V352.4L277.315 352.058V365H275.515ZM289.479 365.198C288.543 365.198 287.673 365.036 286.869 364.712C286.077 364.376 285.375 363.914 284.763 363.326C284.163 362.726 283.695 362.036 283.359 361.256C283.035 360.464 282.873 359.612 282.873 358.7C282.873 357.788 283.035 356.942 283.359 356.162C283.695 355.37 284.163 354.68 284.763 354.092C285.375 353.492 286.083 353.03 286.887 352.706C287.691 352.37 288.555 352.202 289.479 352.202C290.139 352.202 290.781 352.292 291.405 352.472C292.041 352.64 292.623 352.886 293.151 353.21C293.691 353.534 294.159 353.924 294.555 354.38L293.295 355.676C292.827 355.112 292.257 354.686 291.585 354.398C290.913 354.098 290.211 353.948 289.479 353.948C288.807 353.948 288.183 354.068 287.607 354.308C287.043 354.548 286.551 354.884 286.131 355.316C285.711 355.736 285.381 356.234 285.141 356.81C284.913 357.386 284.799 358.016 284.799 358.7C284.799 359.372 284.913 359.996 285.141 360.572C285.381 361.148 285.717 361.652 286.149 362.084C286.581 362.516 287.085 362.852 287.661 363.092C288.237 363.332 288.861 363.452 289.533 363.452C290.265 363.452 290.955 363.308 291.603 363.02C292.263 362.72 292.821 362.3 293.277 361.76L294.519 363.02C294.099 363.464 293.619 363.854 293.079 364.19C292.551 364.514 291.975 364.766 291.351 364.946C290.739 365.114 290.115 365.198 289.479 365.198ZM300.244 365.18C299.356 365.18 298.546 364.97 297.814 364.55C297.094 364.13 296.524 363.56 296.104 362.84C295.684 362.12 295.474 361.316 295.474 360.428C295.474 359.54 295.684 358.736 296.104 358.016C296.524 357.296 297.094 356.726 297.814 356.306C298.546 355.874 299.356 355.658 300.244 355.658C301.144 355.658 301.954 355.874 302.674 356.306C303.394 356.726 303.964 357.296 304.384 358.016C304.804 358.736 305.014 359.54 305.014 360.428C305.014 361.316 304.804 362.12 304.384 362.84C303.964 363.56 303.394 364.13 302.674 364.55C301.954 364.97 301.144 365.18 300.244 365.18ZM300.244 363.596C300.808 363.596 301.318 363.458 301.774 363.182C302.23 362.894 302.59 362.51 302.854 362.03C303.118 361.55 303.25 361.01 303.25 360.41C303.25 359.822 303.112 359.294 302.836 358.826C302.572 358.346 302.212 357.962 301.756 357.674C301.312 357.386 300.808 357.242 300.244 357.242C299.68 357.242 299.17 357.386 298.714 357.674C298.27 357.962 297.91 358.346 297.634 358.826C297.37 359.294 297.238 359.822 297.238 360.41C297.238 361.01 297.37 361.55 297.634 362.03C297.898 362.51 298.258 362.894 298.714 363.182C299.17 363.458 299.68 363.596 300.244 363.596ZM306.716 365V352.4L308.516 352.058V365H306.716ZM310.636 365V352.4L312.436 352.058V365H310.636ZM318.948 365.162C318.048 365.162 317.232 364.952 316.5 364.532C315.78 364.112 315.204 363.542 314.772 362.822C314.352 362.102 314.142 361.298 314.142 360.41C314.142 359.534 314.346 358.742 314.754 358.034C315.162 357.314 315.714 356.744 316.41 356.324C317.106 355.892 317.88 355.676 318.732 355.676C319.584 355.676 320.34 355.892 321 356.324C321.66 356.744 322.182 357.32 322.566 358.052C322.962 358.772 323.16 359.588 323.16 360.5V361.004H315.942C316.038 361.508 316.224 361.958 316.5 362.354C316.788 362.75 317.148 363.062 317.58 363.29C318.024 363.518 318.504 363.632 319.02 363.632C319.464 363.632 319.89 363.566 320.298 363.434C320.718 363.29 321.066 363.086 321.342 362.822L322.494 363.956C321.954 364.364 321.396 364.67 320.82 364.874C320.256 365.066 319.632 365.162 318.948 365.162ZM315.96 359.654H321.378C321.306 359.174 321.138 358.754 320.874 358.394C320.622 358.022 320.304 357.734 319.92 357.53C319.548 357.314 319.14 357.206 318.696 357.206C318.24 357.206 317.82 357.308 317.436 357.512C317.052 357.716 316.728 358.004 316.464 358.376C316.212 358.736 316.044 359.162 315.96 359.654ZM329.212 365.162C328.336 365.162 327.538 364.952 326.818 364.532C326.098 364.112 325.528 363.542 325.108 362.822C324.7 362.102 324.496 361.298 324.496 360.41C324.496 359.522 324.706 358.724 325.126 358.016C325.546 357.296 326.11 356.726 326.818 356.306C327.538 355.874 328.336 355.658 329.212 355.658C329.908 355.658 330.574 355.79 331.21 356.054C331.858 356.318 332.416 356.69 332.884 357.17L331.768 358.412C331.42 358.028 331.03 357.74 330.598 357.548C330.166 357.356 329.716 357.26 329.248 357.26C328.696 357.26 328.192 357.398 327.736 357.674C327.292 357.95 326.938 358.328 326.674 358.808C326.41 359.288 326.278 359.822 326.278 360.41C326.278 360.998 326.41 361.532 326.674 362.012C326.938 362.492 327.298 362.876 327.754 363.164C328.21 363.44 328.72 363.578 329.284 363.578C329.752 363.578 330.19 363.488 330.598 363.308C331.006 363.116 331.39 362.84 331.75 362.48L332.848 363.632C332.368 364.124 331.81 364.502 331.174 364.766C330.55 365.03 329.896 365.162 329.212 365.162ZM338.396 365.162C337.508 365.162 336.83 364.958 336.362 364.55C335.894 364.13 335.66 363.524 335.66 362.732V357.35H333.716V355.838H335.66V353.498L337.442 353.066V355.838H340.142V357.35H337.442V362.318C337.442 362.786 337.544 363.122 337.748 363.326C337.964 363.518 338.312 363.614 338.792 363.614C339.044 363.614 339.266 363.596 339.458 363.56C339.662 363.524 339.878 363.47 340.106 363.398V364.91C339.866 364.994 339.584 365.054 339.26 365.09C338.948 365.138 338.66 365.162 338.396 365.162ZM341.468 365V355.838H343.268V365H341.468ZM342.368 354.362C342.068 354.362 341.81 354.254 341.594 354.038C341.378 353.81 341.27 353.546 341.27 353.246C341.27 352.934 341.378 352.676 341.594 352.472C341.81 352.256 342.068 352.148 342.368 352.148C342.68 352.148 342.944 352.256 343.16 352.472C343.376 352.676 343.484 352.934 343.484 353.246C343.484 353.546 343.376 353.81 343.16 354.038C342.944 354.254 342.68 354.362 342.368 354.362ZM349.744 365.18C348.856 365.18 348.046 364.97 347.314 364.55C346.594 364.13 346.024 363.56 345.604 362.84C345.184 362.12 344.974 361.316 344.974 360.428C344.974 359.54 345.184 358.736 345.604 358.016C346.024 357.296 346.594 356.726 347.314 356.306C348.046 355.874 348.856 355.658 349.744 355.658C350.644 355.658 351.454 355.874 352.174 356.306C352.894 356.726 353.464 357.296 353.884 358.016C354.304 358.736 354.514 359.54 354.514 360.428C354.514 361.316 354.304 362.12 353.884 362.84C353.464 363.56 352.894 364.13 352.174 364.55C351.454 364.97 350.644 365.18 349.744 365.18ZM349.744 363.596C350.308 363.596 350.818 363.458 351.274 363.182C351.73 362.894 352.09 362.51 352.354 362.03C352.618 361.55 352.75 361.01 352.75 360.41C352.75 359.822 352.612 359.294 352.336 358.826C352.072 358.346 351.712 357.962 351.256 357.674C350.812 357.386 350.308 357.242 349.744 357.242C349.18 357.242 348.67 357.386 348.214 357.674C347.77 357.962 347.41 358.346 347.134 358.826C346.87 359.294 346.738 359.822 346.738 360.41C346.738 361.01 346.87 361.55 347.134 362.03C347.398 362.51 347.758 362.894 348.214 363.182C348.67 363.458 349.18 363.596 349.744 363.596ZM356.216 365V355.838H358.016V356.774C358.724 356.03 359.642 355.658 360.77 355.658C361.478 355.658 362.096 355.808 362.624 356.108C363.164 356.408 363.584 356.828 363.884 357.368C364.196 357.908 364.352 358.532 364.352 359.24V365H362.552V359.546C362.552 358.826 362.348 358.262 361.94 357.854C361.544 357.434 360.986 357.224 360.266 357.224C359.786 357.224 359.354 357.326 358.97 357.53C358.586 357.734 358.268 358.028 358.016 358.412V365H356.216Z" fill="white"/>
<path d="M257.5 393.5L263.5 387.5L268.5 392.5L275.5 385.5" stroke="#F7F8FB" stroke-width="2" stroke-linecap="round" stroke-linejoin="round"/>
<path d="M269.5 384.5H276.5V391.5" stroke="#F7F8FB" stroke-width="2" stroke-linecap="round" stroke-linejoin="round"/>
<path d="M0 40C0 35.5817 3.58172 32 8 32H222C226.418 32 230 35.5817 230 40V167C230 171.418 226.418 175 222 175H8C3.58172 175 0 171.418 0 167V40Z" fill="white"/>
<path d="M100.852 151.528C98.26 151.528 95.844 151.08 93.604 150.184C91.396 149.256 89.54 147.96 88.036 146.296L92.26 142.36C93.54 143.736 94.804 144.696 96.052 145.24C97.332 145.752 98.9 146.008 100.756 146.008C102.1 146.008 103.268 145.816 104.26 145.432C105.284 145.016 106.068 144.44 106.612 143.704C107.188 142.968 107.476 142.12 107.476 141.16C107.476 140.264 107.252 139.496 106.804 138.856C106.356 138.216 105.748 137.72 104.98 137.368C104.212 136.984 103.3 136.792 102.244 136.792H98.02V131.608H101.668C103.172 131.608 104.356 131.224 105.22 130.456C106.084 129.656 106.516 128.568 106.516 127.192C106.516 126.296 106.26 125.496 105.748 124.792C105.236 124.056 104.532 123.48 103.636 123.064C102.772 122.648 101.78 122.44 100.66 122.44C98.996 122.44 97.556 122.728 96.34 123.304C95.156 123.88 93.908 124.904 92.596 126.376L88.324 122.44C89.892 120.68 91.764 119.32 93.94 118.36C96.148 117.368 98.468 116.872 100.9 116.872C103.236 116.872 105.3 117.288 107.092 118.12C108.884 118.92 110.292 120.04 111.316 121.48C112.34 122.92 112.852 124.568 112.852 126.424C112.852 128.216 112.26 129.816 111.076 131.224C109.892 132.6 108.356 133.56 106.468 134.104C108.708 134.552 110.484 135.448 111.796 136.792C113.14 138.136 113.812 139.752 113.812 141.64C113.812 143.528 113.252 145.224 112.132 146.728C111.012 148.232 109.476 149.416 107.524 150.28C105.604 151.112 103.38 151.528 100.852 151.528ZM118.336 151V146.488L132.352 132.28C133.024 131.576 133.552 130.92 133.936 130.312C134.352 129.704 134.64 129.112 134.8 128.536C134.992 127.928 135.088 127.32 135.088 126.712C135.088 125.464 134.56 124.424 133.504 123.592C132.48 122.76 131.168 122.344 129.568 122.344C128.032 122.344 126.608 122.664 125.296 123.304C123.984 123.912 122.544 124.968 120.976 126.472L117.424 122.152C119.312 120.392 121.28 119.08 123.328 118.216C125.376 117.32 127.52 116.872 129.76 116.872C132.032 116.872 134.032 117.272 135.76 118.072C137.488 118.872 138.832 119.976 139.792 121.384C140.752 122.792 141.232 124.44 141.232 126.328C141.232 127.416 141.072 128.44 140.752 129.4C140.464 130.36 139.984 131.336 139.312 132.328C138.64 133.288 137.744 134.328 136.624 135.448L126.448 145.672L141.76 145.624V151H118.336Z" fill="#005435"/>
<path d="M59.6783 69V58.074H55.2503V56.4H65.9963V58.074H61.5683V69H59.6783ZM69.626 69.18C68.738 69.18 67.928 68.97 67.196 68.55C66.476 68.13 65.906 67.56 65.486 66.84C65.066 66.12 64.856 65.316 64.856 64.428C64.856 63.54 65.066 62.736 65.486 62.016C65.906 61.296 66.476 60.726 67.196 60.306C67.928 59.874 68.738 59.658 69.626 59.658C70.526 59.658 71.336 59.874 72.056 60.306C72.776 60.726 73.346 61.296 73.766 62.016C74.186 62.736 74.396 63.54 74.396 64.428C74.396 65.316 74.186 66.12 73.766 66.84C73.346 67.56 72.776 68.13 72.056 68.55C71.336 68.97 70.526 69.18 69.626 69.18ZM69.626 67.596C70.19 67.596 70.7 67.458 71.156 67.182C71.612 66.894 71.972 66.51 72.236 66.03C72.5 65.55 72.632 65.01 72.632 64.41C72.632 63.822 72.494 63.294 72.218 62.826C71.954 62.346 71.594 61.962 71.138 61.674C70.694 61.386 70.19 61.242 69.626 61.242C69.062 61.242 68.552 61.386 68.096 61.674C67.652 61.962 67.292 62.346 67.016 62.826C66.752 63.294 66.62 63.822 66.62 64.41C66.62 65.01 66.752 65.55 67.016 66.03C67.28 66.51 67.64 66.894 68.096 67.182C68.552 67.458 69.062 67.596 69.626 67.596ZM79.4948 69.162C78.6068 69.162 77.9288 68.958 77.4608 68.55C76.9928 68.13 76.7588 67.524 76.7588 66.732V61.35H74.8148V59.838H76.7588V57.498L78.5408 57.066V59.838H81.2408V61.35H78.5408V66.318C78.5408 66.786 78.6428 67.122 78.8468 67.326C79.0628 67.518 79.4108 67.614 79.8908 67.614C80.1428 67.614 80.3648 67.596 80.5568 67.56C80.7608 67.524 80.9768 67.47 81.2048 67.398V68.91C80.9648 68.994 80.6828 69.054 80.3588 69.09C80.0468 69.138 79.7588 69.162 79.4948 69.162ZM85.4649 69.162C84.8049 69.162 84.2229 69.048 83.7189 68.82C83.2149 68.58 82.8189 68.25 82.5309 67.83C82.2429 67.41 82.0989 66.924 82.0989 66.372C82.0989 65.508 82.4289 64.83 83.0889 64.338C83.7489 63.834 84.6549 63.582 85.8069 63.582C86.7069 63.582 87.5409 63.756 88.3089 64.104V63.132C88.3089 62.472 88.1169 61.98 87.7329 61.656C87.3609 61.332 86.8089 61.17 86.0769 61.17C85.6569 61.17 85.2189 61.236 84.7629 61.368C84.3069 61.488 83.7969 61.68 83.2329 61.944L82.5669 60.594C83.2629 60.27 83.9109 60.036 84.5109 59.892C85.1109 59.736 85.7169 59.658 86.3289 59.658C87.5169 59.658 88.4349 59.94 89.0829 60.504C89.7429 61.068 90.0729 61.872 90.0729 62.916V69H88.3089V68.208C87.9009 68.532 87.4629 68.772 86.9949 68.928C86.5269 69.084 86.0169 69.162 85.4649 69.162ZM83.8269 66.336C83.8269 66.78 84.0129 67.14 84.3849 67.416C84.7689 67.68 85.2669 67.812 85.8789 67.812C86.3589 67.812 86.7969 67.746 87.1929 67.614C87.6009 67.47 87.9729 67.248 88.3089 66.948V65.4C87.9609 65.196 87.5949 65.052 87.2109 64.968C86.8389 64.872 86.4189 64.824 85.9509 64.824C85.2909 64.824 84.7689 64.962 84.3849 65.238C84.0129 65.502 83.8269 65.868 83.8269 66.336ZM92.147 69V56.4L93.947 56.058V69H92.147ZM106.111 69.198C105.175 69.198 104.305 69.036 103.501 68.712C102.709 68.376 102.007 67.914 101.395 67.326C100.795 66.726 100.327 66.036 99.9906 65.256C99.6666 64.464 99.5046 63.612 99.5046 62.7C99.5046 61.788 99.6666 60.942 99.9906 60.162C100.327 59.37 100.795 58.68 101.395 58.092C102.007 57.492 102.715 57.03 103.519 56.706C104.323 56.37 105.187 56.202 106.111 56.202C106.771 56.202 107.413 56.292 108.037 56.472C108.673 56.64 109.255 56.886 109.783 57.21C110.323 57.534 110.791 57.924 111.187 58.38L109.927 59.676C109.459 59.112 108.889 58.686 108.217 58.398C107.545 58.098 106.843 57.948 106.111 57.948C105.439 57.948 104.815 58.068 104.239 58.308C103.675 58.548 103.183 58.884 102.763 59.316C102.343 59.736 102.013 60.234 101.773 60.81C101.545 61.386 101.431 62.016 101.431 62.7C101.431 63.372 101.545 63.996 101.773 64.572C102.013 65.148 102.349 65.652 102.781 66.084C103.213 66.516 103.717 66.852 104.293 67.092C104.869 67.332 105.493 67.452 106.165 67.452C106.897 67.452 107.587 67.308 108.235 67.02C108.895 66.72 109.453 66.3 109.909 65.76L111.151 67.02C110.731 67.464 110.251 67.854 109.711 68.19C109.183 68.514 108.607 68.766 107.983 68.946C107.371 69.114 106.747 69.198 106.111 69.198ZM112.784 69V56.4L114.584 56.058V69H112.784ZM121.096 69.162C120.196 69.162 119.38 68.952 118.648 68.532C117.928 68.112 117.352 67.542 116.92 66.822C116.5 66.102 116.29 65.298 116.29 64.41C116.29 63.534 116.494 62.742 116.902 62.034C117.31 61.314 117.862 60.744 118.558 60.324C119.254 59.892 120.028 59.676 120.88 59.676C121.732 59.676 122.488 59.892 123.148 60.324C123.808 60.744 124.33 61.32 124.714 62.052C125.11 62.772 125.308 63.588 125.308 64.5V65.004H118.09C118.186 65.508 118.372 65.958 118.648 66.354C118.936 66.75 119.296 67.062 119.728 67.29C120.172 67.518 120.652 67.632 121.168 67.632C121.612 67.632 122.038 67.566 122.446 67.434C122.866 67.29 123.214 67.086 123.49 66.822L124.642 67.956C124.102 68.364 123.544 68.67 122.968 68.874C122.404 69.066 121.78 69.162 121.096 69.162ZM118.108 63.654H123.526C123.454 63.174 123.286 62.754 123.022 62.394C122.77 62.022 122.452 61.734 122.068 61.53C121.696 61.314 121.288 61.206 120.844 61.206C120.388 61.206 119.968 61.308 119.584 61.512C119.2 61.716 118.876 62.004 118.612 62.376C118.36 62.736 118.192 63.162 118.108 63.654ZM129.797 69.162C129.137 69.162 128.555 69.048 128.051 68.82C127.547 68.58 127.151 68.25 126.863 67.83C126.575 67.41 126.431 66.924 126.431 66.372C126.431 65.508 126.761 64.83 127.421 64.338C128.081 63.834 128.987 63.582 130.139 63.582C131.039 63.582 131.873 63.756 132.641 64.104V63.132C132.641 62.472 132.449 61.98 132.065 61.656C131.693 61.332 131.141 61.17 130.409 61.17C129.989 61.17 129.551 61.236 129.095 61.368C128.639 61.488 128.129 61.68 127.565 61.944L126.899 60.594C127.595 60.27 128.243 60.036 128.843 59.892C129.443 59.736 130.049 59.658 130.661 59.658C131.849 59.658 132.767 59.94 133.415 60.504C134.075 61.068 134.405 61.872 134.405 62.916V69H132.641V68.208C132.233 68.532 131.795 68.772 131.327 68.928C130.859 69.084 130.349 69.162 129.797 69.162ZM128.159 66.336C128.159 66.78 128.345 67.14 128.717 67.416C129.101 67.68 129.599 67.812 130.211 67.812C130.691 67.812 131.129 67.746 131.525 67.614C131.933 67.47 132.305 67.248 132.641 66.948V65.4C132.293 65.196 131.927 65.052 131.543 64.968C131.171 64.872 130.751 64.824 130.283 64.824C129.623 64.824 129.101 64.962 128.717 65.238C128.345 65.502 128.159 65.868 128.159 66.336ZM136.479 69V59.838H138.279V60.774C138.987 60.03 139.905 59.658 141.033 59.658C141.741 59.658 142.359 59.808 142.887 60.108C143.427 60.408 143.847 60.828 144.147 61.368C144.459 61.908 144.615 62.532 144.615 63.24V69H142.815V63.546C142.815 62.826 142.611 62.262 142.203 61.854C141.807 61.434 141.249 61.224 140.529 61.224C140.049 61.224 139.617 61.326 139.233 61.53C138.849 61.734 138.531 62.028 138.279 62.412V69H136.479ZM150.15 69.18C149.442 69.18 148.818 69.03 148.278 68.73C147.738 68.43 147.318 68.01 147.018 67.47C146.718 66.918 146.568 66.288 146.568 65.58V59.838H148.35V65.274C148.35 65.994 148.554 66.564 148.962 66.984C149.382 67.404 149.94 67.614 150.636 67.614C151.128 67.614 151.566 67.512 151.95 67.308C152.334 67.092 152.646 66.792 152.886 66.408V59.838H154.686V69H152.886V68.064C152.178 68.808 151.266 69.18 150.15 69.18ZM156.817 72.672V59.838H158.599V60.72C159.367 60.036 160.303 59.694 161.407 59.694C162.271 59.694 163.051 59.904 163.747 60.324C164.455 60.744 165.013 61.308 165.421 62.016C165.829 62.724 166.033 63.522 166.033 64.41C166.033 65.298 165.823 66.102 165.403 66.822C164.995 67.53 164.437 68.094 163.729 68.514C163.033 68.934 162.247 69.144 161.371 69.144C160.867 69.144 160.381 69.066 159.913 68.91C159.445 68.742 159.013 68.508 158.617 68.208V72.672H156.817ZM161.173 67.578C161.761 67.578 162.283 67.44 162.739 67.164C163.207 66.888 163.579 66.516 163.855 66.048C164.131 65.568 164.269 65.028 164.269 64.428C164.269 63.828 164.131 63.288 163.855 62.808C163.579 62.328 163.207 61.95 162.739 61.674C162.283 61.398 161.761 61.26 161.173 61.26C160.657 61.26 160.177 61.356 159.733 61.548C159.289 61.74 158.917 62.01 158.617 62.358V66.498C158.917 66.834 159.289 67.098 159.733 67.29C160.189 67.482 160.669 67.578 161.173 67.578ZM170.9 69.18C170.108 69.18 169.364 69.066 168.668 68.838C167.984 68.598 167.39 68.262 166.886 67.83L167.876 66.642C168.344 67.014 168.824 67.302 169.316 67.506C169.82 67.698 170.33 67.794 170.846 67.794C171.494 67.794 172.022 67.668 172.43 67.416C172.838 67.164 173.042 66.834 173.042 66.426C173.042 66.09 172.922 65.826 172.682 65.634C172.442 65.442 172.07 65.31 171.566 65.238L169.91 65.004C168.998 64.872 168.314 64.59 167.858 64.158C167.402 63.726 167.174 63.15 167.174 62.43C167.174 61.878 167.324 61.398 167.624 60.99C167.924 60.57 168.344 60.246 168.884 60.018C169.424 59.778 170.054 59.658 170.774 59.658C171.434 59.658 172.07 59.754 172.682 59.946C173.294 60.138 173.882 60.438 174.446 60.846L173.528 62.034C173.024 61.698 172.532 61.452 172.052 61.296C171.584 61.14 171.11 61.062 170.63 61.062C170.078 61.062 169.634 61.182 169.298 61.422C168.962 61.65 168.794 61.95 168.794 62.322C168.794 62.658 168.908 62.922 169.136 63.114C169.376 63.294 169.766 63.42 170.306 63.492L171.962 63.726C172.874 63.858 173.564 64.14 174.032 64.572C174.5 64.992 174.734 65.562 174.734 66.282C174.734 66.834 174.566 67.332 174.23 67.776C173.894 68.208 173.438 68.55 172.862 68.802C172.286 69.054 171.632 69.18 170.9 69.18Z" fill="#131313"/>
<path d="M105.5 97.5L111.5 91.5L116.5 96.5L123.5 89.5" stroke="#005435" stroke-width="2" stroke-linecap="round" stroke-linejoin="round"/>
<path d="M117.5 88.5H124.5V95.5" stroke="#005435" stroke-width="2" stroke-linecap="round" stroke-linejoin="round"/>
<defs>
<linearGradient id="paint0_linear_5598_28668" x1="189.001" y1="232.047" x2="189.001" y2="300.299" gradientUnits="userSpaceOnUse">
<stop stop-color="#B97777"/>
<stop offset="1" stop-color="#843232"/>
</linearGradient>
</defs>
</svg>
