<svg width="70" height="70" viewBox="0 0 88 88" fill="none" xmlns="http://www.w3.org/2000/svg">
<circle cx="67.0296" cy="18.3891" r="6" transform="rotate(107.924 67.0296 18.3891)" fill="#F49B16"/>
<path d="M75.2007 21.1193L77.5884 21.8916" stroke="#F49B16" stroke-width="2" stroke-linecap="round"/>
<path d="M70.9652 26.0902L72.1074 28.3247" stroke="#F49B16" stroke-width="2" stroke-linecap="round"/>
<path d="M64.4564 26.6118L63.6841 28.9995" stroke="#F49B16" stroke-width="2" stroke-linecap="round"/>
<path d="M59.4842 22.3763L57.2498 23.5186" stroke="#F49B16" stroke-width="2" stroke-linecap="round"/>
<path d="M56.5769 15.0958L58.9646 15.8682" stroke="#F49B16" stroke-width="2" stroke-linecap="round"/>
<path d="M62.0566 8.66201L63.1989 10.8965" stroke="#F49B16" stroke-width="2" stroke-linecap="round"/>
<path d="M70.4807 7.98828L69.7084 10.376" stroke="#F49B16" stroke-width="2" stroke-linecap="round"/>
<path d="M76.9138 13.4671L74.6793 14.6094" stroke="#F49B16" stroke-width="2" stroke-linecap="round"/>
<path d="M53.3535 65.4961C50.1284 70.0663 46.1594 73.5745 42.3515 75.5529C38.5412 77.5324 34.9045 77.9747 32.3325 76.4377C29.7627 74.9019 28.7235 71.6687 29.1386 67.6627C29.5535 63.6584 31.4213 58.8955 34.6465 54.3252C37.8716 49.755 41.8406 46.2467 45.6485 44.2684C49.4588 42.2889 53.0955 41.8465 55.6675 43.3836C58.2373 44.9194 59.2765 48.1526 58.8614 52.1586C58.4465 56.1628 56.5787 60.9257 53.3535 65.4961Z" fill="url(#paint0_linear_580_2060)" stroke="black" stroke-width="0.1"/>
<path d="M53.8169 58.2355C52.883 59.582 51.8692 60.6163 50.9871 61.2012C50.5457 61.4939 50.1405 61.6719 49.7969 61.7226C49.4549 61.7731 49.178 61.6973 48.9819 61.4872C48.7837 61.2748 48.6797 60.9378 48.6693 60.5011C48.659 60.0653 48.742 59.5369 48.9103 58.95C49.2466 57.7763 49.9212 56.3766 50.855 55.0303C51.789 53.6838 52.8027 52.6495 53.6849 52.0646C54.1262 51.772 54.5314 51.594 54.875 51.5433C55.2171 51.4928 55.494 51.5686 55.69 51.7787C55.8882 51.9911 55.9922 52.328 56.0026 52.7648C56.013 53.2006 55.9299 53.729 55.7617 54.3159C55.4253 55.4895 54.7507 56.8893 53.8169 58.2355Z" fill="#4F2424" stroke="black" stroke-width="0.1"/>
<ellipse cx="44" cy="77.4106" rx="38" ry="6" fill="#6A3232"/>
<defs>
<linearGradient id="paint0_linear_580_2060" x1="44" y1="42.4106" x2="44" y2="77.4106" gradientUnits="userSpaceOnUse">
<stop stop-color="#B97777"/>
<stop offset="1" stop-color="#843232"/>
</linearGradient>
</defs>
</svg>
