<svg width="70" height="70" viewBox="0 0 88 88" fill="none" xmlns="http://www.w3.org/2000/svg">
<path d="M44.592 48C45.9849 66.9574 43.3967 74.6852 43 75" stroke="url(#paint0_linear_580_2063)" stroke-width="7" stroke-linecap="round"/>
<path fill-rule="evenodd" clip-rule="evenodd" d="M44.3548 43.8872C42.4246 41.414 39.1627 38.5448 36.2347 37.2988C31.4678 34.5661 20.1307 36.73 19.1247 38.4602C18.1186 40.1904 22.0142 43.9188 29.0001 45.9998C34.3127 47.5823 40.8765 48.5518 44.07 48.317C46.2158 49.2243 50.665 49.152 55.7738 48.6448C63.4895 47.8786 71.2042 45.4999 71.0002 43.9999C70.7962 42.4998 61.484 37.6756 55.0767 38.5347C50.8028 39.1078 46.5915 41.6005 44.3548 43.8872Z" fill="url(#paint1_linear_580_2063)"/>
<ellipse cx="44" cy="77" rx="38" ry="6" fill="#6E4545"/>
<path fill-rule="evenodd" clip-rule="evenodd" d="M34.0374 8.12463C34.0505 8.04885 34.0572 7.97224 34.0572 7.89492C34.0572 6.2961 31.2039 5 27.6841 5C24.7498 5 22.2786 5.90085 21.5378 7.12693C20.8619 7.01607 20.133 6.95564 19.373 6.95564C15.8533 6.95564 13 8.25174 13 9.85057C13 11.4352 15.8028 12.7224 19.2793 12.7452C20.0789 13.9291 22.5047 14.7898 25.373 14.7898C27.4399 14.7898 29.2769 14.3429 30.4413 13.6502C30.8255 13.6831 31.2218 13.7002 31.627 13.7002C35.1467 13.7002 38 12.4041 38 10.8053C38 9.59397 36.3621 8.5564 34.0374 8.12463Z" fill="#CACACA"/>
<path fill-rule="evenodd" clip-rule="evenodd" d="M72.3519 14.2552C72.3545 14.2291 72.3558 14.2029 72.3558 14.1765C72.3558 12.9745 69.5899 12 66.1779 12C63.1872 12 60.6929 12.7487 60.1225 13.7431C58.2574 14.1177 57 14.8247 57 15.6352C57 16.5875 58.7358 17.3969 61.1535 17.6922C61.053 17.848 61 18.0101 61 18.1765C61 19.3786 63.7659 20.3531 67.1779 20.3531C70.4209 20.3531 73.0803 19.4727 73.3357 18.3533C75.4949 18.0141 77 17.2512 77 16.3645C77 15.3485 75.0239 14.495 72.3519 14.2552Z" fill="#CACACA"/>
<defs>
<linearGradient id="paint0_linear_580_2063" x1="44" y1="48" x2="45.496" y2="75.4275" gradientUnits="userSpaceOnUse">
<stop stop-color="#0DC463"/>
<stop offset="1" stop-color="#0FAA57"/>
</linearGradient>
<linearGradient id="paint1_linear_580_2063" x1="45.332" y1="31.6563" x2="48.9672" y2="60.1436" gradientUnits="userSpaceOnUse">
<stop stop-color="#14AE5C"/>
<stop offset="1" stop-color="#11DA6F"/>
</linearGradient>
</defs>
</svg>
