<svg width="70" height="70" viewBox="0 0 88 88" fill="none" xmlns="http://www.w3.org/2000/svg">
<g opacity="0.8">
<path d="M76.6979 65.3932C76.826 58.4582 74.1113 51.7548 69.1511 46.7577C64.1909 41.7606 57.3914 38.8792 50.2486 38.7473C43.1057 38.6154 36.2046 41.2439 31.0632 46.0544C25.9219 50.865 22.9616 57.4636 22.8336 64.3986" stroke="#EB6161" stroke-width="2" stroke-linecap="round"/>
<path d="M75.1126 65.9122C75.2335 59.365 72.6787 53.0367 68.0102 48.3195C63.3416 43.6022 56.9418 40.8823 50.2186 40.7581C43.4954 40.634 36.9996 43.1158 32.1601 47.6575C27.3206 52.1992 24.5338 58.4289 24.413 64.976" stroke="#F7A647" stroke-width="2" stroke-linecap="round"/>
<path d="M73.6451 66.8454C73.7608 60.5772 71.3612 54.5193 66.9741 50.0045C62.5871 45.4897 56.5719 42.8878 50.2519 42.7711C43.9319 42.6544 37.8248 45.0325 33.2741 49.3823C28.7233 53.732 26.1017 59.6971 25.986 65.9654" stroke="#E6E964" stroke-width="2" stroke-linecap="round"/>
<path d="M72.0659 67.7222C72.1763 61.747 69.9396 55.9733 65.8481 51.6712C61.7565 47.3691 56.1451 44.891 50.2485 44.7821C44.3518 44.6732 38.6528 46.9425 34.4052 51.0906C30.1576 55.2387 27.7093 60.9259 27.599 66.9011" stroke="#38BD22" stroke-width="2" stroke-linecap="round"/>
<path d="M70.4876 68.4526C70.5918 62.8099 68.5059 57.358 64.6887 53.2961C60.8715 49.2343 55.6358 46.8953 50.1333 46.7937C44.6308 46.6921 39.3123 48.8362 35.3478 52.7544C31.3832 56.6725 29.0974 62.0437 28.9933 67.6864" stroke="#287AF5" stroke-width="2" stroke-linecap="round"/>
</g>
<path d="M56.2869 33.4545C53.0829 41.8963 49.373 43.4453 49 43.3337" stroke="#00B052" stroke-width="3" stroke-linecap="round"/>
<path d="M32.7852 39.8896C41.7845 55.4401 39.9312 64.7925 39.3461 65.4516" stroke="#00B052" stroke-width="4" stroke-linecap="round"/>
<path d="M45 28.5C48.4824 49.5638 41.9919 64.1502 41 64.5" stroke="#19B964" stroke-width="7" stroke-linecap="round"/>
<ellipse cx="44" cy="68.5" rx="38" ry="6" fill="#6E4545"/>
<path d="M18.2498 68.863C17.6676 66.0416 21.6496 66.3909 26.9615 65.9963C32.2733 65.6017 32.7509 66.5796 32.2799 68.3704C31.9802 69.5103 29.7263 70.0749 26.9561 70.2807C23.8746 70.5096 19.2699 70.4313 18.2498 68.863Z" fill="#84E0FE"/>
<path d="M36.3522 17.7499C43.1671 19.6741 48.0459 25.5438 47.4125 28.5048C46.779 31.4658 38.5391 29.6173 31.0391 27.4998C24.2241 25.5756 18.8312 25.0349 19.4647 22.0739C20.0982 19.1129 29.5372 15.8258 36.3522 17.7499Z" fill="#00BB58"/>
<path d="M56 29.0001C48.9909 30.2174 43.295 31.0914 42.6957 28.3185C42.0964 25.5456 47.8395 18.9926 54.2415 17.6086C60.6435 16.2245 70.9426 20.6318 70.4714 23.0659C70.0001 25.5 63.7415 27.6555 56 29.0001Z" fill="#00BB58"/>
</svg>
