<svg width="70" height="70" viewBox="0 0 88 88" fill="none" xmlns="http://www.w3.org/2000/svg">
<path d="M54.7487 52.0903C50.5278 57.1325 46.9816 56.916 46.6686 56.6975" stroke="#0DB25A" stroke-width="2" stroke-linecap="round"/>
<path d="M47.3309 18.377L47.3308 18.3774L47.3368 18.3799C47.642 18.5032 47.8861 18.8644 48.0666 19.3919C48.2462 19.9168 48.3578 20.5924 48.4055 21.3193C48.5009 22.7735 48.3395 24.4176 47.9694 25.4446C47.5991 26.472 46.9815 27.2648 46.3614 27.7454C46.0512 27.9858 45.7418 28.1471 45.4636 28.2212C45.1845 28.2957 44.9426 28.281 44.7633 28.1788C44.5834 28.0763 44.3939 27.8395 44.2224 27.4993C44.0518 27.1608 43.9025 26.7271 43.8001 26.2414C43.5953 25.2696 43.5795 24.0972 43.9488 23.0727C44.3206 22.041 44.9854 20.7545 45.6537 19.7817C45.9879 19.2951 46.3216 18.8892 46.6184 18.6329C46.767 18.5047 46.9043 18.4156 47.0263 18.3716C47.1484 18.3276 47.2497 18.3307 47.3309 18.377Z" fill="#00B756" stroke="#144D00" stroke-width="0.1"/>
<path d="M40.1091 18.192C44.5984 19.6075 46.0714 23.0859 45.6701 25.2829C45.2687 27.4799 38.6543 26.875 34.0781 25.9884C29.5025 25.102 26.3146 22.7492 26.63 21.5431C28.6468 18.3812 35.6198 16.7765 40.1091 18.192Z" fill="#179741"/>
<path d="M37.2987 55.1662C46.7967 66.6634 42.8137 74.9681 41.9264 75.6403" stroke="#0DB25A" stroke-width="2.5" stroke-linecap="round"/>
<path d="M39.3286 40.4406C45.9146 50.7658 45.1786 56.5504 44.8329 56.9314" stroke="#0DB25A" stroke-width="1.5" stroke-linecap="round"/>
<path d="M44.8886 26.5C46.978 63.0106 43.0957 77.8938 42.5006 78.5" stroke="#119D53" stroke-width="4" stroke-linecap="round"/>
<ellipse cx="43.5006" cy="80.5" rx="38" ry="6" fill="#6E4545"/>
<path d="M42.4401 18.3867L42.4401 18.3867C42.5313 18.3609 42.6529 18.377 42.8024 18.4386C42.9509 18.4997 43.1206 18.6031 43.3044 18.7423C43.672 19.0204 44.0903 19.437 44.5 19.9283C45.3201 20.9119 46.0985 22.1859 46.3675 23.2326C46.6368 24.2805 46.5825 25.3348 46.3554 26.1559C46.2419 26.5665 46.0856 26.9171 45.9064 27.1789C45.7267 27.4417 45.5275 27.6097 45.33 27.6655C45.1319 27.7215 44.8527 27.6835 44.5312 27.5543C44.2113 27.4257 43.8562 27.2096 43.5097 26.9196C42.8165 26.3395 42.1629 25.4682 41.8944 24.4234C41.6246 23.3735 41.5562 21.9153 41.6623 20.6889C41.7153 20.0758 41.8117 19.5235 41.947 19.1108C42.0147 18.9043 42.0914 18.735 42.1758 18.6109C42.2605 18.4863 42.3494 18.4123 42.4401 18.3867Z" fill="#00B756" stroke="#144D00" stroke-width="0.1"/>
<mask id="path-9-inside-1_580_2065" fill="white">
<path fill-rule="evenodd" clip-rule="evenodd" d="M22.501 34.6993C20.6127 33.0225 19.0496 30.5218 18.0014 27.5005C16.9532 30.5218 15.3901 33.0225 13.5017 34.6993C15.3901 36.3761 16.9532 38.8768 18.0014 41.8981C19.0496 38.8768 20.6127 36.3761 22.501 34.6993Z"/>
</mask>
<path fill-rule="evenodd" clip-rule="evenodd" d="M22.501 34.6993C20.6127 33.0225 19.0496 30.5218 18.0014 27.5005C16.9532 30.5218 15.3901 33.0225 13.5017 34.6993C15.3901 36.3761 16.9532 38.8768 18.0014 41.8981C19.0496 38.8768 20.6127 36.3761 22.501 34.6993Z" fill="url(#paint0_linear_580_2065)"/>
<path d="M22.501 34.6993L22.5674 34.7741L22.6516 34.6993L22.5674 34.6245L22.501 34.6993ZM18.0014 27.5005L18.0958 27.4677L18.0014 27.1954L17.9069 27.4677L18.0014 27.5005ZM13.5017 34.6993L13.4353 34.6245L13.3511 34.6993L13.4353 34.7741L13.5017 34.6993ZM18.0014 41.8981L17.9069 41.9309L18.0014 42.2032L18.0958 41.9309L18.0014 41.8981ZM22.5674 34.6245C20.6948 32.9618 19.1399 30.4771 18.0958 27.4677L17.9069 27.5333C18.9592 30.5665 20.5305 33.0833 22.4346 34.7741L22.5674 34.6245ZM13.5681 34.7741C15.4722 33.0833 17.0435 30.5665 18.0958 27.5333L17.9069 27.4677C16.8628 30.4771 15.3079 32.9618 13.4353 34.6245L13.5681 34.7741ZM18.0958 41.8653C17.0435 38.8321 15.4722 36.3153 13.5681 34.6245L13.4353 34.7741C15.3079 36.4368 16.8628 38.9215 17.9069 41.9309L18.0958 41.8653ZM22.4346 34.6245C20.5305 36.3153 18.9592 38.8321 17.9069 41.8653L18.0958 41.9309C19.1399 38.9215 20.6948 36.4368 22.5674 34.7741L22.4346 34.6245Z" fill="#737373" mask="url(#path-9-inside-1_580_2065)"/>
<mask id="path-11-inside-2_580_2065" fill="white">
<path fill-rule="evenodd" clip-rule="evenodd" d="M82.4994 37.6979C80.6111 36.0214 79.0481 33.5209 78 30.5C76.9519 33.5209 75.3889 36.0214 73.5006 37.6979C75.3889 39.3744 76.9519 41.8748 78 44.8958C79.0481 41.8748 80.6111 39.3744 82.4994 37.6979Z"/>
</mask>
<path fill-rule="evenodd" clip-rule="evenodd" d="M82.4994 37.6979C80.6111 36.0214 79.0481 33.5209 78 30.5C76.9519 33.5209 75.3889 36.0214 73.5006 37.6979C75.3889 39.3744 76.9519 41.8748 78 44.8958C79.0481 41.8748 80.6111 39.3744 82.4994 37.6979Z" fill="url(#paint1_linear_580_2065)"/>
<path d="M82.4994 37.6979L82.5658 37.7727L82.65 37.6979L82.5658 37.6231L82.4994 37.6979ZM78 30.5L78.0945 30.4672L78 30.1949L77.9055 30.4672L78 30.5ZM73.5006 37.6979L73.4342 37.6231L73.35 37.6979L73.4342 37.7727L73.5006 37.6979ZM78 44.8958L77.9055 44.9285L78 45.2008L78.0945 44.9285L78 44.8958ZM82.5658 37.6231C80.6933 35.9606 79.1384 33.4762 78.0945 30.4672L77.9055 30.5328C78.9578 33.5657 80.529 36.0822 82.433 37.7727L82.5658 37.6231ZM73.567 37.7727C75.4711 36.0822 77.0423 33.5657 78.0945 30.5328L77.9055 30.4672C76.8616 33.4762 75.3067 35.9606 73.4342 37.6231L73.567 37.7727ZM78.0945 44.863C77.0423 41.8301 75.4711 39.3136 73.567 37.6231L73.4342 37.7727C75.3067 39.4351 76.8616 41.9195 77.9055 44.9285L78.0945 44.863ZM82.433 37.6231C80.529 39.3136 78.9578 41.8301 77.9055 44.863L78.0945 44.9285C79.1384 41.9195 80.6933 39.4351 82.5658 37.7727L82.433 37.6231Z" fill="#737373" mask="url(#path-11-inside-2_580_2065)"/>
<mask id="path-13-inside-3_580_2065" fill="white">
<path fill-rule="evenodd" clip-rule="evenodd" d="M60.4999 8.16556C58.8213 6.61312 57.4318 4.29756 56.5002 1.5C55.5687 4.29756 54.1792 6.61312 52.5006 8.16556C54.1792 9.71799 55.5687 12.0336 56.5002 14.8311C57.4318 12.0336 58.8213 9.71799 60.4999 8.16556Z"/>
</mask>
<path fill-rule="evenodd" clip-rule="evenodd" d="M60.4999 8.16556C58.8213 6.61312 57.4318 4.29756 56.5002 1.5C55.5687 4.29756 54.1792 6.61312 52.5006 8.16556C54.1792 9.71799 55.5687 12.0336 56.5002 14.8311C57.4318 12.0336 58.8213 9.71799 60.4999 8.16556Z" fill="url(#paint2_linear_580_2065)"/>
<path d="M60.4999 8.16556L60.5678 8.23898L60.6472 8.16556L60.5678 8.09214L60.4999 8.16556ZM56.5002 1.5L56.5951 1.46841L56.5002 1.18349L56.4054 1.46841L56.5002 1.5ZM52.5006 8.16556L52.4327 8.09214L52.3533 8.16556L52.4327 8.23898L52.5006 8.16556ZM56.5002 14.8311L56.4054 14.8627L56.5002 15.1476L56.5951 14.8627L56.5002 14.8311ZM60.5678 8.09214C58.9046 6.554 57.5229 4.25449 56.5951 1.46841L56.4054 1.53159C57.3408 4.34064 58.7379 6.67225 60.432 8.23898L60.5678 8.09214ZM52.5685 8.23898C54.2626 6.67225 55.6597 4.34064 56.5951 1.53159L56.4054 1.46841C55.4776 4.25449 54.0959 6.554 52.4327 8.09214L52.5685 8.23898ZM56.5951 14.7995C55.6597 11.9905 54.2626 9.65887 52.5685 8.09214L52.4327 8.23898C54.0959 9.77712 55.4776 12.0766 56.4054 14.8627L56.5951 14.7995ZM60.432 8.09214C58.7379 9.65887 57.3408 11.9905 56.4054 14.7995L56.5951 14.8627C57.5229 12.0766 58.9046 9.77712 60.5678 8.23898L60.432 8.09214Z" fill="#737373" mask="url(#path-13-inside-3_580_2065)"/>
<path d="M31.1298 50.6532C35.536 50.7111 38.9953 53.7932 38.7989 55.913C38.6025 58.0329 34.3479 61.9991 29.9418 61.9412C25.5356 61.8833 18.7123 59.5685 18.7215 58.4377C18.7417 55.939 26.7237 50.5953 31.1298 50.6532Z" fill="#179741"/>
<path d="M35.8043 37.6016C38.7265 37.64 41.0274 39.6121 40.9018 40.9678C40.7763 42.3234 38.7268 43.6835 35.8046 43.6451C32.8824 43.6067 27.5888 43.2993 27.5924 42.5762C27.6004 40.9782 32.8822 37.5632 35.8043 37.6016Z" fill="#0B9D4F"/>
<path d="M59.3357 55.293C55.7431 54.84 53.1523 53.4093 53.5449 51.5178C53.9375 49.6263 58.7806 45.6261 62.7179 45.466C66.9452 45.294 72.6501 48.2663 73.6219 52.1366C72.8355 53.8853 62.9283 55.746 59.3357 55.293Z" fill="#179741"/>
<path d="M50.5006 27.9998C46.7771 27.3843 44.7499 26.6126 45.1884 24.8439C45.627 23.0752 50.7217 19.5436 54.8131 19.5971C59.2059 19.6545 64.0006 21 66.0279 26.4744C64.5006 28.9998 54.2241 28.6153 50.5006 27.9998Z" fill="#179741"/>
<defs>
<linearGradient id="paint0_linear_580_2065" x1="18.0014" y1="27.5005" x2="18.0014" y2="41.8981" gradientUnits="userSpaceOnUse">
<stop stop-color="#FBFF40"/>
<stop offset="1" stop-color="#F2F705"/>
</linearGradient>
<linearGradient id="paint1_linear_580_2065" x1="78" y1="30.5" x2="78" y2="44.8958" gradientUnits="userSpaceOnUse">
<stop stop-color="#FBFF40"/>
<stop offset="1" stop-color="#F2F705"/>
</linearGradient>
<linearGradient id="paint2_linear_580_2065" x1="56.5002" y1="1.5" x2="56.5002" y2="14.8311" gradientUnits="userSpaceOnUse">
<stop stop-color="#FBFF40"/>
<stop offset="1" stop-color="#F2F705"/>
</linearGradient>
</defs>
</svg>
