<svg width="70" height="70" viewBox="0 0 88 88" fill="none" xmlns="http://www.w3.org/2000/svg">
<ellipse cx="44" cy="44.8579" rx="32" ry="20.5" fill="#84E0FE"/>
<path d="M44.8956 47.0308C31.6103 46.6293 28.2493 39.3159 28.302 38.358" stroke="url(#paint0_linear_580_2066)" stroke-width="2" stroke-linecap="round"/>
<path d="M43.796 41.3579C44.4925 53.2941 43.1984 58.1597 43 58.3579" stroke="url(#paint1_linear_580_2066)" stroke-width="6" stroke-linecap="round"/>
<mask id="path-4-inside-1_580_2066" fill="white">
<path fill-rule="evenodd" clip-rule="evenodd" d="M35.5727 43.0842C37.4275 43.0842 39.1156 42.6823 40.3768 42.0249C42.3975 43.3855 45.1329 44.2209 48.1444 44.2209C49.1725 44.2209 50.1684 44.1235 51.1147 43.9411C52.4118 44.8075 54.3541 45.3578 56.5248 45.3578C60.43 45.3578 63.5958 43.5764 63.5958 41.3789C63.5958 41.1242 63.5533 40.875 63.472 40.6336C65.735 40.1318 66.9999 38.6194 66.9999 36.8316C66.9999 33.5919 65.7329 32.99 63.4664 32.8782C63.8794 32.1896 64.1194 31.4859 64.1194 30.863C64.1194 29.188 62.3843 28.5803 60.2141 28.3861C60.3706 27.7656 60.4532 27.163 60.4532 26.5998C60.4532 24.0572 58.7693 22.9177 56.2056 22.4199C55.2194 20.5415 53.4643 19.3579 51.8077 19.3579C50.9271 19.3579 50.1924 19.6924 49.6109 20.2879C49.5146 19.3562 49.0409 18.8579 47.4995 18.8579C46.6201 18.8579 45.5016 19.2708 44.56 20.0477C43.682 19.1476 42.4495 18.6421 40.8098 18.6421C37.3542 18.6421 33.2477 20.8871 32.3478 24.3403C28.9794 24.4364 26.406 25.1235 26.406 29.1579C26.406 29.8007 26.5898 30.4142 26.9233 30.9753C25.7779 31.585 25.0973 32.4895 25.0973 33.7053C25.0973 34.4966 25.3856 35.3253 25.9027 36.0893C25.4008 36.1036 25.1465 36.2738 25.0974 36.8314C25.0618 37.2348 25.1407 37.7621 25.3617 38.192C24.1859 39.0806 23.8599 40.2291 24.0511 41.3788C24.3616 43.246 25.9188 44.4092 29.7619 43.6566C30.8336 43.4467 31.8291 43.1302 32.7009 42.7424C33.5784 42.9621 34.5502 43.0842 35.5727 43.0842Z"/>
</mask>
<path fill-rule="evenodd" clip-rule="evenodd" d="M35.5727 43.0842C37.4275 43.0842 39.1156 42.6823 40.3768 42.0249C42.3975 43.3855 45.1329 44.2209 48.1444 44.2209C49.1725 44.2209 50.1684 44.1235 51.1147 43.9411C52.4118 44.8075 54.3541 45.3578 56.5248 45.3578C60.43 45.3578 63.5958 43.5764 63.5958 41.3789C63.5958 41.1242 63.5533 40.875 63.472 40.6336C65.735 40.1318 66.9999 38.6194 66.9999 36.8316C66.9999 33.5919 65.7329 32.99 63.4664 32.8782C63.8794 32.1896 64.1194 31.4859 64.1194 30.863C64.1194 29.188 62.3843 28.5803 60.2141 28.3861C60.3706 27.7656 60.4532 27.163 60.4532 26.5998C60.4532 24.0572 58.7693 22.9177 56.2056 22.4199C55.2194 20.5415 53.4643 19.3579 51.8077 19.3579C50.9271 19.3579 50.1924 19.6924 49.6109 20.2879C49.5146 19.3562 49.0409 18.8579 47.4995 18.8579C46.6201 18.8579 45.5016 19.2708 44.56 20.0477C43.682 19.1476 42.4495 18.6421 40.8098 18.6421C37.3542 18.6421 33.2477 20.8871 32.3478 24.3403C28.9794 24.4364 26.406 25.1235 26.406 29.1579C26.406 29.8007 26.5898 30.4142 26.9233 30.9753C25.7779 31.585 25.0973 32.4895 25.0973 33.7053C25.0973 34.4966 25.3856 35.3253 25.9027 36.0893C25.4008 36.1036 25.1465 36.2738 25.0974 36.8314C25.0618 37.2348 25.1407 37.7621 25.3617 38.192C24.1859 39.0806 23.8599 40.2291 24.0511 41.3788C24.3616 43.246 25.9188 44.4092 29.7619 43.6566C30.8336 43.4467 31.8291 43.1302 32.7009 42.7424C33.5784 42.9621 34.5502 43.0842 35.5727 43.0842Z" fill="url(#paint2_linear_580_2066)"/>
<path d="M40.3768 42.0249L40.4327 41.9419L40.3834 41.9087L40.3306 41.9362L40.3768 42.0249ZM51.1147 43.9411L51.1703 43.858L51.1361 43.8352L51.0958 43.843L51.1147 43.9411ZM63.472 40.6336L63.4504 40.536L63.3417 40.5601L63.3772 40.6655L63.472 40.6336ZM63.4664 32.8782L63.3806 32.8268L63.2948 32.9699L63.4614 32.9781L63.4664 32.8782ZM60.2141 28.3861L60.1171 28.3616L60.0884 28.4752L60.2052 28.4857L60.2141 28.3861ZM56.2056 22.4199L56.1171 22.4664L56.1394 22.5089L56.1866 22.5181L56.2056 22.4199ZM49.6109 20.2879L49.5115 20.2982L49.5334 20.5105L49.6825 20.3578L49.6109 20.2879ZM44.56 20.0477L44.4885 20.1176L44.5527 20.1834L44.6237 20.1249L44.56 20.0477ZM32.3478 24.3403L32.3507 24.4402L32.4257 24.4381L32.4446 24.3655L32.3478 24.3403ZM26.9233 30.9753L26.9703 31.0635L27.0628 31.0143L27.0093 30.9242L26.9233 30.9753ZM25.9027 36.0893L25.9055 36.1892L26.0876 36.184L25.9855 36.0332L25.9027 36.0893ZM25.0974 36.8314L25.197 36.8401L25.0974 36.8314ZM25.3617 38.192L25.422 38.2717L25.4891 38.221L25.4507 38.1462L25.3617 38.192ZM24.0511 41.3788L24.1497 41.3624H24.1497L24.0511 41.3788ZM29.7619 43.6566L29.7427 43.5584L29.7619 43.6566ZM32.7009 42.7424L32.7252 42.6454L32.6918 42.637L32.6603 42.651L32.7009 42.7424ZM40.3306 41.9362C39.0858 42.5851 37.4141 42.9842 35.5727 42.9842V43.1842C37.4409 43.1842 39.1453 42.7796 40.4231 42.1135L40.3306 41.9362ZM48.1444 44.1209C45.1506 44.1209 42.4351 43.2903 40.4327 41.9419L40.321 42.1078C42.3598 43.4808 45.1152 44.3209 48.1444 44.3209V44.1209ZM51.0958 43.843C50.1558 44.0241 49.1662 44.1209 48.1444 44.1209V44.3209C49.1788 44.3209 50.1811 44.2229 51.1337 44.0393L51.0958 43.843ZM56.5248 45.2578C54.369 45.2578 52.4473 44.7109 51.1703 43.858L51.0592 44.0243C52.3764 44.904 54.3392 45.4578 56.5248 45.4578V45.2578ZM63.4958 41.3789C63.4958 42.4255 62.7409 43.3934 61.4757 44.1053C60.2137 44.8155 58.4635 45.2578 56.5248 45.2578V45.4578C58.4913 45.4578 60.2766 45.0095 61.5738 44.2796C62.8679 43.5514 63.6958 42.5298 63.6958 41.3789H63.4958ZM63.3772 40.6655C63.4552 40.8971 63.4958 41.1355 63.4958 41.3789H63.6958C63.6958 41.1129 63.6514 40.853 63.5668 40.6017L63.3772 40.6655ZM66.8999 36.8316C66.8999 38.563 65.6775 40.0421 63.4504 40.536L63.4937 40.7312C65.7924 40.2215 67.0999 38.6758 67.0999 36.8316H66.8999ZM63.4614 32.9781C64.5926 33.0339 65.4426 33.212 66.0142 33.7545C66.584 34.2951 66.8999 35.2204 66.8999 36.8316H67.0999C67.0999 35.2031 66.7823 34.2076 66.1519 33.6094C65.5234 33.013 64.6067 32.8343 63.4713 32.7783L63.4614 32.9781ZM64.0194 30.863C64.0194 31.4619 63.788 32.1476 63.3806 32.8268L63.5521 32.9296C63.9708 32.2316 64.2193 31.51 64.2193 30.863H64.0194ZM60.2052 28.4857C61.2864 28.5825 62.246 28.7815 62.9326 29.157C63.6129 29.529 64.0194 30.0697 64.0194 30.863H64.2193C64.2193 29.9813 63.7583 29.3806 63.0285 28.9815C62.305 28.5858 61.312 28.384 60.223 28.2865L60.2052 28.4857ZM60.3532 26.5998C60.3532 27.1534 60.272 27.7478 60.1171 28.3616L60.311 28.4105C60.4692 27.7835 60.5532 27.1726 60.5532 26.5998H60.3532ZM56.1866 22.5181C57.4606 22.7655 58.502 23.17 59.224 23.8175C59.9419 24.4613 60.3532 25.3535 60.3532 26.5998H60.5532C60.5532 25.3035 60.1226 24.3547 59.3576 23.6686C58.5967 22.9863 57.5143 22.5722 56.2247 22.3218L56.1866 22.5181ZM51.8077 19.4579C53.4182 19.4579 55.1435 20.6122 56.1171 22.4664L56.2942 22.3734C55.2952 20.4709 53.5104 19.2579 51.8077 19.2579V19.4579ZM49.6825 20.3578C50.2461 19.7806 50.9552 19.4579 51.8077 19.4579V19.2579C50.8989 19.2579 50.1388 19.6042 49.5394 20.2181L49.6825 20.3578ZM47.4995 18.9579C48.2632 18.9579 48.7403 19.0821 49.0373 19.3037C49.3292 19.5214 49.4648 19.8468 49.5115 20.2982L49.7104 20.2776C49.6608 19.7973 49.5113 19.4077 49.1569 19.1433C48.8077 18.8828 48.2772 18.7579 47.4995 18.7579V18.9579ZM44.6237 20.1249C45.5509 19.3598 46.6476 18.9579 47.4995 18.9579V18.7579C46.5926 18.7579 45.4523 19.1819 44.4964 19.9706L44.6237 20.1249ZM40.8098 18.7421C42.4275 18.7421 43.6324 19.2399 44.4885 20.1176L44.6316 19.9779C43.7316 19.0552 42.4716 18.5421 40.8098 18.5421V18.7421ZM32.4446 24.3655C32.8864 22.6701 34.1176 21.2643 35.6738 20.2808C37.2299 19.2973 39.1021 18.7421 40.8098 18.7421V18.5421C39.062 18.5421 37.153 19.1093 35.567 20.1117C33.9811 21.114 32.7091 22.5573 32.2511 24.3151L32.4446 24.3655ZM26.506 29.1579C26.506 27.1643 27.1398 26.0209 28.168 25.3562C29.2071 24.6845 30.6672 24.4883 32.3507 24.4402L32.345 24.2403C30.66 24.2884 29.1492 24.4838 28.0595 25.1883C26.9589 25.8997 26.306 27.117 26.306 29.1579H26.506ZM27.0093 30.9242C26.684 30.3771 26.506 29.781 26.506 29.1579H26.306C26.306 29.8204 26.4955 30.4514 26.8373 31.0264L27.0093 30.9242ZM25.1973 33.7053C25.1973 32.5357 25.8485 31.6607 26.9703 31.0635L26.8763 30.887C25.7074 31.5092 24.9973 32.4433 24.9973 33.7053H25.1973ZM25.9855 36.0332C25.4771 35.2821 25.1973 34.4725 25.1973 33.7053H24.9973C24.9973 34.5206 25.2941 35.3685 25.8199 36.1453L25.9855 36.0332ZM25.197 36.8401C25.2205 36.5736 25.2912 36.4222 25.3955 36.3324C25.5016 36.241 25.6621 36.1962 25.9055 36.1892L25.8998 35.9893C25.6414 35.9967 25.4238 36.0442 25.265 36.1808C25.1044 36.3191 25.0234 36.5316 24.9978 36.8226L25.197 36.8401ZM25.4507 38.1462C25.2391 37.7348 25.1629 37.2267 25.197 36.8401L24.9978 36.8226C24.9607 37.2429 25.0423 37.7894 25.2728 38.2377L25.4507 38.1462ZM24.1497 41.3624C23.9642 40.2465 24.2781 39.1362 25.422 38.2717L25.3014 38.1122C24.0937 39.025 23.7556 40.2117 23.9524 41.3952L24.1497 41.3624ZM29.7427 43.5584C27.8302 43.933 26.5051 43.8266 25.6246 43.4097C24.7509 42.9961 24.3006 42.2699 24.1497 41.3624L23.9524 41.3952C24.112 42.355 24.5956 43.1439 25.539 43.5905C26.4755 44.0339 27.8506 44.1328 29.7812 43.7547L29.7427 43.5584ZM32.6603 42.651C31.7957 43.0356 30.8074 43.3499 29.7427 43.5584L29.7812 43.7547C30.8598 43.5434 31.8626 43.2248 32.7415 42.8337L32.6603 42.651ZM35.5727 42.9842C34.5581 42.9842 33.5945 42.863 32.7252 42.6454L32.6766 42.8394C33.5624 43.0612 34.5424 43.1842 35.5727 43.1842V42.9842Z" fill="#BDBDBD" mask="url(#path-4-inside-1_580_2066)"/>
<path d="M55.6878 27.8142L55.6916 27.8274L55.7048 27.8312L56.683 28.1169C56.9854 29.18 56.5018 30.6415 55.3575 31.7858C54.6184 32.5249 53.5212 33.2137 52.4833 33.5915C51.9643 33.7803 51.4615 33.8909 51.0266 33.8919C50.5915 33.8929 50.2272 33.7842 49.981 33.538C49.7348 33.2918 49.6261 32.9276 49.6271 32.4925C49.6281 32.0575 49.7387 31.5547 49.9276 31.0357C50.3053 29.9978 50.9941 28.9006 51.7332 28.1615C52.8775 27.0172 54.3391 26.5337 55.4021 26.836L55.6878 27.8142Z" fill="#FFF2F2" stroke="#6D6D6D" stroke-width="0.05"/>
<mask id="path-7-inside-2_580_2066" fill="white">
<path fill-rule="evenodd" clip-rule="evenodd" d="M45.5429 26.514L46.5757 26.5451L47.1577 25.6912C48.2777 25.7256 49.5321 26.647 50.2723 28.0996C51.2249 29.9692 51.5398 33.1392 50.2664 33.7881C48.993 34.4369 46.6135 32.3189 45.6608 30.4492C44.9208 28.9967 44.9126 27.4404 45.5429 26.514Z"/>
</mask>
<path fill-rule="evenodd" clip-rule="evenodd" d="M45.5429 26.514L46.5757 26.5451L47.1577 25.6912C48.2777 25.7256 49.5321 26.647 50.2723 28.0996C51.2249 29.9692 51.5398 33.1392 50.2664 33.7881C48.993 34.4369 46.6135 32.3189 45.6608 30.4492C44.9208 28.9967 44.9126 27.4404 45.5429 26.514Z" fill="#FFF2F2"/>
<path d="M46.5757 26.5451L46.5742 26.595L46.6016 26.5959L46.617 26.5732L46.5757 26.5451ZM45.5429 26.514L45.5444 26.4641L45.517 26.4632L45.5016 26.4859L45.5429 26.514ZM47.1577 25.6912L47.1593 25.6412L47.1319 25.6403L47.1164 25.663L47.1577 25.6912ZM46.5772 26.4951L45.5444 26.4641L45.5414 26.564L46.5742 26.595L46.5772 26.4951ZM47.1164 25.663L46.5344 26.5169L46.617 26.5732L47.1991 25.7193L47.1164 25.663ZM47.1562 25.7411C48.2518 25.7749 49.4926 26.6796 50.2277 28.1223L50.3168 28.0769C49.5716 26.6144 48.3037 25.6764 47.1593 25.6412L47.1562 25.7411ZM50.2277 28.1223C50.7005 29.0502 51.0157 30.3029 51.0541 31.4034C51.0733 31.9535 51.0232 32.4628 50.8909 32.8731C50.7585 33.2836 50.5458 33.5896 50.2437 33.7435L50.2891 33.8326C50.6236 33.6621 50.8491 33.3285 50.9861 32.9038C51.1231 32.4788 51.1735 31.957 51.154 31.3999C51.1152 30.2857 50.7966 29.0186 50.3168 28.0769L50.2277 28.1223ZM50.2437 33.7435C49.9415 33.8975 49.569 33.8897 49.1591 33.7555C48.7493 33.6214 48.3079 33.3626 47.8741 33.0237C47.0064 32.3458 46.1782 31.3545 45.7054 30.4265L45.6163 30.4719C46.0961 31.4136 46.934 32.4161 47.8125 33.1025C48.2518 33.4457 48.7036 33.7116 49.1279 33.8505C49.552 33.9894 49.9545 34.0031 50.2891 33.8326L50.2437 33.7435ZM45.7054 30.4265C44.9703 28.9839 44.9677 27.4484 45.5843 26.5422L45.5016 26.4859C44.8575 27.4325 44.8712 29.0095 45.6163 30.4719L45.7054 30.4265Z" fill="#6D6D6D" mask="url(#path-7-inside-2_580_2066)"/>
<mask id="path-9-inside-3_580_2066" fill="white">
<path fill-rule="evenodd" clip-rule="evenodd" d="M41.9189 35.8446L42.2682 34.8703L41.6345 34.051C42.0141 32.9972 43.2775 32.0898 44.8869 31.8349C46.9593 31.5066 50.0715 32.1867 50.2951 33.5983C50.5187 35.0099 47.769 36.6184 45.6965 36.9467C44.0875 37.2015 42.6058 36.7292 41.9189 35.8446Z"/>
</mask>
<path fill-rule="evenodd" clip-rule="evenodd" d="M41.9189 35.8446L42.2682 34.8703L41.6345 34.051C42.0141 32.9972 43.2775 32.0898 44.8869 31.8349C46.9593 31.5066 50.0715 32.1867 50.2951 33.5983C50.5187 35.0099 47.769 36.6184 45.6965 36.9467C44.0875 37.2015 42.6058 36.7292 41.9189 35.8446Z" fill="#FFF2F2"/>
<path d="M42.2682 34.8703L42.3152 34.8872L42.3245 34.8614L42.3077 34.8397L42.2682 34.8703ZM41.9189 35.8446L41.8718 35.8278L41.8626 35.8536L41.8794 35.8753L41.9189 35.8446ZM41.6345 34.051L41.5874 34.034L41.5781 34.0599L41.5949 34.0816L41.6345 34.051ZM42.2211 34.8534L41.8718 35.8278L41.966 35.8615L42.3152 34.8872L42.2211 34.8534ZM41.5949 34.0816L42.2286 34.9009L42.3077 34.8397L41.674 34.0204L41.5949 34.0816ZM41.6815 34.0679C42.0529 33.0371 43.2963 32.1374 44.8947 31.8842L44.879 31.7855C43.2587 32.0421 41.9753 32.9573 41.5874 34.034L41.6815 34.0679ZM44.8947 31.8842C45.9233 31.7213 47.2121 31.8087 48.2705 32.1122C48.7997 32.264 49.2685 32.469 49.6179 32.7216C49.9674 32.9744 50.1927 33.2712 50.2457 33.6061L50.3445 33.5905C50.2857 33.2196 50.0381 32.9021 49.6765 32.6406C49.3146 32.3789 48.834 32.1698 48.2981 32.0161C47.2265 31.7087 45.9229 31.6201 44.879 31.7855L44.8947 31.8842ZM50.2457 33.6061C50.2987 33.941 50.1763 34.2929 49.9219 34.6414C49.6678 34.9896 49.2852 35.3294 48.8288 35.6373C47.916 36.2531 46.7173 36.7344 45.6887 36.8973L45.7043 36.996C46.7482 36.8307 47.9605 36.3436 48.8848 35.7202C49.3469 35.4084 49.7394 35.061 50.0027 34.7003C50.2658 34.3399 50.4032 33.9613 50.3445 33.5905L50.2457 33.6061ZM45.6887 36.8973C44.0907 37.1504 42.6303 36.6792 41.9584 35.814L41.8794 35.8753C42.5813 36.7791 44.0844 37.2526 45.7043 36.996L45.6887 36.8973Z" fill="#6D6D6D" mask="url(#path-9-inside-3_580_2066)"/>
<mask id="path-11-inside-4_580_2066" fill="white">
<path fill-rule="evenodd" clip-rule="evenodd" d="M50.5235 41.7236L49.7064 41.0916L48.734 41.4401C47.848 40.754 47.3747 39.2712 47.6298 37.6609C47.958 35.5884 49.5665 32.8387 50.9781 33.0623C52.3897 33.2858 53.0698 36.398 52.7416 38.4705C52.4865 40.0808 51.5781 41.3448 50.5235 41.7236Z"/>
</mask>
<path fill-rule="evenodd" clip-rule="evenodd" d="M50.5235 41.7236L49.7064 41.0916L48.734 41.4401C47.848 40.754 47.3747 39.2712 47.6298 37.6609C47.958 35.5884 49.5665 32.8387 50.9781 33.0623C52.3897 33.2858 53.0698 36.398 52.7416 38.4705C52.4865 40.0808 51.5781 41.3448 50.5235 41.7236Z" fill="#FFF2F2"/>
<path d="M49.7064 41.0916L49.737 41.052L49.7153 41.0353L49.6895 41.0445L49.7064 41.0916ZM50.5235 41.7236L50.4929 41.7631L50.5146 41.7799L50.5404 41.7706L50.5235 41.7236ZM48.734 41.4401L48.7034 41.4797L48.725 41.4965L48.7509 41.4872L48.734 41.4401ZM49.6758 41.1311L50.4929 41.7631L50.5541 41.684L49.737 41.052L49.6758 41.1311ZM48.7509 41.4872L49.7233 41.1387L49.6895 41.0445L48.7171 41.3931L48.7509 41.4872ZM48.7646 41.4006C47.898 40.7294 47.4258 39.268 47.6791 37.6687L47.5804 37.653C47.3236 39.2743 47.7981 40.7786 48.7034 41.4797L48.7646 41.4006ZM47.6791 37.6687C47.8421 36.6401 48.3234 35.4413 48.9391 34.5285C49.247 34.0721 49.5869 33.6896 49.9351 33.4354C50.2835 33.1811 50.6354 33.0586 50.9703 33.1116L50.9859 33.0129C50.6151 32.9541 50.2365 33.0915 49.8761 33.3546C49.5154 33.6179 49.168 34.0104 48.8562 34.4726C48.2328 35.3968 47.7457 36.6092 47.5804 37.653L47.6791 37.6687ZM50.9703 33.1116C51.3052 33.1647 51.602 33.3899 51.8548 33.7395C52.1074 34.0888 52.3125 34.5577 52.4642 35.0868C52.7678 36.1453 52.8551 37.4341 52.6922 38.4627L52.7909 38.4783C52.9563 37.4344 52.8677 36.1309 52.5603 35.0593C52.4067 34.5234 52.1975 34.0427 51.9358 33.6809C51.6744 33.3193 51.3568 33.0716 50.9859 33.0129L50.9703 33.1116ZM52.6922 38.4627C52.4389 40.062 51.5382 41.306 50.5066 41.6765L50.5404 41.7706C51.618 41.3836 52.5342 40.0996 52.7909 38.4783L52.6922 38.4627Z" fill="#6D6D6D" mask="url(#path-11-inside-4_580_2066)"/>
<mask id="path-13-inside-5_580_2066" fill="white">
<path fill-rule="evenodd" clip-rule="evenodd" d="M58.054 36.5863L57.2 37.1684L57.231 38.201C56.3046 38.8312 54.7484 38.8231 53.2959 38.083C51.4263 37.1304 49.3083 34.7509 49.9571 33.4775C50.6059 32.2041 53.776 32.519 55.6456 33.4716C57.0982 34.2117 58.0196 35.4662 58.054 36.5863Z"/>
</mask>
<path fill-rule="evenodd" clip-rule="evenodd" d="M58.054 36.5863L57.2 37.1684L57.231 38.201C56.3046 38.8312 54.7484 38.8231 53.2959 38.083C51.4263 37.1304 49.3083 34.7509 49.9571 33.4775C50.6059 32.2041 53.776 32.519 55.6456 33.4716C57.0982 34.2117 58.0196 35.4662 58.054 36.5863Z" fill="#FFF2F2"/>
<path d="M57.2 37.1684L57.1718 37.1271L57.1492 37.1426L57.15 37.1699L57.2 37.1684ZM58.054 36.5863L58.0822 36.6276L58.1048 36.6122L58.104 36.5848L58.054 36.5863ZM57.231 38.201L57.2591 38.2424L57.2818 38.2269L57.281 38.1995L57.231 38.201ZM57.2281 37.2098L58.0822 36.6276L58.0259 36.545L57.1718 37.1271L57.2281 37.2098ZM57.281 38.1995L57.2499 37.1669L57.15 37.1699L57.181 38.2025L57.281 38.1995ZM57.2028 38.1597C56.2966 38.7762 54.7612 38.7735 53.3186 38.0385L53.2732 38.1276C54.7355 38.8726 56.3125 38.8863 57.2591 38.2424L57.2028 38.1597ZM53.3186 38.0385C52.3907 37.5657 51.3994 36.7375 50.7215 35.8698C50.3826 35.4359 50.1238 34.9945 49.9897 34.5848C49.8555 34.1748 49.8477 33.8023 50.0017 33.5002L49.9126 33.4548C49.7421 33.7893 49.7558 34.1918 49.8946 34.6159C50.0336 35.0403 50.2995 35.492 50.6427 35.9313C51.329 36.8099 52.3315 37.6477 53.2732 38.1276L53.3186 38.0385ZM50.0017 33.5002C50.1556 33.198 50.4615 32.9853 50.8721 32.853C51.2824 32.7207 51.7916 32.6705 52.3418 32.6897C53.4423 32.7281 54.695 33.0433 55.6229 33.5161L55.6683 33.427C54.7266 32.9472 53.4595 32.6287 52.3453 32.5898C51.7881 32.5704 51.2664 32.6208 50.8414 32.7578C50.4167 32.8947 50.083 33.1202 49.9126 33.4548L50.0017 33.5002ZM55.6229 33.5161C57.0656 34.2513 57.9704 35.4922 58.004 36.5878L58.104 36.5848C58.0689 35.4403 57.1308 34.1722 55.6683 33.427L55.6229 33.5161Z" fill="#6D6D6D" mask="url(#path-13-inside-5_580_2066)"/>
<circle cx="49.9648" cy="33.5555" r="1.70017" transform="rotate(45 49.9648 33.5555)" fill="#FF9292" stroke="#6D6D6D" stroke-width="0.05"/>
<ellipse cx="44" cy="63.3584" rx="38" ry="6" fill="#13B55A"/>
<defs>
<linearGradient id="paint0_linear_580_2066" x1="45.281" y1="45.6898" x2="27.651" y2="40.6235" gradientUnits="userSpaceOnUse">
<stop stop-color="#A75D5D"/>
<stop offset="1" stop-color="#845941"/>
</linearGradient>
<linearGradient id="paint1_linear_580_2066" x1="43.5" y1="41.3579" x2="43.5" y2="58.3579" gradientUnits="userSpaceOnUse">
<stop stop-color="#A75D5D"/>
<stop offset="1" stop-color="#845941"/>
</linearGradient>
<linearGradient id="paint2_linear_580_2066" x1="45.4999" y1="18.6421" x2="45.5001" y2="47.5436" gradientUnits="userSpaceOnUse">
<stop stop-color="#FFE3E3"/>
<stop offset="1" stop-color="#F7BEBE"/>
</linearGradient>
</defs>
</svg>
