<svg width="70" height="70" viewBox="0 0 88 88" fill="none" xmlns="http://www.w3.org/2000/svg">
<ellipse cx="44" cy="45.4053" rx="36" ry="26.5" fill="#B1ECFF"/>
<path d="M61.422 46.1121C52.7722 54.8011 47.3236 55.9504 46.9242 55.7764" stroke="#976565" stroke-width="2.5" stroke-linecap="round"/>
<path d="M45.3732 52.8269C32.0729 52.4777 28.7398 45.0671 28.7968 44.0944" stroke="#976565" stroke-width="3" stroke-linecap="round"/>
<path d="M44.796 47.0942C45.4925 59.0304 44.1984 63.896 44 64.0942" stroke="url(#paint0_linear_580_2067)" stroke-width="7" stroke-linecap="round"/>
<mask id="path-5-inside-1_580_2067" fill="white">
<path fill-rule="evenodd" clip-rule="evenodd" d="M29.2691 47.7941C32.0298 47.7941 34.5422 47.2108 36.4194 46.2566C39.4269 48.2316 43.4984 49.4441 47.9808 49.4441C49.5484 49.4441 51.0658 49.2958 52.5049 49.0184C54.3381 50.1746 57.0362 50.9053 60.0446 50.9053C65.5674 50.9053 71.5446 48.4428 71.5446 45.4053C71.5446 45.2399 71.5268 45.0763 71.4925 44.9147C73.1509 43.3555 74.0446 41.018 74.0446 38.4053C74.0446 33.1371 72.9363 31.134 70.8979 30.3725C71.4565 28.4853 71.4504 26.5358 70.5446 24.9052C68.7005 21.5859 67.9961 21.5312 65.955 21.731C65.2451 19.7776 63.4835 18.6652 61.0538 18.0395C59.355 16.0933 56.81 14.9053 54.3912 14.9053C53.481 14.9053 52.6645 15.0735 51.9443 15.3869C50.6199 13.2494 48.1407 11.9053 45.045 11.9053C43.427 11.9053 41.8523 12.2725 40.4843 12.9282C39.5109 12.5296 38.3747 12.3179 37.0636 12.3179C32.3997 12.3179 26.9391 14.9972 24.963 19.2338C22.0612 19.8248 20.0859 21.4414 20.0456 25.7695C17.596 26.8089 16.045 28.799 16.045 31.8115C16.045 32.0524 16.0549 32.2951 16.0744 32.5388C15.7127 32.8072 15.3795 33.2578 15.0474 33.9383C14.0968 35.8861 13.4607 39.0904 14.6405 40.6832C14.4317 41.6511 14.4423 42.6835 14.6202 43.727C15.2435 47.3823 17.684 49.7902 23.4042 48.6977C24.6343 48.4628 25.791 48.1004 26.8428 47.6398C27.6217 47.7407 28.434 47.7941 29.2691 47.7941Z"/>
</mask>
<path fill-rule="evenodd" clip-rule="evenodd" d="M29.2691 47.7941C32.0298 47.7941 34.5422 47.2108 36.4194 46.2566C39.4269 48.2316 43.4984 49.4441 47.9808 49.4441C49.5484 49.4441 51.0658 49.2958 52.5049 49.0184C54.3381 50.1746 57.0362 50.9053 60.0446 50.9053C65.5674 50.9053 71.5446 48.4428 71.5446 45.4053C71.5446 45.2399 71.5268 45.0763 71.4925 44.9147C73.1509 43.3555 74.0446 41.018 74.0446 38.4053C74.0446 33.1371 72.9363 31.134 70.8979 30.3725C71.4565 28.4853 71.4504 26.5358 70.5446 24.9052C68.7005 21.5859 67.9961 21.5312 65.955 21.731C65.2451 19.7776 63.4835 18.6652 61.0538 18.0395C59.355 16.0933 56.81 14.9053 54.3912 14.9053C53.481 14.9053 52.6645 15.0735 51.9443 15.3869C50.6199 13.2494 48.1407 11.9053 45.045 11.9053C43.427 11.9053 41.8523 12.2725 40.4843 12.9282C39.5109 12.5296 38.3747 12.3179 37.0636 12.3179C32.3997 12.3179 26.9391 14.9972 24.963 19.2338C22.0612 19.8248 20.0859 21.4414 20.0456 25.7695C17.596 26.8089 16.045 28.799 16.045 31.8115C16.045 32.0524 16.0549 32.2951 16.0744 32.5388C15.7127 32.8072 15.3795 33.2578 15.0474 33.9383C14.0968 35.8861 13.4607 39.0904 14.6405 40.6832C14.4317 41.6511 14.4423 42.6835 14.6202 43.727C15.2435 47.3823 17.684 49.7902 23.4042 48.6977C24.6343 48.4628 25.791 48.1004 26.8428 47.6398C27.6217 47.7407 28.434 47.7941 29.2691 47.7941Z" fill="url(#paint1_linear_580_2067)"/>
<path d="M36.4194 46.2566L36.4743 46.173L36.4258 46.1411L36.3741 46.1674L36.4194 46.2566ZM52.5049 49.0184L52.5583 48.9338L52.5248 48.9128L52.486 48.9202L52.5049 49.0184ZM71.4925 44.9147L71.424 44.8418L71.3829 44.8804L71.3947 44.9355L71.4925 44.9147ZM70.8979 30.3725L70.802 30.3441L70.7756 30.4335L70.8629 30.4661L70.8979 30.3725ZM70.5446 24.9052L70.632 24.8567V24.8567L70.5446 24.9052ZM65.955 21.731L65.861 21.7651L65.8875 21.838L65.9647 21.8305L65.955 21.731ZM61.0538 18.0395L60.9785 18.1053L60.9989 18.1286L61.0289 18.1363L61.0538 18.0395ZM51.9443 15.3869L51.8593 15.4396L51.9049 15.5132L51.9842 15.4786L51.9443 15.3869ZM40.4843 12.9282L40.4464 13.0207L40.4875 13.0376L40.5276 13.0184L40.4843 12.9282ZM24.963 19.2338L24.9829 19.3318L25.0323 19.3217L25.0536 19.2761L24.963 19.2338ZM20.0456 25.7695L20.0847 25.8616L20.145 25.836L20.1456 25.7704L20.0456 25.7695ZM16.0744 32.5388L16.134 32.6191L16.1785 32.5861L16.1741 32.5308L16.0744 32.5388ZM15.0474 33.9383L15.1373 33.9821L15.0474 33.9383ZM14.6405 40.6832L14.7382 40.7043L14.7477 40.66L14.7208 40.6237L14.6405 40.6832ZM14.6202 43.727L14.5216 43.7438L14.6202 43.727ZM23.4042 48.6977L23.3854 48.5995L23.4042 48.6977ZM26.8428 47.6398L26.8556 47.5407L26.8281 47.5371L26.8027 47.5482L26.8428 47.6398ZM36.3741 46.1674C34.5131 47.1134 32.0167 47.6941 29.2691 47.6941V47.8941C32.0428 47.8941 34.5712 47.3082 36.4647 46.3457L36.3741 46.1674ZM47.9808 49.3441C43.5156 49.3441 39.4637 48.1361 36.4743 46.173L36.3645 46.3402C39.3902 48.3271 43.4812 49.5441 47.9808 49.5441V49.3441ZM52.486 48.9202C51.0531 49.1964 49.5421 49.3441 47.9808 49.3441V49.5441C49.5547 49.5441 51.0784 49.3952 52.5238 49.1166L52.486 48.9202ZM60.0446 50.8053C57.0506 50.8053 54.3721 50.0778 52.5583 48.9338L52.4516 49.103C54.3042 50.2715 57.0219 51.0053 60.0446 51.0053V50.8053ZM71.4446 45.4053C71.4446 46.1299 71.0883 46.8296 70.453 47.476C69.8177 48.1225 68.9096 48.7089 67.8242 49.2034C65.6536 50.1923 62.7929 50.8053 60.0446 50.8053V51.0053C62.8191 51.0053 65.7084 50.3871 67.9071 49.3854C69.0063 48.8846 69.9377 48.2858 70.5957 47.6162C71.2537 46.9467 71.6446 46.1994 71.6446 45.4053H71.4446ZM71.3947 44.9355C71.4276 45.0905 71.4446 45.2471 71.4446 45.4053H71.6446C71.6446 45.2327 71.6261 45.0621 71.5903 44.8939L71.3947 44.9355ZM73.9446 38.4053C73.9446 40.996 73.0585 43.305 71.424 44.8418L71.561 44.9875C73.2432 43.4059 74.1446 41.0401 74.1446 38.4053H73.9446ZM70.8629 30.4661C71.8558 30.8371 72.6222 31.5081 73.1436 32.7379C73.6676 33.9739 73.9446 35.7757 73.9446 38.4053H74.1446C74.1446 35.7666 73.8674 33.9328 73.3277 32.6598C72.7854 31.3807 71.9784 30.6694 70.9329 30.2788L70.8629 30.4661ZM70.4571 24.9538C71.346 26.5537 71.3557 28.4736 70.802 30.3441L70.9938 30.4008C71.5573 28.4971 71.5549 26.5178 70.632 24.8567L70.4571 24.9538ZM65.9647 21.8305C66.9892 21.7302 67.6422 21.6999 68.2716 22.0838C68.9081 22.472 69.5342 23.2926 70.4571 24.9538L70.632 24.8567C69.7108 23.1985 69.0627 22.3321 68.3757 21.913C67.6816 21.4897 66.9619 21.5319 65.9452 21.6314L65.9647 21.8305ZM61.0289 18.1363C63.4447 18.7585 65.1675 19.8569 65.861 21.7651L66.049 21.6968C65.3226 19.6982 63.5222 18.5719 61.0788 17.9427L61.0289 18.1363ZM54.3912 15.0053C56.7794 15.0053 59.2974 16.1794 60.9785 18.1053L61.1292 17.9737C59.4125 16.0072 56.8407 14.8053 54.3912 14.8053V15.0053ZM51.9842 15.4786C52.6907 15.1711 53.4936 15.0053 54.3912 15.0053V14.8053C53.4685 14.8053 52.6382 14.9758 51.9044 15.2953L51.9842 15.4786ZM45.045 12.0053C48.1112 12.0053 50.5557 13.3356 51.8593 15.4396L52.0293 15.3343C50.6841 13.1632 48.1702 11.8053 45.045 11.8053V12.0053ZM40.5276 13.0184C41.882 12.3691 43.4419 12.0053 45.045 12.0053V11.8053C43.4121 11.8053 41.8227 12.1758 40.4411 12.838L40.5276 13.0184ZM37.0636 12.4179C38.3639 12.4179 39.4869 12.6279 40.4464 13.0207L40.5222 12.8357C39.5348 12.4314 38.3855 12.2179 37.0636 12.2179V12.4179ZM25.0536 19.2761C26.0304 17.182 27.8715 15.467 30.0533 14.2749C32.2348 13.0829 34.7496 12.4179 37.0636 12.4179V12.2179C34.7137 12.2179 32.1662 12.8925 29.9574 14.0993C27.7489 15.306 25.8717 17.049 24.8724 19.1915L25.0536 19.2761ZM20.1456 25.7704C20.1657 23.6209 20.666 22.1603 21.5076 21.1648C22.3494 20.1692 23.5444 19.6247 24.9829 19.3318L24.943 19.1358C23.4798 19.4338 22.2363 19.9932 21.3549 21.0357C20.4734 22.0783 19.9659 23.59 19.9456 25.7686L20.1456 25.7704ZM16.145 31.8115C16.145 30.3231 16.5279 29.0928 17.209 28.1075C17.8903 27.1217 18.8741 26.3752 20.0847 25.8616L20.0066 25.6774C18.7675 26.2032 17.751 26.9715 17.0444 27.9937C16.3376 29.0164 15.945 30.2874 15.945 31.8115H16.145ZM16.1741 32.5308C16.1548 32.2897 16.145 32.0496 16.145 31.8115H15.945C15.945 32.0551 15.955 32.3005 15.9747 32.5468L16.1741 32.5308ZM15.1373 33.9821C15.4664 33.3079 15.7908 32.8737 16.134 32.6191L16.0148 32.4585C15.6345 32.7407 15.2927 33.2077 14.9576 33.8944L15.1373 33.9821ZM14.7208 40.6237C14.1534 39.8576 14.015 38.6897 14.1445 37.4543C14.2736 36.2229 14.6668 34.9461 15.1373 33.9821L14.9576 33.8944C14.4774 34.8782 14.0773 36.1775 13.9456 37.4334C13.8144 38.6854 13.9477 39.9159 14.5601 40.7427L14.7208 40.6237ZM14.7188 43.7102C14.5425 42.6765 14.5326 41.6573 14.7382 40.7043L14.5427 40.6621C14.3307 41.645 14.342 42.6905 14.5216 43.7438L14.7188 43.7102ZM23.3854 48.5995C20.5396 49.143 18.5291 48.812 17.1558 47.9092C15.7835 47.0071 15.0276 45.5209 14.7188 43.7102L14.5216 43.7438C14.8362 45.5884 15.6122 47.1338 17.0459 48.0763C18.4787 49.0182 20.5486 49.3449 23.4229 48.796L23.3854 48.5995ZM26.8027 47.5482C25.7579 48.0057 24.6083 48.366 23.3854 48.5995L23.4229 48.796C24.6603 48.5597 25.8242 48.195 26.8829 47.7314L26.8027 47.5482ZM29.2691 47.6941C28.4383 47.6941 27.6302 47.641 26.8556 47.5407L26.8299 47.739C27.6132 47.8404 28.4298 47.8941 29.2691 47.8941V47.6941Z" fill="#DCDCDC" mask="url(#path-5-inside-1_580_2067)"/>
<path d="M67.5012 37.6517L67.4892 37.6763L67.5034 37.6997L67.9332 38.4044C67.5269 39.2019 66.4358 39.815 65.1151 39.8763C64.2571 39.9162 63.2084 39.7272 62.3683 39.3819C61.9483 39.2093 61.583 38.9986 61.3203 38.7603C61.0574 38.5218 60.9013 38.2596 60.8884 37.983C60.8756 37.7063 61.0067 37.4308 61.2464 37.1689C61.4859 36.9072 61.83 36.6637 62.2322 36.4529C63.0367 36.0312 64.0634 35.7458 64.9214 35.7059C66.2421 35.6446 67.3853 36.1539 67.8638 36.9102L67.5012 37.6517Z" fill="#F5E8E8" stroke="#DCDCDC" stroke-width="0.1"/>
<mask id="path-8-inside-2_580_2067" fill="white">
<path fill-rule="evenodd" clip-rule="evenodd" d="M62.0568 31.2273L62.6695 31.8202L63.5001 31.6227C64.1652 32.2666 64.4187 33.5274 64.0623 34.8263C63.6038 36.4978 62.0325 38.6083 60.8941 38.296C59.7557 37.9837 59.4813 35.3668 59.9398 33.6954C60.296 32.397 61.1567 31.4423 62.0568 31.2273Z"/>
</mask>
<path fill-rule="evenodd" clip-rule="evenodd" d="M62.0568 31.2273L62.6695 31.8202L63.5001 31.6227C64.1652 32.2666 64.4187 33.5274 64.0623 34.8263C63.6038 36.4978 62.0325 38.6083 60.8941 38.296C59.7557 37.9837 59.4813 35.3668 59.9398 33.6954C60.296 32.397 61.1567 31.4423 62.0568 31.2273Z" fill="#F5E8E8"/>
<path d="M62.6695 31.8202L62.6 31.8921L62.6393 31.9302L62.6926 31.9175L62.6695 31.8202ZM62.0568 31.2273L62.1264 31.1555L62.0869 31.1173L62.0336 31.13L62.0568 31.2273ZM63.5001 31.6227L63.5697 31.5508L63.5303 31.5127L63.477 31.5254L63.5001 31.6227ZM62.739 31.7484L62.1264 31.1555L61.9873 31.2992L62.6 31.8921L62.739 31.7484ZM63.477 31.5254L62.6464 31.7229L62.6926 31.9175L63.5233 31.7199L63.477 31.5254ZM63.4306 31.6945C64.0605 32.3045 64.3164 33.5223 63.9659 34.7999L64.1588 34.8528C64.521 33.5324 64.2699 32.2288 63.5697 31.5508L63.4306 31.6945ZM63.9659 34.7999C63.7407 35.6207 63.2405 36.5533 62.657 37.2403C62.3653 37.5838 62.0564 37.8615 61.7553 38.0339C61.4536 38.2066 61.1701 38.268 60.9206 38.1996L60.8676 38.3925C61.1873 38.4802 61.5271 38.3949 61.8546 38.2075C62.1826 38.0197 62.5087 37.7239 62.8094 37.3698C63.4107 36.6618 63.9254 35.7034 64.1588 34.8528L63.9659 34.7999ZM60.9206 38.1996C60.6711 38.1311 60.4586 37.9336 60.2872 37.6312C60.1162 37.3292 59.9923 36.9328 59.9167 36.4886C59.7654 35.5999 59.811 34.5427 60.0362 33.7219L59.8433 33.669C59.61 34.5196 59.5636 35.6065 59.7195 36.5222C59.7975 36.9802 59.927 37.401 60.1132 37.7298C60.2992 38.0581 60.5479 38.3048 60.8676 38.3925L60.9206 38.1996ZM60.0362 33.7219C60.3865 32.4449 61.2274 31.5282 62.0801 31.3246L62.0336 31.13C61.086 31.3564 60.2054 32.3491 59.8433 33.669L60.0362 33.7219Z" fill="#DCDCDC" mask="url(#path-8-inside-2_580_2067)"/>
<mask id="path-10-inside-3_580_2067" fill="white">
<path fill-rule="evenodd" clip-rule="evenodd" d="M54.6522 34.9061L55.407 34.5058L55.4759 33.6538C56.2939 33.2213 57.5703 33.3701 58.6949 34.1099C60.1428 35.0625 61.6645 37.2091 61.0157 38.1953C60.3669 39.1815 57.7933 38.6338 56.3454 37.6813C55.221 36.9415 54.5791 35.8285 54.6522 34.9061Z"/>
</mask>
<path fill-rule="evenodd" clip-rule="evenodd" d="M54.6522 34.9061L55.407 34.5058L55.4759 33.6538C56.2939 33.2213 57.5703 33.3701 58.6949 34.1099C60.1428 35.0625 61.6645 37.2091 61.0157 38.1953C60.3669 39.1815 57.7933 38.6338 56.3454 37.6813C55.221 36.9415 54.5791 35.8285 54.6522 34.9061Z" fill="#F5E8E8"/>
<path d="M55.407 34.5058L55.4539 34.5942L55.5023 34.5685L55.5067 34.5139L55.407 34.5058ZM54.6522 34.9061L54.6054 34.8178L54.5569 34.8435L54.5525 34.8982L54.6522 34.9061ZM55.4759 33.6538L55.4291 33.5654L55.3806 33.5911L55.3762 33.6458L55.4759 33.6538ZM55.3601 34.4175L54.6054 34.8178L54.6991 34.9945L55.4539 34.5942L55.3601 34.4175ZM55.3762 33.6458L55.3073 34.4978L55.5067 34.5139L55.5755 33.6619L55.3762 33.6458ZM55.5226 33.7422C56.2975 33.3325 57.5339 33.4658 58.64 34.1935L58.7499 34.0264C57.6068 33.2744 56.2903 33.1101 55.4291 33.5654L55.5226 33.7422ZM58.64 34.1935C59.351 34.6613 60.0834 35.4252 60.5565 36.1925C60.793 36.576 60.9617 36.9556 61.0325 37.2953C61.1036 37.6356 61.0744 37.9242 60.9322 38.1404L61.0993 38.2503C61.2815 37.9733 61.3054 37.6238 61.2283 37.2545C61.1511 36.8845 60.9706 36.483 60.7267 36.0875C60.2392 35.2969 59.4868 34.5112 58.7499 34.0264L58.64 34.1935ZM60.9322 38.1404C60.79 38.3565 60.5365 38.4975 60.1959 38.567C59.8559 38.6364 59.4406 38.6317 58.9947 38.5664C58.1028 38.4357 57.1114 38.0655 56.4003 37.5977L56.2904 37.7648C57.0273 38.2496 58.0467 38.6296 58.9657 38.7643C59.4254 38.8316 59.8656 38.8385 60.2359 38.763C60.6056 38.6876 60.9171 38.5272 61.0993 38.2503L60.9322 38.1404ZM56.4003 37.5977C55.2945 36.8702 54.6826 35.7877 54.7519 34.914L54.5525 34.8982C54.4755 35.8692 55.1475 37.0129 56.2904 37.7648L56.4003 37.5977Z" fill="#DCDCDC" mask="url(#path-10-inside-3_580_2067)"/>
<mask id="path-12-inside-4_580_2067" fill="white">
<path fill-rule="evenodd" clip-rule="evenodd" d="M56.6375 43.2843L56.4902 42.444L55.7015 42.1154C55.5423 41.2036 56.0782 40.0349 57.1299 39.1936C58.4832 38.1109 60.995 37.327 61.7325 38.2488C62.4699 39.1706 61.1537 41.449 59.8004 42.5317C58.7492 43.3726 57.492 43.6391 56.6375 43.2843Z"/>
</mask>
<path fill-rule="evenodd" clip-rule="evenodd" d="M56.6375 43.2843L56.4902 42.444L55.7015 42.1154C55.5423 41.2036 56.0782 40.0349 57.1299 39.1936C58.4832 38.1109 60.995 37.327 61.7325 38.2488C62.4699 39.1706 61.1537 41.449 59.8004 42.5317C58.7492 43.3726 57.492 43.6391 56.6375 43.2843Z" fill="#F5E8E8"/>
<path d="M56.4902 42.444L56.5887 42.4267L56.5792 42.3727L56.5287 42.3517L56.4902 42.444ZM56.6375 43.2843L56.539 43.3016L56.5484 43.3556L56.5991 43.3766L56.6375 43.2843ZM55.7015 42.1154L55.603 42.1326L55.6125 42.1866L55.6631 42.2077L55.7015 42.1154ZM56.3917 42.4612L56.539 43.3016L56.736 43.267L56.5887 42.4267L56.3917 42.4612ZM55.6631 42.2077L56.4517 42.5363L56.5287 42.3517L55.74 42.0231L55.6631 42.2077ZM55.8 42.0982C55.6492 41.2345 56.1581 40.0991 57.1923 39.2717L57.0674 39.1155C55.9984 39.9706 55.4354 41.1726 55.603 42.1326L55.8 42.0982ZM57.1923 39.2717C57.857 38.74 58.8098 38.2795 59.6858 38.0667C60.1236 37.9603 60.5367 37.9171 60.8817 37.9547C61.2272 37.9923 61.4928 38.1092 61.6544 38.3113L61.8106 38.1863C61.6035 37.9274 61.2785 37.7967 60.9033 37.7559C60.5277 37.715 60.09 37.7626 59.6385 37.8723C58.7359 38.0916 57.7562 38.5645 57.0674 39.1155L57.1923 39.2717ZM61.6544 38.3113C61.816 38.5133 61.8718 38.798 61.8326 39.1434C61.7935 39.4882 61.6608 39.8817 61.4608 40.2855C61.0609 41.0934 60.4025 41.9219 59.7379 42.4536L59.8628 42.6098C60.5516 42.0588 61.228 41.2067 61.6401 40.3743C61.8462 39.9579 61.9888 39.5414 62.0314 39.1659C62.0739 38.791 62.0176 38.4452 61.8106 38.1863L61.6544 38.3113ZM59.7379 42.4536C58.7041 43.2806 57.4853 43.528 56.6758 43.1919L56.5991 43.3766C57.4988 43.7502 58.7943 43.4646 59.8628 42.6098L59.7379 42.4536Z" fill="#DCDCDC" mask="url(#path-12-inside-4_580_2067)"/>
<mask id="path-14-inside-5_580_2067" fill="white">
<path fill-rule="evenodd" clip-rule="evenodd" d="M64.0917 44.3361L63.247 44.2165L62.6921 44.8634C61.7757 44.7331 60.8299 43.8622 60.3547 42.6021C59.7433 40.9804 59.7739 38.3493 60.8785 37.9328C61.983 37.5163 63.7432 39.4722 64.3547 41.0939C64.83 42.3544 64.6944 43.6333 64.0917 44.3361Z"/>
</mask>
<path fill-rule="evenodd" clip-rule="evenodd" d="M64.0917 44.3361L63.247 44.2165L62.6921 44.8634C61.7757 44.7331 60.8299 43.8622 60.3547 42.6021C59.7433 40.9804 59.7739 38.3493 60.8785 37.9328C61.983 37.5163 63.7432 39.4722 64.3547 41.0939C64.83 42.3544 64.6944 43.6333 64.0917 44.3361Z" fill="#F5E8E8"/>
<path d="M63.247 44.2165L63.261 44.1175L63.2068 44.1098L63.1711 44.1514L63.247 44.2165ZM64.0917 44.3361L64.0777 44.4351L64.132 44.4428L64.1676 44.4012L64.0917 44.3361ZM62.6921 44.8634L62.678 44.9624L62.7323 44.9701L62.768 44.9285L62.6921 44.8634ZM63.233 44.3155L64.0777 44.4351L64.1057 44.2371L63.261 44.1175L63.233 44.3155ZM62.768 44.9285L63.3229 44.2816L63.1711 44.1514L62.6162 44.7983L62.768 44.9285ZM62.7062 44.7644C61.8382 44.641 60.9156 43.8062 60.4483 42.5668L60.2612 42.6374C60.7441 43.9183 61.7133 44.8252 62.678 44.9624L62.7062 44.7644ZM60.4483 42.5668C60.148 41.7704 60.0045 40.7219 60.0728 39.8231C60.1069 39.3738 60.1935 38.9676 60.3359 38.6511C60.4784 38.3341 60.6717 38.1177 60.9138 38.0264L60.8432 37.8393C60.533 37.9562 60.3082 38.2249 60.1535 38.569C59.9985 38.9137 59.9086 39.3447 59.8734 39.8079C59.803 40.7342 59.95 41.8121 60.2612 42.6374L60.4483 42.5668ZM60.9138 38.0264C61.1558 37.9351 61.4438 37.97 61.7602 38.114C62.0761 38.2577 62.4093 38.5056 62.7316 38.8205C63.3764 39.4506 63.9609 40.3328 64.2612 41.1291L64.4483 41.0586C64.1371 40.2333 63.5358 39.3267 62.8714 38.6775C62.5391 38.3528 62.187 38.0885 61.8431 37.932C61.4996 37.7757 61.1534 37.7223 60.8432 37.8393L60.9138 38.0264ZM64.2612 41.1291C64.7286 42.3689 64.5866 43.6053 64.0158 44.271L64.1676 44.4012C64.8021 43.6613 64.9314 42.3399 64.4483 41.0586L64.2612 41.1291Z" fill="#DCDCDC" mask="url(#path-14-inside-5_580_2067)"/>
<circle cx="60.8393" cy="37.9856" r="1.37496" transform="rotate(87.3405 60.8393 37.9856)" fill="#FF9292" stroke="#DCDCDC" stroke-width="0.1"/>
<path d="M53.3972 20.1108L53.3983 20.1381L53.4219 20.1519L54.2384 20.6282C54.2649 21.6529 53.4996 22.8634 52.2044 23.6423C51.3641 24.1477 50.2082 24.5266 49.1771 24.6353C48.6616 24.6897 48.1801 24.6763 47.7863 24.5792C47.3921 24.482 47.0914 24.3027 46.9273 24.0298C46.7633 23.757 46.7458 23.4073 46.8447 23.0136C46.9436 22.6202 47.1574 22.1886 47.4471 21.7587C48.0265 20.8989 48.903 20.0554 49.7433 19.5501C51.0385 18.7711 52.4665 18.6626 53.3592 19.1662L53.3972 20.1108Z" fill="#F5E8E8" stroke="#DCDCDC" stroke-width="0.1"/>
<mask id="path-18-inside-6_580_2067" fill="white">
<path fill-rule="evenodd" clip-rule="evenodd" d="M44.4451 16.6146L45.3802 16.8773L46.1068 16.2289C47.1235 16.5144 48.0615 17.6425 48.4078 19.1397C48.8533 21.0655 48.4199 24.0349 47.1082 24.3382C45.7965 24.6416 44.1033 22.1641 43.6579 20.2383C43.3119 18.7424 43.6584 17.3181 44.4451 16.6146Z"/>
</mask>
<path fill-rule="evenodd" clip-rule="evenodd" d="M44.4451 16.6146L45.3802 16.8773L46.1068 16.2289C47.1235 16.5144 48.0615 17.6425 48.4078 19.1397C48.8533 21.0655 48.4199 24.0349 47.1082 24.3382C45.7965 24.6416 44.1033 22.1641 43.6579 20.2383C43.3119 18.7424 43.6584 17.3181 44.4451 16.6146Z" fill="#F5E8E8"/>
<path d="M45.3802 16.8773L45.3531 16.9736L45.4059 16.9884L45.4468 16.952L45.3802 16.8773ZM44.4451 16.6146L44.4722 16.5183L44.4194 16.5035L44.3785 16.54L44.4451 16.6146ZM46.1068 16.2289L46.1339 16.1327L46.0811 16.1179L46.0403 16.1543L46.1068 16.2289ZM45.4072 16.7811L44.4722 16.5183L44.4181 16.7108L45.3531 16.9736L45.4072 16.7811ZM46.0403 16.1543L45.3136 16.8027L45.4468 16.952L46.1734 16.3036L46.0403 16.1543ZM46.0798 16.3252C47.0494 16.5974 47.9691 17.6867 48.3104 19.1622L48.5053 19.1172C48.154 17.5983 47.1977 16.4313 46.1339 16.1327L46.0798 16.3252ZM48.3104 19.1622C48.5296 20.11 48.5329 21.319 48.3191 22.3266C48.2122 22.8303 48.0523 23.278 47.8423 23.616C47.632 23.9545 47.3781 24.1732 47.0857 24.2408L47.1307 24.4357C47.4941 24.3516 47.7862 24.0853 48.0122 23.7215C48.2385 23.3573 48.405 22.8855 48.5147 22.3681C48.7342 21.3337 48.7315 20.0951 48.5053 19.1172L48.3104 19.1622ZM47.0857 24.2408C46.7932 24.3084 46.4691 24.2235 46.1315 24.0117C45.7944 23.8002 45.4541 23.4682 45.137 23.0626C44.5025 22.2512 43.9745 21.1636 43.7553 20.2158L43.5605 20.2609C43.7866 21.2388 44.328 22.3528 44.9794 23.1858C45.3052 23.6024 45.662 23.9532 46.0252 24.1811C46.388 24.4087 46.7674 24.5197 47.1307 24.4357L47.0857 24.2408ZM43.7553 20.2158C43.4143 18.7415 43.7614 17.3601 44.5118 16.6891L44.3785 16.54C43.5553 17.2761 43.2094 18.7433 43.5605 20.2609L43.7553 20.2158Z" fill="#DCDCDC" mask="url(#path-18-inside-6_580_2067)"/>
<mask id="path-20-inside-7_580_2067" fill="white">
<path fill-rule="evenodd" clip-rule="evenodd" d="M39.0077 24.3175L39.5487 23.5062L39.1559 22.6132C39.7427 21.7363 41.1041 21.1943 42.6331 21.3275C44.6023 21.499 47.2924 22.8287 47.1756 24.17C47.0588 25.5112 44.1793 26.3559 42.2102 26.1845C40.6814 26.0513 39.4343 25.2824 39.0077 24.3175Z"/>
</mask>
<path fill-rule="evenodd" clip-rule="evenodd" d="M39.0077 24.3175L39.5487 23.5062L39.1559 22.6132C39.7427 21.7363 41.1041 21.1943 42.6331 21.3275C44.6023 21.499 47.2924 22.8287 47.1756 24.17C47.0588 25.5112 44.1793 26.3559 42.2102 26.1845C40.6814 26.0513 39.4343 25.2824 39.0077 24.3175Z" fill="#F5E8E8"/>
<path d="M39.5487 23.5062L39.6319 23.5617L39.6623 23.5161L39.6403 23.466L39.5487 23.5062ZM39.0077 24.3175L38.9245 24.262L38.8941 24.3077L38.9163 24.358L39.0077 24.3175ZM39.1559 22.6132L39.0728 22.5576L39.0423 22.6032L39.0644 22.6535L39.1559 22.6132ZM39.4655 23.4508L38.9245 24.262L39.0909 24.373L39.6319 23.5617L39.4655 23.4508ZM39.0644 22.6535L39.4572 23.5465L39.6403 23.466L39.2474 22.5729L39.0644 22.6535ZM39.239 22.6688C39.7987 21.8325 41.1175 21.2959 42.6244 21.4271L42.6418 21.2279C41.0906 21.0928 39.6868 21.6402 39.0728 22.5576L39.239 22.6688ZM42.6244 21.4271C43.5936 21.5115 44.7444 21.882 45.6366 22.3967C46.0826 22.654 46.459 22.9444 46.7156 23.2486C46.9725 23.5532 47.102 23.8622 47.076 24.1613L47.2752 24.1786C47.3076 23.8071 47.1446 23.4469 46.8685 23.1196C46.592 22.7919 46.1947 22.4877 45.7366 22.2235C44.8206 21.6951 43.6418 21.315 42.6418 21.2279L42.6244 21.4271ZM47.076 24.1613C47.0499 24.4603 46.869 24.7423 46.5633 24.9979C46.2579 25.2532 45.837 25.4742 45.3533 25.6505C44.3855 26.0032 43.188 26.1692 42.2188 26.0848L42.2015 26.2841C43.2015 26.3712 44.4283 26.2005 45.4218 25.8384C45.9186 25.6573 46.3626 25.4264 46.6915 25.1514C47.0201 24.8767 47.2429 24.5502 47.2752 24.1786L47.076 24.1613ZM42.2188 26.0848C40.7122 25.9536 39.5061 25.1974 39.0992 24.2771L38.9163 24.358C39.3626 25.3675 40.6505 26.149 42.2015 26.2841L42.2188 26.0848Z" fill="#DCDCDC" mask="url(#path-20-inside-7_580_2067)"/>
<mask id="path-22-inside-8_580_2067" fill="white">
<path fill-rule="evenodd" clip-rule="evenodd" d="M45.5385 31.6498L44.9353 30.8861L43.9659 30.9836C43.3122 30.1548 43.217 28.6917 43.8165 27.2778C44.588 25.458 46.684 23.3104 47.9235 23.836C49.163 24.3615 49.0766 27.3611 48.305 29.1809C47.7057 30.5943 46.5884 31.5429 45.5385 31.6498Z"/>
</mask>
<path fill-rule="evenodd" clip-rule="evenodd" d="M45.5385 31.6498L44.9353 30.8861L43.9659 30.9836C43.3122 30.1548 43.217 28.6917 43.8165 27.2778C44.588 25.458 46.684 23.3104 47.9235 23.836C49.163 24.3615 49.0766 27.3611 48.305 29.1809C47.7057 30.5943 46.5884 31.5429 45.5385 31.6498Z" fill="#F5E8E8"/>
<path d="M44.9353 30.8861L45.0138 30.8241L44.9798 30.7811L44.9253 30.7866L44.9353 30.8861ZM45.5385 31.6498L45.46 31.7118L45.4941 31.7549L45.5486 31.7493L45.5385 31.6498ZM43.9659 30.9836L43.8874 31.0455L43.9214 31.0886L43.9759 31.0831L43.9659 30.9836ZM44.8568 30.9481L45.46 31.7118L45.617 31.5878L45.0138 30.8241L44.8568 30.9481ZM43.9759 31.0831L44.9453 30.9856L44.9253 30.7866L43.9559 30.8841L43.9759 31.0831ZM44.0444 30.9217C43.421 30.1312 43.3177 28.7103 43.9085 27.3168L43.7244 27.2387C43.1162 28.6731 43.2035 30.1784 43.8874 31.0455L44.0444 30.9217ZM43.9085 27.3168C44.2883 26.4212 44.9963 25.4412 45.7615 24.7517C46.1439 24.407 46.5365 24.1388 46.9051 23.9888C47.2742 23.8385 47.6081 23.8109 47.8845 23.928L47.9625 23.7439C47.6192 23.5983 47.2263 23.642 46.8297 23.8035C46.4325 23.9652 46.0205 24.2491 45.6276 24.6031C44.842 25.3109 44.1162 26.3146 43.7244 27.2387L43.9085 27.3168ZM47.8845 23.928C48.1608 24.0452 48.3731 24.3045 48.5217 24.6742C48.6701 25.0434 48.7503 25.5121 48.7685 26.0266C48.8049 27.056 48.5927 28.2462 48.2129 29.1419L48.3971 29.2199C48.7889 28.2958 49.0057 27.0763 48.9683 26.0196C48.9497 25.491 48.8672 24.9975 48.7073 24.5996C48.5476 24.2023 48.3059 23.8895 47.9625 23.7439L47.8845 23.928ZM48.2129 29.1419C47.6223 30.5349 46.5297 31.4484 45.5284 31.5503L45.5486 31.7493C46.6471 31.6375 47.7891 30.6538 48.3971 29.2199L48.2129 29.1419Z" fill="#DCDCDC" mask="url(#path-22-inside-8_580_2067)"/>
<mask id="path-24-inside-9_580_2067" fill="white">
<path fill-rule="evenodd" clip-rule="evenodd" d="M53.5893 28.6668L52.6769 29.0043L52.4706 29.9539C51.4803 30.3196 50.0592 29.9582 48.8997 28.951C47.4074 27.6548 46.0126 24.9978 46.8955 23.9814C47.7783 22.9649 50.6044 23.974 52.0967 25.2702C53.2567 26.2778 53.8135 27.6349 53.5893 28.6668Z"/>
</mask>
<path fill-rule="evenodd" clip-rule="evenodd" d="M53.5893 28.6668L52.6769 29.0043L52.4706 29.9539C51.4803 30.3196 50.0592 29.9582 48.8997 28.951C47.4074 27.6548 46.0126 24.9978 46.8955 23.9814C47.7783 22.9649 50.6044 23.974 52.0967 25.2702C53.2567 26.2778 53.8135 27.6349 53.5893 28.6668Z" fill="#F5E8E8"/>
<path d="M52.6769 29.0043L52.6422 28.9106L52.5908 28.9296L52.5792 28.9831L52.6769 29.0043ZM53.5893 28.6668L53.624 28.7605L53.6754 28.7415L53.687 28.688L53.5893 28.6668ZM52.4706 29.9539L52.5052 30.0477L52.5567 30.0287L52.5683 29.9751L52.4706 29.9539ZM52.7116 29.0981L53.624 28.7605L53.5546 28.573L52.6422 28.9106L52.7116 29.0981ZM52.5683 29.9751L52.7746 29.0256L52.5792 28.9831L52.3729 29.9327L52.5683 29.9751ZM52.4359 29.8601C51.4915 30.2089 50.1081 29.8681 48.9652 28.8755L48.8341 29.0265C50.0104 30.0482 51.4692 30.4304 52.5052 30.0477L52.4359 29.8601ZM48.9652 28.8755C48.2308 28.2375 47.5175 27.2614 47.0982 26.3206C46.8886 25.8503 46.7549 25.394 46.7261 24.9972C46.6972 24.5997 46.7741 24.2736 46.971 24.0469L46.82 23.9158C46.5754 24.1974 46.4956 24.5845 46.5266 25.0116C46.5576 25.4393 46.7003 25.9189 46.9156 26.402C47.346 27.3678 48.0763 28.3682 48.8341 29.0265L48.9652 28.8755ZM46.971 24.0469C47.1678 23.8203 47.48 23.6985 47.8775 23.6714C48.2746 23.6444 48.745 23.713 49.24 23.8547C50.2302 24.1382 51.2966 24.7078 52.0311 25.3457L52.1623 25.1947C51.4044 24.5365 50.3117 23.9534 49.295 23.6624C48.7866 23.5169 48.2918 23.4428 47.864 23.4719C47.4367 23.501 47.0645 23.6342 46.82 23.9158L46.971 24.0469ZM52.0311 25.3457C53.1744 26.3387 53.7054 27.6615 53.4916 28.6455L53.687 28.688C53.9216 27.6084 53.339 26.2168 52.1623 25.1947L52.0311 25.3457Z" fill="#DCDCDC" mask="url(#path-24-inside-9_580_2067)"/>
<circle cx="46.8852" cy="24.0554" r="1.57512" transform="rotate(58.9767 46.8852 24.0554)" fill="#FF9292" stroke="#DCDCDC" stroke-width="0.1"/>
<path d="M36.4692 39.3668L36.4477 39.3838L36.4504 39.411L36.5442 40.3497C35.732 40.9716 34.3057 41.063 32.9173 40.4733C32.0166 40.0907 31.033 39.3791 30.3408 38.6099C29.9947 38.2253 29.7233 37.8285 29.5709 37.4534C29.4184 37.0781 29.387 36.7301 29.5112 36.4377C29.6354 36.1452 29.9076 35.9262 30.2836 35.7753C30.6594 35.6246 31.1333 35.5443 31.6504 35.5264C32.6846 35.4904 33.8797 35.7041 34.7804 36.0867C36.1688 36.6763 37.0934 37.7662 37.2099 38.7825L36.4692 39.3668Z" fill="#F5E8E8" stroke="#DCDCDC" stroke-width="0.1"/>
<mask id="path-28-inside-10_580_2067" fill="white">
<path fill-rule="evenodd" clip-rule="evenodd" d="M34.05 30.0866L34.3862 30.997L35.3358 31.2039C35.7006 32.1924 35.3389 33.6108 34.3328 34.7677C33.0383 36.2563 30.3855 37.6467 29.3716 36.765C28.3577 35.8832 29.3666 33.0633 30.6612 31.5747C31.6668 30.4183 33.0206 29.8633 34.05 30.0866Z"/>
</mask>
<path fill-rule="evenodd" clip-rule="evenodd" d="M34.05 30.0866L34.3862 30.997L35.3358 31.2039C35.7006 32.1924 35.3389 33.6108 34.3328 34.7677C33.0383 36.2563 30.3855 37.6467 29.3716 36.765C28.3577 35.8832 29.3666 33.0633 30.6612 31.5747C31.6668 30.4183 33.0206 29.8633 34.05 30.0866Z" fill="#F5E8E8"/>
<path d="M34.3862 30.997L34.2924 31.0316L34.3114 31.083L34.3649 31.0947L34.3862 30.997ZM34.05 30.0866L34.1438 30.0519L34.1248 30.0005L34.0712 29.9888L34.05 30.0866ZM35.3358 31.2039L35.4296 31.1693L35.4107 31.1178L35.3571 31.1062L35.3358 31.2039ZM34.48 30.9623L34.1438 30.0519L33.9562 30.1212L34.2924 31.0316L34.48 30.9623ZM35.3571 31.1062L34.4075 30.8992L34.3649 31.0947L35.3145 31.3016L35.3571 31.1062ZM35.242 31.2385C35.5898 32.1812 35.2489 33.562 34.2574 34.7021L34.4083 34.8334C35.429 33.6597 35.8113 32.2037 35.4296 31.1693L35.242 31.2385ZM34.2574 34.7021C33.6202 35.4348 32.6455 36.146 31.7063 36.5639C31.2369 36.7728 30.7815 36.906 30.3853 36.9345C29.9887 36.963 29.6633 36.8861 29.4373 36.6895L29.306 36.8405C29.587 37.0848 29.9734 37.1647 30.3997 37.134C30.8266 37.1033 31.3054 36.9612 31.7876 36.7466C32.7519 36.3176 33.7509 35.5893 34.4083 34.8334L34.2574 34.7021ZM29.4373 36.6895C29.2113 36.493 29.0899 36.1814 29.0631 35.7846C29.0364 35.3884 29.1051 34.9189 29.2469 34.425C29.5304 33.4369 30.0995 32.3729 30.7366 31.6403L30.5857 31.509C29.9283 32.265 29.3457 33.3553 29.0546 34.3698C28.909 34.8772 28.8348 35.3711 28.8636 35.7981C28.8923 36.2245 29.0251 36.5961 29.306 36.8405L29.4373 36.6895ZM30.7366 31.6403C31.7277 30.5007 33.0471 29.9714 34.0288 30.1843L34.0712 29.9888C32.994 29.7553 31.606 30.3359 30.5857 31.509L30.7366 31.6403Z" fill="#DCDCDC" mask="url(#path-28-inside-10_580_2067)"/>
<mask id="path-30-inside-11_580_2067" fill="white">
<path fill-rule="evenodd" clip-rule="evenodd" d="M24.6383 30.209L25.6099 30.1705L26.1003 29.3311C27.1528 29.2907 28.389 30.0728 29.1779 31.3864C30.1936 33.0776 30.6962 36.0301 29.5443 36.7219C28.3924 37.4137 26.0222 35.5828 25.0065 33.8916C24.2175 32.5779 24.108 31.1191 24.6383 30.209Z"/>
</mask>
<path fill-rule="evenodd" clip-rule="evenodd" d="M24.6383 30.209L25.6099 30.1705L26.1003 29.3311C27.1528 29.2907 28.389 30.0728 29.1779 31.3864C30.1936 33.0776 30.6962 36.0301 29.5443 36.7219C28.3924 37.4137 26.0222 35.5828 25.0065 33.8916C24.2175 32.5779 24.108 31.1191 24.6383 30.209Z" fill="#F5E8E8"/>
<path d="M25.6099 30.1705L25.6139 30.2704L25.6686 30.2682L25.6963 30.2209L25.6099 30.1705ZM24.6383 30.209L24.6344 30.109L24.5795 30.1112L24.5519 30.1586L24.6383 30.209ZM26.1003 29.3311L26.0964 29.2312L26.0416 29.2333L26.0139 29.2807L26.1003 29.3311ZM25.606 30.0706L24.6344 30.109L24.6423 30.3089L25.6139 30.2704L25.606 30.0706ZM26.0139 29.2807L25.5236 30.12L25.6963 30.2209L26.1866 29.3815L26.0139 29.2807ZM26.1041 29.431C27.1078 29.3925 28.3147 30.1433 29.0922 31.4379L29.2636 31.3349C28.4633 30.0023 27.1977 29.1889 26.0964 29.2312L26.1041 29.431ZM29.0922 31.4379C29.5921 32.2702 29.9673 33.417 30.0745 34.4394C30.1281 34.9504 30.1141 35.4247 30.0188 35.8102C29.9233 36.1963 29.7496 36.482 29.4928 36.6362L29.5958 36.8077C29.915 36.616 30.1104 36.2732 30.2129 35.8582C30.3156 35.4427 30.3284 34.9435 30.2734 34.4185C30.1633 33.3688 29.7794 32.1937 29.2636 31.3349L29.0922 31.4379ZM29.4928 36.6362C29.236 36.7904 28.9022 36.8096 28.5166 36.7124C28.1315 36.6154 27.7062 36.4049 27.2802 36.1175C26.4281 35.5425 25.5921 34.6725 25.0922 33.8401L24.9208 33.9431C25.4366 34.802 26.2935 35.693 27.1684 36.2833C27.6059 36.5785 28.0527 36.8018 28.4677 36.9063C28.8822 37.0108 29.2766 36.9994 29.5958 36.8077L29.4928 36.6362ZM25.0922 33.8401C24.3147 32.5455 24.219 31.1272 24.7247 30.2593L24.5519 30.1586C23.997 31.1109 24.1204 32.6104 24.9208 33.9431L25.0922 33.8401Z" fill="#DCDCDC" mask="url(#path-30-inside-11_580_2067)"/>
<mask id="path-32-inside-12_580_2067" fill="white">
<path fill-rule="evenodd" clip-rule="evenodd" d="M22.542 39.7823L22.8053 38.8478L22.1584 38.122C22.4446 37.108 23.5707 36.1732 25.0645 35.8287C26.9868 35.3853 29.9502 35.8197 30.2522 37.129C30.5542 38.4383 28.0804 40.1267 26.1581 40.5701C24.665 40.9145 23.2437 40.5678 22.542 39.7823Z"/>
</mask>
<path fill-rule="evenodd" clip-rule="evenodd" d="M22.542 39.7823L22.8053 38.8478L22.1584 38.122C22.4446 37.108 23.5707 36.1732 25.0645 35.8287C26.9868 35.3853 29.9502 35.8197 30.2522 37.129C30.5542 38.4383 28.0804 40.1267 26.1581 40.5701C24.665 40.9145 23.2437 40.5678 22.542 39.7823Z" fill="#F5E8E8"/>
<path d="M22.8053 38.8478L22.9015 38.8749L22.9164 38.8222L22.8799 38.7813L22.8053 38.8478ZM22.542 39.7823L22.4458 39.7552L22.4309 39.808L22.4674 39.8489L22.542 39.7823ZM22.1584 38.122L22.0622 38.0948L22.0473 38.1476L22.0837 38.1885L22.1584 38.122ZM22.709 38.8207L22.4458 39.7552L22.6383 39.8094L22.9015 38.8749L22.709 38.8207ZM22.0837 38.1885L22.7306 38.9143L22.8799 38.7813L22.2331 38.0555L22.0837 38.1885ZM22.2546 38.1492C22.5275 37.1822 23.6149 36.2657 25.087 35.9261L25.042 35.7312C23.5266 36.0808 22.3616 37.0338 22.0622 38.0948L22.2546 38.1492ZM25.087 35.9261C26.0331 35.7079 27.2397 35.7054 28.2451 35.9194C28.7477 36.0264 29.1945 36.1863 29.5317 36.396C29.8694 36.6061 30.0874 36.8596 30.1547 37.1515L30.3496 37.1065C30.2659 36.7437 30.0003 36.452 29.6373 36.2262C29.2739 36.0001 28.8031 35.8337 28.2868 35.7238C27.2545 35.5041 26.0183 35.5061 25.042 35.7312L25.087 35.9261ZM30.1547 37.1515C30.222 37.4433 30.1371 37.7667 29.9255 38.1035C29.7142 38.4398 29.3827 38.7792 28.9777 39.0955C28.1675 39.7282 27.0817 40.2544 26.1356 40.4727L26.1806 40.6675C27.1568 40.4424 28.269 39.9027 29.1008 39.2531C29.5168 38.9282 29.8672 38.5723 30.0949 38.2099C30.3223 37.848 30.4333 37.4693 30.3496 37.1065L30.1547 37.1515ZM26.1356 40.4727C24.6641 40.812 23.2858 40.4648 22.6166 39.7157L22.4674 39.8489C23.2017 40.6709 24.6658 41.0169 26.1806 40.6675L26.1356 40.4727Z" fill="#DCDCDC" mask="url(#path-32-inside-12_580_2067)"/>
<mask id="path-34-inside-13_580_2067" fill="white">
<path fill-rule="evenodd" clip-rule="evenodd" d="M29.6709 44.5365L28.8643 43.998L27.9752 44.3884C27.0987 43.8033 26.5573 42.4429 26.6913 40.9153C26.8636 38.9501 28.1925 36.266 29.531 36.3834C30.8696 36.5007 31.7109 39.3752 31.5386 41.3404C31.4046 42.8674 30.6353 44.1124 29.6709 44.5365Z"/>
</mask>
<path fill-rule="evenodd" clip-rule="evenodd" d="M29.6709 44.5365L28.8643 43.998L27.9752 44.3884C27.0987 43.8033 26.5573 42.4429 26.6913 40.9153C26.8636 38.9501 28.1925 36.266 29.531 36.3834C30.8696 36.5007 31.7109 39.3752 31.5386 41.3404C31.4046 42.8674 30.6353 44.1124 29.6709 44.5365Z" fill="#F5E8E8"/>
<path d="M28.8643 43.998L28.9199 43.9148L28.8743 43.8844L28.8241 43.9064L28.8643 43.998ZM29.6709 44.5365L29.6153 44.6197L29.6609 44.6501L29.7111 44.6281L29.6709 44.5365ZM27.9752 44.3884L27.9197 44.4716L27.9653 44.502L28.0154 44.48L27.9752 44.3884ZM28.8088 44.0812L29.6153 44.6197L29.7264 44.4534L28.9199 43.9148L28.8088 44.0812ZM28.0154 44.48L28.9045 44.0895L28.8241 43.9064L27.935 44.2969L28.0154 44.48ZM28.0307 44.3053C27.1949 43.7472 26.6589 42.4296 26.7909 40.924L26.5917 40.9065C26.4558 42.4563 27.0025 43.8593 27.9197 44.4716L28.0307 44.3053ZM26.7909 40.924C26.8757 39.9568 27.2462 38.8085 27.7604 37.9184C28.0175 37.4734 28.3076 37.0979 28.6113 36.8421C28.9154 36.5858 29.2239 36.4568 29.5223 36.483L29.5398 36.2837C29.1689 36.2512 28.8093 36.4137 28.4824 36.6891C28.1551 36.9649 27.8513 37.3613 27.5872 37.8183C27.0593 38.7322 26.6792 39.9085 26.5917 40.9065L26.7909 40.924ZM29.5223 36.483C29.8207 36.5091 30.102 36.6899 30.3569 36.9951C30.6114 37.3 30.8317 37.7202 31.0074 38.2031C31.3588 39.1692 31.5238 40.3644 31.439 41.3317L31.6382 41.3491C31.7257 40.3511 31.5562 39.1266 31.1954 38.1347C31.0149 37.6387 30.7847 37.1955 30.5104 36.867C30.2365 36.5389 29.9107 36.3163 29.5398 36.2837L29.5223 36.483ZM31.439 41.3317C31.307 42.8366 30.5503 44.0405 29.6306 44.445L29.7111 44.6281C30.7203 44.1842 31.5023 42.8983 31.6382 41.3491L31.439 41.3317Z" fill="#DCDCDC" mask="url(#path-34-inside-13_580_2067)"/>
<circle cx="29.4663" cy="36.4189" r="1.57196" transform="rotate(113.012 29.4663 36.4189)" fill="#FF9292" stroke="#DCDCDC" stroke-width="0.1"/>
<ellipse cx="44" cy="70.0947" rx="38" ry="6" fill="#13B55A"/>
<defs>
<linearGradient id="paint0_linear_580_2067" x1="44.5" y1="47.0942" x2="44.5" y2="64.0942" gradientUnits="userSpaceOnUse">
<stop stop-color="#A35656"/>
<stop offset="1" stop-color="#8C5E44"/>
</linearGradient>
<linearGradient id="paint1_linear_580_2067" x1="44.0442" y1="11.9053" x2="44.0445" y2="54.3007" gradientUnits="userSpaceOnUse">
<stop stop-color="#FFC4C4"/>
<stop offset="1" stop-color="#FF9D9D"/>
</linearGradient>
</defs>
</svg>
