<svg width="70" height="70" viewBox="0 0 88 88" fill="none" xmlns="http://www.w3.org/2000/svg">
<ellipse cx="44" cy="48.708" rx="36" ry="33" fill="#C9F2FF"/>
<path d="M65.712 44.0975C55.3531 57.973 44.9893 55.9872 44.0003 55.2009" stroke="#8C503B" stroke-width="3.5" stroke-linecap="round"/>
<path d="M43.5906 51.7446C28.7572 51.4509 25.0975 43.0248 25.1687 41.9148" stroke="#8C503B" stroke-width="3" stroke-linecap="round"/>
<path d="M44.796 40.7104C45.4925 61.7743 44.1984 70.3607 44 70.7104" stroke="url(#paint0_linear_580_2068)" stroke-width="10" stroke-linecap="round"/>
<mask id="path-5-inside-1_580_2068" fill="white">
<path fill-rule="evenodd" clip-rule="evenodd" d="M33.2123 45.2077C34.4072 45.2077 35.4776 45.1131 36.4256 44.9357C39.5408 47.0093 43.8 48.2871 48.4968 48.2871C51.2072 48.2871 53.772 47.8615 56.0552 47.1031C57.9464 47.9729 60.393 48.4974 63.0652 48.4974C69.0593 48.4974 74.212 44.4634 74.212 41.2078C74.212 40.5048 73.9717 39.8955 73.5346 39.3724C74.9116 37.8798 75.712 35.8311 75.712 33.7077C75.712 30.482 74.6643 28.6322 72.9039 27.6539C73.1035 26.9185 73.212 26.1991 73.212 25.5292C73.212 22.7847 71.3918 21.5605 68.9367 21.0467C68.9508 20.8431 68.9579 20.6423 68.9579 20.4447C68.9579 17.7894 67.6736 16.167 65.5372 15.1824C64.1268 11.8759 60.7339 9.70763 57.5581 9.70763C57.0973 9.70763 56.6604 9.7533 56.2479 9.84148C55.9731 8.66038 55.009 7.74284 52.8017 7.08749C48.756 5.88625 41.7041 5.9134 37.9901 8.04854C37.0087 7.82465 35.9175 7.70776 34.7108 7.70776C27.2854 7.70776 18.2855 12.1336 18.2122 18.6848C16.2791 19.6604 15.0593 21.4506 14.9056 24.7078C14.8733 25.3939 14.9988 26.0576 15.2598 26.686C13.3455 27.1651 12.2118 28.5294 12.2118 31.989C12.2118 32.9742 12.59 34 13.2785 34.97C12.5319 35.0928 12.1376 35.5473 12.0281 36.7472C11.8943 38.2136 12.2261 40.3525 13.2511 41.2616C13.2378 41.6163 13.2643 41.9747 13.3261 42.3332C13.8027 45.0995 16.1928 46.8227 22.0916 45.7077C23.7628 45.3918 25.3132 44.9129 26.6665 44.3257C28.7122 44.8891 31.0201 45.2077 33.2123 45.2077Z"/>
</mask>
<path fill-rule="evenodd" clip-rule="evenodd" d="M33.2123 45.2077C34.4072 45.2077 35.4776 45.1131 36.4256 44.9357C39.5408 47.0093 43.8 48.2871 48.4968 48.2871C51.2072 48.2871 53.772 47.8615 56.0552 47.1031C57.9464 47.9729 60.393 48.4974 63.0652 48.4974C69.0593 48.4974 74.212 44.4634 74.212 41.2078C74.212 40.5048 73.9717 39.8955 73.5346 39.3724C74.9116 37.8798 75.712 35.8311 75.712 33.7077C75.712 30.482 74.6643 28.6322 72.9039 27.6539C73.1035 26.9185 73.212 26.1991 73.212 25.5292C73.212 22.7847 71.3918 21.5605 68.9367 21.0467C68.9508 20.8431 68.9579 20.6423 68.9579 20.4447C68.9579 17.7894 67.6736 16.167 65.5372 15.1824C64.1268 11.8759 60.7339 9.70763 57.5581 9.70763C57.0973 9.70763 56.6604 9.7533 56.2479 9.84148C55.9731 8.66038 55.009 7.74284 52.8017 7.08749C48.756 5.88625 41.7041 5.9134 37.9901 8.04854C37.0087 7.82465 35.9175 7.70776 34.7108 7.70776C27.2854 7.70776 18.2855 12.1336 18.2122 18.6848C16.2791 19.6604 15.0593 21.4506 14.9056 24.7078C14.8733 25.3939 14.9988 26.0576 15.2598 26.686C13.3455 27.1651 12.2118 28.5294 12.2118 31.989C12.2118 32.9742 12.59 34 13.2785 34.97C12.5319 35.0928 12.1376 35.5473 12.0281 36.7472C11.8943 38.2136 12.2261 40.3525 13.2511 41.2616C13.2378 41.6163 13.2643 41.9747 13.3261 42.3332C13.8027 45.0995 16.1928 46.8227 22.0916 45.7077C23.7628 45.3918 25.3132 44.9129 26.6665 44.3257C28.7122 44.8891 31.0201 45.2077 33.2123 45.2077Z" fill="url(#paint1_linear_580_2068)"/>
<path d="M36.4256 44.9357L36.481 44.8524L36.4471 44.8299L36.4072 44.8374L36.4256 44.9357ZM56.0552 47.1031L56.097 47.0122L56.0612 46.9957L56.0237 47.0082L56.0552 47.1031ZM73.5346 39.3724L73.4611 39.3045L73.4016 39.3691L73.4579 39.4365L73.5346 39.3724ZM72.9039 27.6539L72.8074 27.6277L72.7869 27.7033L72.8553 27.7414L72.9039 27.6539ZM68.9367 21.0467L68.837 21.0399L68.831 21.1268L68.9163 21.1446L68.9367 21.0467ZM65.5372 15.1824L65.4452 15.2216L65.4603 15.2571L65.4953 15.2732L65.5372 15.1824ZM56.2479 9.84148L56.1505 9.86413L56.1727 9.9598L56.2688 9.93927L56.2479 9.84148ZM52.8017 7.08749L52.8302 6.99162L52.8017 7.08749ZM37.9901 8.04854L37.9679 8.14604L38.006 8.15474L38.0399 8.13524L37.9901 8.04854ZM18.2122 18.6848L18.2573 18.7741L18.3116 18.7467L18.3122 18.686L18.2122 18.6848ZM14.9056 24.7078L14.8058 24.7031L14.9056 24.7078ZM15.2598 26.686L15.2841 26.7831L15.3967 26.7549L15.3522 26.6477L15.2598 26.686ZM13.2785 34.97L13.2947 35.0686L13.4527 35.0426L13.36 34.9121L13.2785 34.97ZM12.0281 36.7472L11.9285 36.7381L12.0281 36.7472ZM13.2511 41.2616L13.351 41.2653L13.3528 41.2181L13.3174 41.1868L13.2511 41.2616ZM13.3261 42.3332L13.4246 42.3162L13.3261 42.3332ZM22.0916 45.7077L22.0731 45.6094L22.0916 45.7077ZM26.6665 44.3257L26.693 44.2293L26.659 44.22L26.6267 44.234L26.6665 44.3257ZM36.4072 44.8374C35.4662 45.0135 34.4021 45.1077 33.2123 45.1077V45.3077C34.4124 45.3077 35.489 45.2127 36.4439 45.034L36.4072 44.8374ZM48.4968 48.1871C43.8172 48.1871 39.5779 46.9139 36.481 44.8524L36.3701 45.0189C39.5038 47.1048 43.7828 48.3871 48.4968 48.3871V48.1871ZM56.0237 47.0082C53.751 47.7631 51.1969 48.1871 48.4968 48.1871V48.3871C51.2176 48.3871 53.793 47.9599 56.0868 47.198L56.0237 47.0082ZM63.0652 48.3974C60.4053 48.3974 57.9732 47.8752 56.097 47.0122L56.0135 47.1939C57.9195 48.0706 60.3807 48.5974 63.0652 48.5974V48.3974ZM74.112 41.2078C74.112 42.7866 72.8567 44.5829 70.8293 45.9913C68.8075 47.3959 66.0406 48.3974 63.0652 48.3974V48.5974C66.0839 48.5974 68.8903 47.5819 70.9434 46.1556C72.991 44.7331 74.312 42.8845 74.312 41.2078H74.112ZM73.4579 39.4365C73.881 39.9429 74.112 40.5297 74.112 41.2078H74.312C74.312 40.4798 74.0625 39.8482 73.6113 39.3082L73.4579 39.4365ZM75.612 33.7077C75.612 35.8066 74.8207 37.8309 73.4611 39.3045L73.6081 39.4402C75.0026 37.9287 75.812 35.8556 75.812 33.7077H75.612ZM72.8553 27.7414C74.5742 28.6965 75.612 30.5055 75.612 33.7077H75.812C75.812 30.4585 74.7544 28.5679 72.9525 27.5665L72.8553 27.7414ZM73.112 25.5292C73.112 26.1886 73.0052 26.8991 72.8074 27.6277L73.0004 27.6801C73.2019 26.9379 73.312 26.2096 73.312 25.5292H73.112ZM68.9163 21.1446C70.1349 21.3996 71.1835 21.8287 71.9267 22.5244C72.6664 23.217 73.112 24.1818 73.112 25.5292H73.312C73.312 24.1322 72.8475 23.1126 72.0634 22.3784C71.2826 21.6475 70.1937 21.2076 68.9572 20.9489L68.9163 21.1446ZM68.8579 20.4447C68.8579 20.6399 68.8509 20.8384 68.837 21.0399L69.0365 21.0536C69.0507 20.8478 69.0579 20.6446 69.0579 20.4447H68.8579ZM65.4953 15.2732C66.5516 15.76 67.3907 16.4014 67.9661 17.2434C68.5412 18.0849 68.8579 19.1339 68.8579 20.4447H69.0579C69.0579 19.1002 68.7324 18.0103 68.1312 17.1306C67.5304 16.2515 66.6592 15.5894 65.5791 15.0916L65.4953 15.2732ZM57.5581 9.80763C60.6925 9.80763 64.0501 11.9508 65.4452 15.2216L65.6292 15.1431C64.2036 11.801 60.7752 9.60763 57.5581 9.60763V9.80763ZM56.2688 9.93927C56.674 9.85264 57.1039 9.80763 57.5581 9.80763V9.60763C57.0906 9.60763 56.6467 9.65396 56.227 9.74369L56.2688 9.93927ZM52.7733 7.18335C54.9658 7.83433 55.8877 8.73433 56.1505 9.86413L56.3453 9.81882C56.0586 8.58643 55.0522 7.65135 52.8302 6.99162L52.7733 7.18335ZM38.0399 8.13524C39.8769 7.07918 42.5499 6.53999 45.276 6.41677C48.0005 6.29363 50.7634 6.58659 52.7733 7.18335L52.8302 6.99162C50.7943 6.38715 48.0084 6.09307 45.267 6.21697C42.5273 6.34081 39.8173 6.88275 37.9403 7.96185L38.0399 8.13524ZM34.7108 7.80776C35.9111 7.80776 36.9947 7.92403 37.9679 8.14604L38.0123 7.95105C37.0226 7.72526 35.9239 7.60776 34.7108 7.60776V7.80776ZM18.3122 18.686C18.3483 15.4599 20.583 12.742 23.7562 10.8252C26.9274 8.90955 31.0157 7.80776 34.7108 7.80776V7.60776C30.9805 7.60776 26.8562 8.71888 23.6528 10.654C20.4514 12.5879 18.1495 15.3585 18.1122 18.6837L18.3122 18.686ZM15.0055 24.7126C15.0818 23.0952 15.4224 21.8501 15.9781 20.8909C16.5332 19.9328 17.3061 19.2541 18.2573 18.7741L18.1672 18.5956C17.1852 19.0911 16.3816 19.7954 15.8051 20.7906C15.2292 21.7847 14.8831 23.0633 14.8058 24.7031L15.0055 24.7126ZM15.3522 26.6477C15.0965 26.0321 14.9739 25.383 15.0055 24.7126L14.8058 24.7031C14.7727 25.4048 14.9012 26.0832 15.1675 26.7244L15.3522 26.6477ZM12.3118 31.989C12.3118 30.2681 12.5941 29.0837 13.1026 28.273C13.6086 27.4663 14.3459 27.0179 15.2841 26.7831L15.2356 26.589C14.2595 26.8333 13.4727 27.3066 12.9332 28.1667C12.3963 29.0228 12.1118 30.2504 12.1118 31.989H12.3118ZM13.36 34.9121C12.6804 33.9545 12.3118 32.9485 12.3118 31.989H12.1118C12.1118 32.9999 12.4997 34.0455 13.1969 35.0278L13.36 34.9121ZM12.1277 36.7563C12.1818 36.1634 12.3052 35.7714 12.4949 35.514C12.6811 35.2613 12.9399 35.127 13.2947 35.0686L13.2622 34.8713C12.8705 34.9357 12.5588 35.0901 12.3339 35.3954C12.1124 35.6959 11.9839 36.1311 11.9285 36.7381L12.1277 36.7563ZM13.3174 41.1868C12.8277 40.7524 12.4949 40.0143 12.3024 39.1906C12.1106 38.3697 12.0617 37.4791 12.1277 36.7563L11.9285 36.7381C11.8606 37.4817 11.9108 38.3938 12.1077 39.2361C12.3039 40.0758 12.6495 40.8617 13.1847 41.3364L13.3174 41.1868ZM13.4246 42.3162C13.364 41.964 13.338 41.6126 13.351 41.2653L13.1511 41.2578C13.1375 41.6201 13.1647 41.9854 13.2276 42.3501L13.4246 42.3162ZM22.0731 45.6094C19.1323 46.1653 17.0843 46.0098 15.7171 45.385C14.3571 44.7635 13.6582 43.6719 13.4246 42.3162L13.2276 42.3501C13.4706 43.7608 14.2051 44.9139 15.634 45.5669C17.0557 46.2166 19.1521 46.3651 22.1102 45.806L22.0731 45.6094ZM26.6267 44.234C25.2806 44.818 23.7373 45.2948 22.0731 45.6094L22.1102 45.806C23.7882 45.4888 25.3458 45.0077 26.7063 44.4175L26.6267 44.234ZM33.2123 45.1077C31.0292 45.1077 28.7302 44.7904 26.693 44.2293L26.6399 44.4221C28.6943 44.9879 31.0111 45.3077 33.2123 45.3077V45.1077Z" fill="#FA7373" mask="url(#path-5-inside-1_580_2068)"/>
<path d="M30.5073 30.8717L30.2586 31.8282L30.9308 32.5526C30.6603 33.5902 29.5335 34.5644 28.0207 34.9455C26.0737 35.436 23.0494 35.0547 22.7153 33.7286C22.3812 32.4025 24.8638 30.6338 26.8108 30.1433C28.3237 29.7621 29.7775 30.0861 30.5073 30.8717Z" fill="url(#paint2_linear_580_2068)"/>
<path fill-rule="evenodd" clip-rule="evenodd" d="M22.5372 25.7748L23.3696 26.3067L24.2677 25.8905C25.1712 26.4683 25.7497 27.8411 25.6446 29.3979C25.5095 31.4012 24.2123 34.1596 22.8478 34.0675C21.4834 33.9755 20.5684 31.0678 20.7036 29.0646C20.8085 27.5088 21.5652 26.2267 22.5372 25.7748Z" fill="url(#paint3_linear_580_2068)"/>
<path fill-rule="evenodd" clip-rule="evenodd" d="M14.9811 31.6587L15.746 31.0299L15.6278 30.0468C16.4568 29.3674 17.94 29.2421 19.3871 29.8227C21.2506 30.5702 23.4731 32.6564 22.9639 33.9256C22.4547 35.1948 19.4066 35.1665 17.5432 34.4189C16.0961 33.8384 15.1107 32.7227 14.9811 31.6587Z" fill="url(#paint4_linear_580_2068)"/>
<path fill-rule="evenodd" clip-rule="evenodd" d="M19.165 40.7129L18.8043 39.7933L17.8366 39.6028C17.4453 38.6043 17.7842 37.1537 18.7843 35.9559C20.0711 34.4147 22.7419 32.9456 23.7917 33.8221C24.8414 34.6985 23.8726 37.5887 22.5858 39.1299C21.5852 40.3283 20.2175 40.9207 19.165 40.7129Z" fill="url(#paint5_linear_580_2068)"/>
<path fill-rule="evenodd" clip-rule="evenodd" d="M27.8698 40.188L26.8835 40.2469L26.4024 41.1097C25.332 41.1732 24.0572 40.4026 23.2272 39.0815C22.159 37.3814 21.5871 34.3873 22.7451 33.6598C23.9031 32.9322 26.3524 34.7468 27.4205 36.4469C28.2506 37.7681 28.3917 39.2511 27.8698 40.188Z" fill="url(#paint6_linear_580_2068)"/>
<circle cx="22.715" cy="33.7282" r="1.65077" transform="rotate(75.8595 22.715 33.7282)" fill="#FF6464"/>
<path d="M60.5357 15.7991L60.8087 16.5727L61.6077 16.759C61.9035 17.5987 61.5805 18.7923 60.7165 19.7572C59.6046 20.9989 57.3464 22.1411 56.5006 21.3837C55.6548 20.6264 56.5417 18.2563 57.6537 17.0145C58.5177 16.0496 59.6686 15.5974 60.5357 15.7991Z" fill="url(#paint7_linear_580_2068)"/>
<path fill-rule="evenodd" clip-rule="evenodd" d="M52.6854 15.9919L53.5057 15.9713L53.9298 15.2689C54.8197 15.2471 55.8551 15.9231 56.5057 17.043C57.3431 18.4842 57.7315 20.9848 56.7499 21.5551C55.7682 22.1255 53.7882 20.5496 52.9508 19.1083C52.3002 17.9885 52.2257 16.7542 52.6854 15.9919Z" fill="url(#paint8_linear_580_2068)"/>
<path fill-rule="evenodd" clip-rule="evenodd" d="M50.2192 23.5512L50.4534 22.764L49.9157 22.1428C50.1703 21.29 51.1329 20.5145 52.3987 20.2419C54.0282 19.8908 56.5264 20.2942 56.7655 21.404C57.0046 22.5139 54.894 23.91 53.2645 24.261C51.9989 24.5336 50.8025 24.2234 50.2192 23.5512Z" fill="url(#paint9_linear_580_2068)"/>
<path fill-rule="evenodd" clip-rule="evenodd" d="M57.3029 27.8385L56.6267 27.3726L55.8718 27.6911C55.1393 27.1855 54.6992 26.0303 54.8311 24.7422C55.0008 23.084 56.1563 20.8326 57.2858 20.9482C58.4152 21.0638 59.0907 23.5025 58.921 25.1607C58.7891 26.4497 58.1234 27.4924 57.3029 27.8385Z" fill="url(#paint10_linear_580_2068)"/>
<path fill-rule="evenodd" clip-rule="evenodd" d="M63.0478 23.4327L62.3952 23.9323L62.465 24.7502C61.7576 25.2902 60.5233 25.3515 59.3393 24.8283C57.8147 24.1544 56.0307 22.3597 56.4896 21.3213C56.9485 20.2829 59.4767 20.394 61.0013 21.0678C62.1857 21.5913 62.9714 22.5459 63.0478 23.4327Z" fill="url(#paint11_linear_580_2068)"/>
<circle cx="56.5008" cy="21.3834" r="1.37044" transform="rotate(41.8434 56.5008 21.3834)" fill="#FF6464"/>
<path d="M69.9423 33.2637L69.9963 33.9883L70.636 34.3328C70.6941 35.119 70.1413 36.0644 69.179 36.6888C67.9407 37.4923 65.7457 37.9449 65.1984 37.1014C64.6511 36.2579 65.9588 34.4378 67.1971 33.6343C68.1594 33.0099 69.248 32.8903 69.9423 33.2637Z" fill="url(#paint12_linear_580_2068)"/>
<path fill-rule="evenodd" clip-rule="evenodd" d="M63.1892 31.6085L63.8934 31.7807L64.4192 31.2783C65.1856 31.4652 65.9146 32.2835 66.2113 33.3924C66.5928 34.8184 66.345 37.0459 65.3737 37.3057C64.4023 37.5656 63.0754 35.7595 62.6939 34.3334C62.3975 33.2256 62.6199 32.1536 63.1892 31.6085Z" fill="url(#paint13_linear_580_2068)"/>
<path fill-rule="evenodd" clip-rule="evenodd" d="M59.3264 37.496L59.7091 36.8775L59.3935 36.2218C59.8089 35.5519 60.8116 35.1123 61.9567 35.1728C63.4309 35.2506 65.4727 36.1746 65.4196 37.1787C65.3666 38.1828 63.2389 38.8866 61.7647 38.8088C60.6197 38.7483 59.6691 38.2058 59.3264 37.496Z" fill="url(#paint14_linear_580_2068)"/>
<path fill-rule="evenodd" clip-rule="evenodd" d="M64.3867 42.8038L63.9172 42.2494L63.1963 42.3469C62.6871 41.745 62.5786 40.6551 62.9901 39.5844C63.5197 38.2064 65.0294 36.5501 65.968 36.9108C66.9065 37.2715 66.9184 39.5126 66.3889 40.8905C65.9775 41.9609 65.1676 42.6974 64.3867 42.8038Z" fill="url(#paint15_linear_580_2068)"/>
<path fill-rule="evenodd" clip-rule="evenodd" d="M70.3204 40.3723L69.6478 40.6475L69.518 41.362C68.7882 41.6601 67.7183 41.4265 66.8271 40.7043C65.6803 39.7748 64.5715 37.8271 65.2046 37.046C65.8377 36.2648 67.9728 36.9461 69.1197 37.8755C70.011 38.5979 70.4612 39.5965 70.3204 40.3723Z" fill="url(#paint16_linear_580_2068)"/>
<circle cx="65.1988" cy="37.1012" r="1.2137" transform="rotate(57.0224 65.1988 37.1012)" fill="#FF6464"/>
<path d="M47.5592 28.7464L48.1428 29.3772L48.9885 29.2248C49.6213 29.9096 49.806 31.1915 49.3754 32.478C48.8213 34.1336 47.1235 36.169 45.9959 35.7915C44.8682 35.4141 44.7378 32.7668 45.2919 31.1112C45.7225 29.8247 46.6416 28.9123 47.5592 28.7464Z" fill="url(#paint17_linear_580_2068)"/>
<path fill-rule="evenodd" clip-rule="evenodd" d="M40.0916 32.1881L40.8699 31.8289L40.9862 30.9785C41.833 30.5871 43.1103 30.8073 44.2016 31.6149C45.6049 32.6535 47.016 34.8972 46.3086 35.853C45.6012 36.8088 43.0431 36.1149 41.6398 35.0762C40.549 34.2689 39.9652 33.1121 40.0916 32.1881Z" fill="url(#paint18_linear_580_2068)"/>
<path fill-rule="evenodd" clip-rule="evenodd" d="M40.854 40.4831L40.7525 39.6289L39.9774 39.2544C39.8684 38.3286 40.4724 37.1834 41.5766 36.3959C42.998 35.3823 45.5679 34.7335 46.2584 35.7017C46.9488 36.6698 45.4983 38.8882 44.0769 39.9019C42.973 40.6892 41.6938 40.8873 40.854 40.4831Z" fill="url(#paint19_linear_580_2068)"/>
<path fill-rule="evenodd" clip-rule="evenodd" d="M49.444 41.6683L48.6009 41.501L48.0064 42.1213C47.092 41.9392 46.1891 41.0107 45.7813 39.7169C45.2565 38.0518 45.4336 35.4072 46.5678 35.0497C47.7019 34.6923 49.3635 36.7573 49.8883 38.4224C50.2962 39.7163 50.0888 40.9948 49.444 41.6683Z" fill="url(#paint20_linear_580_2068)"/>
<path fill-rule="evenodd" clip-rule="evenodd" d="M53.143 35.0482L52.7242 35.7968L53.1298 36.5527C52.6746 37.3669 51.512 37.9393 50.1546 37.9274C48.4089 37.912 45.9484 36.9262 45.9589 35.7372C45.9694 34.5481 48.4468 33.6059 50.1926 33.6213C51.5499 33.6333 52.7022 34.2261 53.143 35.0482Z" fill="url(#paint21_linear_580_2068)"/>
<circle cx="45.9957" cy="35.7919" r="1.4354" transform="rotate(18.5054 45.9957 35.7919)" fill="#FF6464"/>
<path d="M41.9785 17.4301L41.4951 18.1586L41.8491 18.9582C41.3241 19.7484 40.1011 20.2391 38.7258 20.1225C36.9557 19.9726 34.5354 18.7832 34.6375 17.5776C34.7397 16.372 37.3257 15.6068 39.0957 15.7568C40.471 15.8733 41.5941 16.5628 41.9785 17.4301Z" fill="url(#paint22_linear_580_2068)"/>
<path fill-rule="evenodd" clip-rule="evenodd" d="M36.7791 10.8718L37.3225 11.5565L38.1929 11.4669C38.7823 12.2103 38.8712 13.5252 38.3353 14.7973C37.6457 16.4344 35.7665 18.3687 34.6515 17.899C33.5365 17.4293 33.6079 14.7335 34.2975 13.0964C34.8332 11.8247 35.8356 10.9698 36.7791 10.8718Z" fill="url(#paint23_linear_580_2068)"/>
<path fill-rule="evenodd" clip-rule="evenodd" d="M28.7639 13.619L29.5832 13.3137L29.7669 12.4584C30.6561 12.1277 31.934 12.4496 32.9781 13.3523C34.322 14.514 35.581 16.8989 34.7897 17.8142C33.9984 18.7295 31.4566 17.8285 30.1127 16.6668C29.0687 15.7642 28.5654 14.5466 28.7639 13.619Z" fill="url(#paint24_linear_580_2068)"/>
<path fill-rule="evenodd" clip-rule="evenodd" d="M29.6572 22.399L29.62 21.5252L28.8645 21.0868C28.8248 20.139 29.5258 19.0233 30.7069 18.3092C32.227 17.3902 34.8843 16.9298 35.5102 17.9651C36.1362 19.0005 34.4939 21.1396 32.9738 22.0586C31.7922 22.773 30.4779 22.8751 29.6572 22.399Z" fill="url(#paint25_linear_580_2068)"/>
<path fill-rule="evenodd" clip-rule="evenodd" d="M37.0899 24.465L36.2464 24.23L35.5962 24.8129C34.6829 24.5573 33.8389 23.5461 33.5249 22.2027C33.1206 20.4729 33.5038 17.8035 34.682 17.5281C35.8601 17.2527 37.387 19.4757 37.7913 21.2054C38.1056 22.55 37.7965 23.8315 37.0899 24.465Z" fill="url(#paint26_linear_580_2068)"/>
<circle cx="34.6371" cy="17.5771" r="1.46047" transform="rotate(94.8431 34.6371 17.5771)" fill="#FF6464"/>
<ellipse cx="44" cy="75.7104" rx="38" ry="6" fill="#13B55A"/>
<path d="M29.1372 59.4374L29.9184 60.2819L31.0507 60.0779C31.8979 60.9946 32.1451 62.7108 31.5687 64.433C30.8269 66.6495 28.5539 69.3744 27.0443 68.8691C25.5347 68.3638 25.36 64.8197 26.1018 62.6033C26.6783 60.881 27.9088 59.6595 29.1372 59.4374Z" fill="url(#paint27_linear_580_2068)"/>
<path fill-rule="evenodd" clip-rule="evenodd" d="M19.1391 64.0445L20.1808 63.5637L20.3364 62.4256C21.47 61.9013 23.1803 62.1961 24.6414 63.2774C26.5201 64.6679 28.4093 67.6716 27.4622 68.9512C26.5152 70.2308 23.0905 69.3017 21.2118 67.9113C19.7513 66.8304 18.9698 65.2816 19.1391 64.0445Z" fill="url(#paint28_linear_580_2068)"/>
<path fill-rule="evenodd" clip-rule="evenodd" d="M20.1598 75.1503L20.0239 74.0061L18.9853 73.5043C18.8397 72.265 19.6483 70.7322 21.1263 69.6782C23.0292 68.3211 26.4697 67.4526 27.394 68.7487C28.3184 70.0448 26.3765 73.0147 24.4735 74.3718C22.9961 75.4255 21.2842 75.6909 20.1598 75.1503Z" fill="url(#paint29_linear_580_2068)"/>
<path fill-rule="evenodd" clip-rule="evenodd" d="M31.6601 76.7357L30.5321 76.5118L29.7363 77.342C28.512 77.0986 27.3029 75.8554 26.7569 74.123C26.0543 71.8939 26.2915 68.3534 27.8098 67.8748C29.3281 67.3962 31.5526 70.1608 32.2552 72.39C32.8012 74.1224 32.5236 75.8342 31.6601 76.7357Z" fill="url(#paint30_linear_580_2068)"/>
<path fill-rule="evenodd" clip-rule="evenodd" d="M36.6137 67.8763L36.0543 68.8762L36.5959 69.8856C35.9875 70.9768 34.43 71.7443 32.6117 71.7283C30.2745 71.7077 26.9805 70.388 26.9946 68.7961C27.0086 67.2042 30.3253 65.9429 32.6625 65.9635C34.481 65.9796 36.0246 66.7745 36.6137 67.8763Z" fill="url(#paint31_linear_580_2068)"/>
<circle cx="27.0435" cy="68.8697" r="1.92165" transform="rotate(18.5054 27.0435 68.8697)" fill="#F26C51"/>
<defs>
<linearGradient id="paint0_linear_580_2068" x1="44.5" y1="40.7104" x2="44.5" y2="70.7104" gradientUnits="userSpaceOnUse">
<stop stop-color="#9A5D5D"/>
<stop offset="1" stop-color="#925F43"/>
</linearGradient>
<linearGradient id="paint1_linear_580_2068" x1="45.28" y1="8.70776" x2="45.2803" y2="51.9813" gradientUnits="userSpaceOnUse">
<stop stop-color="#FFACAC"/>
<stop offset="1" stop-color="#FF7A7A"/>
</linearGradient>
<linearGradient id="paint2_linear_580_2068" x1="30.7191" y1="31.7122" x2="22.7153" y2="33.7286" gradientUnits="userSpaceOnUse">
<stop stop-color="white"/>
<stop offset="1" stop-color="#FDDDDD"/>
</linearGradient>
<linearGradient id="paint3_linear_580_2068" x1="23.4034" y1="25.8322" x2="22.8478" y2="34.0675" gradientUnits="userSpaceOnUse">
<stop stop-color="white"/>
<stop offset="1" stop-color="#FDDDDD"/>
</linearGradient>
<linearGradient id="paint4_linear_580_2068" x1="15.3044" y1="30.8528" x2="22.9639" y2="33.9256" gradientUnits="userSpaceOnUse">
<stop stop-color="white"/>
<stop offset="1" stop-color="#FDDDDD"/>
</linearGradient>
<linearGradient id="paint5_linear_580_2068" x1="18.5011" y1="40.1586" x2="23.7917" y2="33.8221" gradientUnits="userSpaceOnUse">
<stop stop-color="white"/>
<stop offset="1" stop-color="#FDDDDD"/>
</linearGradient>
<linearGradient id="paint6_linear_580_2068" x1="27.1362" y1="40.6489" x2="22.7451" y2="33.6597" gradientUnits="userSpaceOnUse">
<stop stop-color="white"/>
<stop offset="1" stop-color="#FDDDDD"/>
</linearGradient>
<linearGradient id="paint7_linear_580_2068" x1="61.0717" y1="16.279" x2="56.5006" y2="21.3837" gradientUnits="userSpaceOnUse">
<stop stop-color="white"/>
<stop offset="1" stop-color="#FDDDDD"/>
</linearGradient>
<linearGradient id="paint8_linear_580_2068" x1="53.3076" y1="15.6304" x2="56.75" y2="21.5553" gradientUnits="userSpaceOnUse">
<stop stop-color="white"/>
<stop offset="1" stop-color="#FDDDDD"/>
</linearGradient>
<linearGradient id="paint9_linear_580_2068" x1="50.0674" y1="22.8469" x2="56.7655" y2="21.404" gradientUnits="userSpaceOnUse">
<stop stop-color="white"/>
<stop offset="1" stop-color="#FDDDDD"/>
</linearGradient>
<linearGradient id="paint10_linear_580_2068" x1="56.5881" y1="27.7653" x2="57.2858" y2="20.9481" gradientUnits="userSpaceOnUse">
<stop stop-color="white"/>
<stop offset="1" stop-color="#FDDDDD"/>
</linearGradient>
<linearGradient id="paint11_linear_580_2068" x1="62.7568" y1="24.0912" x2="56.4896" y2="21.3213" gradientUnits="userSpaceOnUse">
<stop stop-color="white"/>
<stop offset="1" stop-color="#FDDDDD"/>
</linearGradient>
<linearGradient id="paint12_linear_580_2068" x1="70.2892" y1="33.7982" x2="65.1984" y2="37.1014" gradientUnits="userSpaceOnUse">
<stop stop-color="white"/>
<stop offset="1" stop-color="#FDDDDD"/>
</linearGradient>
<linearGradient id="paint13_linear_580_2068" x1="63.8051" y1="31.4426" x2="65.3737" y2="37.3057" gradientUnits="userSpaceOnUse">
<stop stop-color="white"/>
<stop offset="1" stop-color="#FDDDDD"/>
</linearGradient>
<linearGradient id="paint14_linear_580_2068" x1="59.3599" y1="36.8587" x2="65.4196" y2="37.1787" gradientUnits="userSpaceOnUse">
<stop stop-color="white"/>
<stop offset="1" stop-color="#FDDDDD"/>
</linearGradient>
<linearGradient id="paint15_linear_580_2068" x1="63.791" y1="42.5754" x2="65.9679" y2="36.9109" gradientUnits="userSpaceOnUse">
<stop stop-color="white"/>
<stop offset="1" stop-color="#FDDDDD"/>
</linearGradient>
<linearGradient id="paint16_linear_580_2068" x1="69.9194" y1="40.867" x2="65.2046" y2="37.046" gradientUnits="userSpaceOnUse">
<stop stop-color="white"/>
<stop offset="1" stop-color="#FDDDDD"/>
</linearGradient>
<linearGradient id="paint17_linear_580_2068" x1="48.2738" y1="28.9856" x2="45.9959" y2="35.7915" gradientUnits="userSpaceOnUse">
<stop stop-color="white"/>
<stop offset="1" stop-color="#FDDDDD"/>
</linearGradient>
<linearGradient id="paint18_linear_580_2068" x1="40.5389" y1="31.5828" x2="46.3086" y2="35.853" gradientUnits="userSpaceOnUse">
<stop stop-color="white"/>
<stop offset="1" stop-color="#FDDDDD"/>
</linearGradient>
<linearGradient id="paint19_linear_580_2068" x1="40.4154" y1="39.8686" x2="46.2583" y2="35.7017" gradientUnits="userSpaceOnUse">
<stop stop-color="white"/>
<stop offset="1" stop-color="#FDDDDD"/>
</linearGradient>
<linearGradient id="paint20_linear_580_2068" x1="48.7253" y1="41.8948" x2="46.5677" y2="35.0496" gradientUnits="userSpaceOnUse">
<stop stop-color="white"/>
<stop offset="1" stop-color="#FDDDDD"/>
</linearGradient>
<linearGradient id="paint21_linear_580_2068" x1="53.1364" y1="35.8005" x2="45.9589" y2="35.7372" gradientUnits="userSpaceOnUse">
<stop stop-color="white"/>
<stop offset="1" stop-color="#FDDDDD"/>
</linearGradient>
<linearGradient id="paint22_linear_580_2068" x1="41.9138" y1="18.1941" x2="34.6375" y2="17.5776" gradientUnits="userSpaceOnUse">
<stop stop-color="white"/>
<stop offset="1" stop-color="#FDDDDD"/>
</linearGradient>
<linearGradient id="paint23_linear_580_2068" x1="37.4864" y1="11.1693" x2="34.6515" y2="17.8991" gradientUnits="userSpaceOnUse">
<stop stop-color="white"/>
<stop offset="1" stop-color="#FDDDDD"/>
</linearGradient>
<linearGradient id="paint24_linear_580_2068" x1="29.2655" y1="13.0385" x2="34.7897" y2="17.8142" gradientUnits="userSpaceOnUse">
<stop stop-color="white"/>
<stop offset="1" stop-color="#FDDDDD"/>
</linearGradient>
<linearGradient id="paint25_linear_580_2068" x1="29.2609" y1="21.7435" x2="35.51" y2="17.9653" gradientUnits="userSpaceOnUse">
<stop stop-color="white"/>
<stop offset="1" stop-color="#FDDDDD"/>
</linearGradient>
<linearGradient id="paint26_linear_580_2068" x1="36.3442" y1="24.6393" x2="34.682" y2="17.5281" gradientUnits="userSpaceOnUse">
<stop stop-color="white"/>
<stop offset="1" stop-color="#FDDDDD"/>
</linearGradient>
<linearGradient id="paint27_linear_580_2068" x1="30.0939" y1="59.7577" x2="27.0443" y2="68.8691" gradientUnits="userSpaceOnUse">
<stop stop-color="#FFAAAA"/>
<stop offset="1" stop-color="#FDDDDD"/>
</linearGradient>
<linearGradient id="paint28_linear_580_2068" x1="19.7379" y1="63.2343" x2="27.4621" y2="68.9511" gradientUnits="userSpaceOnUse">
<stop stop-color="#FFAAAA"/>
<stop offset="1" stop-color="#FDDDDD"/>
</linearGradient>
<linearGradient id="paint29_linear_580_2068" x1="19.572" y1="74.327" x2="27.394" y2="68.7487" gradientUnits="userSpaceOnUse">
<stop stop-color="#FFAAAA"/>
<stop offset="1" stop-color="#FDDDDD"/>
</linearGradient>
<linearGradient id="paint30_linear_580_2068" x1="30.6982" y1="77.0389" x2="27.8098" y2="67.8748" gradientUnits="userSpaceOnUse">
<stop stop-color="#FFAAAA"/>
<stop offset="1" stop-color="#FDDDDD"/>
</linearGradient>
<linearGradient id="paint31_linear_580_2068" x1="36.6048" y1="68.8809" x2="26.9946" y2="68.7961" gradientUnits="userSpaceOnUse">
<stop stop-color="#FFAAAA"/>
<stop offset="1" stop-color="#FDDDDD"/>
</linearGradient>
</defs>
</svg>
