<svg width="70" height="70" viewBox="0 0 88 88" fill="none" xmlns="http://www.w3.org/2000/svg">
<path d="M22.2921 49.4639C22.9886 62.8043 21.6945 68.2424 21.4961 68.4639" stroke="#B67A82" stroke-width="5" stroke-linecap="round"/>
<path fill-rule="evenodd" clip-rule="evenodd" d="M16.3818 53.399C17.4986 53.399 18.515 53.1355 19.2745 52.7044C20.4912 53.5967 22.1384 54.1445 23.9518 54.1445C25.0166 54.1445 26.0241 53.9557 26.9208 53.6191C27.8858 54.3743 29.4378 54.8643 31.188 54.8643C34.1148 54.8643 35.4998 52.8142 35.4998 51.1243C35.4998 50.4604 35.2861 49.9509 34.8492 49.5769C34.9764 49.2157 35.0422 48.8197 35.0422 48.4043C35.0422 46.0691 34.4089 45.516 33.2677 45.3849C33.378 45.093 33.4386 44.8062 33.4386 44.5416C33.4386 43.4454 32.3981 43.0464 31.0951 42.9181C31.1319 42.6732 31.151 42.4348 31.151 42.2063C31.151 39.7813 29.0062 39.3026 26.2062 39.2341C25.5569 38.7963 24.7758 38.5443 24.0233 38.5443C23.638 38.5443 23.292 38.6103 22.9863 38.7336C22.7896 38.1842 22.3582 37.8643 21.4369 37.8643C20.555 37.8643 19.3701 38.1575 18.316 38.6644C18.0277 38.5854 17.7105 38.5443 17.3628 38.5443C15.8377 38.5443 14.1019 39.3352 13.0703 40.6493C11.4671 40.8296 10.3281 41.4843 10.3281 43.7526C10.3281 43.922 10.3459 44.0883 10.3803 44.2504C9.76716 44.6939 9.41301 45.2969 9.41301 46.0668C9.41301 46.4755 9.51285 46.8976 9.69827 47.3079C8.9408 47.2617 8.56839 47.4004 8.50813 48.1455C8.43775 49.0156 8.81915 50.3924 9.8513 50.5802C9.45565 51.0909 9.3525 51.6855 9.44336 52.2805C9.63033 53.505 10.568 54.2678 12.8822 53.7742C13.5275 53.6366 14.127 53.429 14.652 53.1747C15.1805 53.3188 15.7659 53.399 16.3818 53.399Z" fill="url(#paint0_linear_580_2069)"/>
<path d="M75.193 36.8643C69.1141 47.0521 62.0985 52.7505 61.4827 52.4335" stroke="#986060" stroke-width="2.5" stroke-linecap="round"/>
<path d="M57.2432 50.5987C44.2591 46.2899 44.4724 36.9452 44.9894 35.8641" stroke="#986060" stroke-width="2" stroke-linecap="round"/>
<path d="M57.6896 37.3643C59.0826 58.4281 56.4944 67.0145 56.0977 67.3643" stroke="#986060" stroke-width="9" stroke-linecap="round"/>
<path fill-rule="evenodd" clip-rule="evenodd" d="M62.4708 44.744C64.0541 44.744 65.5636 44.4693 66.9396 43.9718C68.1178 44.5345 69.5466 44.8641 71.0865 44.8641C75.1234 44.8641 78.396 42.5994 78.396 39.8057C78.396 39.7947 78.396 39.7836 78.3959 39.7726C81.643 39.6403 83.5 37.429 83.5 34.7205C83.5 31.8844 82.879 30.6384 81.7272 30.091C82.282 28.9795 82.4487 27.4674 81.9617 25.4244C80.4974 22.0463 79.4233 22.2291 77.7478 22.5857C77.6663 17.6223 73.3716 16.9719 68.0277 16.9501C67.3771 15.8059 66.5365 15.0463 65.6909 14.823C65.438 12.9814 64.6336 11.8643 62.267 11.8643C59.7966 11.8643 56.1774 13.0816 53.6355 15.0699C52.8592 14.6385 51.9228 14.4067 50.8119 14.4067C47.4697 14.4067 43.5591 16.5045 42.1201 19.8255C39.9657 20.3853 38.5205 21.8538 38.5205 25.6343C38.5205 25.8123 38.5295 25.9885 38.5472 26.1627C37.2516 26.9423 36.5 28.0157 36.5 29.3972C36.5 30.2379 36.7783 31.111 37.2882 31.9445C37.0145 32.3013 36.8509 32.896 36.7825 33.8519C36.6585 35.5833 36.8802 38.0282 37.6165 39.3432C37.4914 39.9233 37.4818 40.5268 37.5634 41.1305C37.8844 43.5044 39.4941 44.9831 43.4669 44.0262C44.5753 43.7593 45.6048 43.3567 46.5063 42.8633C47.4139 43.143 48.419 43.2984 49.4766 43.2984C51.3934 43.2984 53.1379 42.7878 54.4416 41.9524C56.5303 43.6821 59.3579 44.744 62.4708 44.744Z" fill="url(#paint1_linear_580_2069)"/>
<ellipse cx="42.5" cy="67.8643" rx="38" ry="6" fill="#089D49"/>
<path d="M48.0469 67.6754C43.3975 72.3249 36.1221 72.6713 34.0434 70.5926C31.9647 68.5139 32.3112 61.2385 36.9606 56.5891C40.6765 52.8732 41.213 57.3002 44.2744 60.3617C47.3358 63.4231 51.7628 63.9595 48.0469 67.6754Z" fill="#B55757"/>
<path d="M49.2814 65.7427C47.9332 67.0908 47.2027 64.3569 43.7382 60.8924C40.2738 57.4279 37.5398 56.6974 38.888 55.3492C40.2361 54.001 44.1775 55.0956 46.8563 57.7744C49.535 60.4531 50.6296 64.3945 49.2814 65.7427Z" fill="#E8B66C"/>
<path d="M45.8274 58.8138C46.6358 57.5435 48.5297 55.0028 49.6383 55.0028" stroke="#31201F" stroke-linecap="round"/>
<defs>
<linearGradient id="paint0_linear_580_2069" x1="30.9234" y1="39.5643" x2="25.7754" y2="55.9771" gradientUnits="userSpaceOnUse">
<stop stop-color="#37E06E"/>
<stop offset="1" stop-color="#29C75D"/>
</linearGradient>
<linearGradient id="paint1_linear_580_2069" x1="60" y1="11.8643" x2="60" y2="44.8643" gradientUnits="userSpaceOnUse">
<stop stop-color="#00CD42"/>
<stop offset="1" stop-color="#20BC53"/>
</linearGradient>
</defs>
</svg>
