<svg width="70" height="70" viewBox="0 0 88 88" fill="none" xmlns="http://www.w3.org/2000/svg">
<path d="M68.796 53C69.4925 67.7447 68.1984 73.7552 68 74" stroke="#916363" stroke-width="5" stroke-linecap="round"/>
<path fill-rule="evenodd" clip-rule="evenodd" d="M65.5774 58.7368C66.3104 58.7368 66.9775 58.5137 67.476 58.1486C68.2748 58.9045 69.3562 59.3685 70.5466 59.3685C70.9526 59.3685 71.3458 59.3146 71.7195 59.2135C72.2323 59.6946 73 60.0002 73.8579 60.0002C75.4017 60.0002 76.6533 59.0105 76.6533 57.7896C76.6533 57.6483 76.6365 57.51 76.6044 57.376C77.5001 57.0978 78.0007 56.2571 78.0007 55.2633C78.0007 53.4628 77.4995 53.1288 76.603 53.0669C76.7663 52.6843 76.8611 52.2935 76.8611 51.9474C76.8611 51.0171 76.1756 50.6794 75.3179 50.5714C75.3798 50.2267 75.4125 49.892 75.4125 49.5791C75.4125 47.688 74.2193 47.194 72.5958 47.0821C72.3059 46.5661 71.9356 46.2632 71.5804 46.2632C71.3849 46.2632 71.2135 46.3549 71.067 46.5235C71.0479 45.5889 70.9368 45 70.4415 45C70.0652 45 69.5392 45.3401 69.1116 45.9135C68.7656 45.4293 68.284 45.158 67.6469 45.158C66.2808 45.158 64.6573 46.4052 64.3016 48.3236C62.9696 48.377 61.9519 48.7584 61.9519 51.0001C61.9519 51.3572 62.0245 51.698 62.1564 52.0097C61.7036 52.3484 61.4346 52.8509 61.4346 53.5263C61.4346 53.966 61.5486 54.4265 61.7532 54.8511C61.555 54.8592 61.4546 54.9538 61.4352 55.2634C61.4212 55.4871 61.4523 55.7795 61.5393 56.0182C61.0737 56.512 60.9446 57.1505 61.0202 57.7897C61.1429 58.8271 61.7585 59.4733 63.2779 59.0552C63.702 58.9384 64.0961 58.7623 64.441 58.5465C64.7882 58.6688 65.1728 58.7368 65.5774 58.7368Z" fill="#23AB4F"/>
<path d="M60.3494 35.5533C55.4779 47.7368 48.7163 49.624 48.0001 49.4166" stroke="#916363" stroke-width="2.5" stroke-linecap="round"/>
<path d="M44.592 37C45.9849 61.5745 43.3967 71.592 43 72" stroke="#916363" stroke-width="9" stroke-linecap="round"/>
<path d="M22.796 53C23.4925 66.3404 22.1984 71.7785 22 72" stroke="#A17174" stroke-width="7" stroke-linecap="round"/>
<path fill-rule="evenodd" clip-rule="evenodd" d="M34.4589 38.3895C36.6154 38.3895 38.578 37.9282 40.0445 37.1734C42.394 38.7357 45.5746 39.6948 49.0762 39.6948C50.6328 39.6948 52.1258 39.5053 53.5107 39.1576C55.1483 40.2932 57.4502 41 59.9998 41C64.9703 41 68.9998 38.3137 68.9998 35C68.9998 34.3695 68.8539 33.7616 68.5834 33.1907C69.5067 32.1093 69.9998 30.6306 69.9998 29C69.9998 25.3706 69.2546 23.9366 67.8812 23.3701C67.9588 22.9599 67.9998 22.56 67.9998 22.1786C67.9998 19.9761 66.6342 18.9033 64.7264 18.4031C63.6945 15.6781 61.8451 14.6395 59.102 14.2437C57.9339 13.029 56.3644 12.2345 54.798 12.0442C53.5688 10.4098 51.4011 9.5 48.5 9.5C46.9369 9.5 45.3586 9.76409 43.9494 10.2633C42.7626 9.44912 41.2021 9 39.2215 9C34.5032 9 28.9267 11.5488 27.4021 15.51C25.3445 16.2029 24 17.8116 24 21.5C24 21.8048 24.0258 22.1046 24.0758 22.3982C22.7731 23.2695 22 24.5562 22 26.2812C22 27.6948 22.5191 29.1919 23.4232 30.4876C22.6842 30.5924 22.3006 30.9525 22.2236 31.8164C22.1254 32.9172 22.553 34.5204 23.6781 35.3269C23.5893 35.7801 23.5928 36.2465 23.6713 36.7132C24.0324 38.857 25.843 40.1925 30.3116 39.3284C31.48 39.1025 32.5705 38.7689 33.5376 38.3611C33.84 38.3799 34.1474 38.3895 34.4589 38.3895Z" fill="#05C342"/>
<path fill-rule="evenodd" clip-rule="evenodd" d="M26.3275 46.4286C25.6649 46.1431 24.9329 46 24.3004 46C23.3735 46 22.8571 46.3074 22.5824 46.9198C22.1512 46.6021 21.6023 46.4286 20.9224 46.4286C19.2733 46.4286 17.3469 47.45 16.6092 49.0719C15.3845 49.232 14.4896 49.7318 14.327 51.2378C13.6843 51.5863 13.3004 52.1122 13.3004 52.8256C13.3004 52.9822 13.3189 53.1414 13.3546 53.3007C12.0957 54.025 11.8351 55.5529 12.0863 57.1669C12.3902 59.1193 13.328 60.4582 15.3834 60.0281C15.8928 59.9215 16.3632 59.7227 16.7779 59.4543C17.2926 59.6119 17.8752 59.7008 18.4924 59.7008C19.4844 59.7008 20.3871 59.4712 21.0616 59.0956C22.1423 59.8731 23.6053 60.3504 25.216 60.3504C25.9788 60.3504 26.7084 60.2434 27.3801 60.0481C28.0087 60.6377 28.8614 61 29.8004 61C31.7334 61 33.3004 59.465 33.3004 57.5714C33.3004 57.2357 33.2512 56.9112 33.1593 56.6046C33.9129 56.1984 34.3234 55.4981 34.3234 54.7023C34.3234 53.5075 34.0412 52.9406 33.5152 52.6715C33.5084 51.6367 33.1135 50.4584 32.4875 49.7101C32.1151 49.265 31.7074 49.0277 31.2822 48.9382C31.0646 46.7034 28.9316 46.4304 26.3275 46.4286Z" fill="#01B53B"/>
<ellipse cx="44" cy="73" rx="38" ry="6" fill="#089D49"/>
</svg>
