<svg width="70" height="70" viewBox="0 0 88 88" fill="none" xmlns="http://www.w3.org/2000/svg">
<path d="M43.204 54.5674C42.5075 65.8014 43.8016 70.3808 44 70.5674" stroke="#AD747B" stroke-width="4" stroke-linecap="round"/>
<path fill-rule="evenodd" clip-rule="evenodd" d="M40.499 56.8938C41.0595 56.8938 41.5697 56.7749 41.9509 56.5802C42.5618 56.9833 43.3886 57.2307 44.2989 57.2307C44.6102 57.2307 44.9118 57.2018 45.1983 57.1476C45.5904 57.4043 46.1776 57.5675 46.834 57.5675C48.0145 57.5675 48.9716 57.0396 48.9716 56.3885C48.9716 56.3129 48.9587 56.2389 48.934 56.1673C49.6173 56.0183 49.9991 55.5704 49.9991 55.0411C49.9991 54.0815 49.6164 53.9029 48.9318 53.8697C49.0566 53.6657 49.1291 53.4573 49.1291 53.2728C49.1291 52.7762 48.6041 52.5962 47.9475 52.5388C47.9949 52.3549 48.0199 52.1763 48.0199 52.0094C48.0199 51.0011 47.108 50.7375 45.8671 50.6777C45.6454 50.4025 45.3622 50.241 45.0907 50.241C44.9417 50.241 44.811 50.2896 44.6993 50.3789C44.6846 49.881 44.5994 49.5674 44.221 49.5674C43.933 49.5674 43.5303 49.7491 43.2032 50.0554C42.9386 49.7966 42.57 49.6516 42.0823 49.6516C41.0376 49.6516 39.7961 50.3168 39.5241 51.34C38.5062 51.3685 37.7286 51.5723 37.7286 52.7674C37.7286 52.9578 37.784 53.1394 37.8847 53.3056C37.5381 53.4862 37.3321 53.7544 37.3321 54.1148C37.3321 54.3493 37.4192 54.5948 37.5755 54.8212C37.423 54.8252 37.3458 54.8755 37.3309 55.0411C37.3202 55.1608 37.3441 55.3172 37.4111 55.4447C37.0561 55.7079 36.9577 56.048 37.0154 56.3885C37.1093 56.9418 37.5801 57.2864 38.7419 57.0634C39.0659 57.0012 39.3669 56.9074 39.6305 56.7925C39.8958 56.8576 40.1898 56.8938 40.499 56.8938Z" fill="#009530"/>
<path d="M73.3186 59.6111C73.6463 66.3305 72.2043 68.9828 72.0001 69.0828" stroke="#AD747B" stroke-width="3" stroke-linecap="round"/>
<path fill-rule="evenodd" clip-rule="evenodd" d="M71.2312 60.6927C71.7479 60.6927 72.2182 60.5773 72.57 60.3885C73.1338 60.7799 73.8966 61.0201 74.7363 61.0201C75.024 61.0201 75.3026 60.9919 75.5673 60.9391C75.9293 61.1891 76.4718 61.348 77.0781 61.348C78.1681 61.348 79.0517 60.8346 79.0517 60.2013C79.0517 60.1277 79.0398 60.0558 79.017 59.986C79.6475 59.841 79.9999 59.4055 79.9999 58.8908C79.9999 57.9565 79.6458 57.7835 79.0124 57.7514C79.1276 57.553 79.1946 57.3502 79.1946 57.1707C79.1946 56.6886 78.7115 56.5133 78.1067 56.4571C78.1504 56.2783 78.1735 56.1046 78.1735 55.9423C78.1735 54.9614 77.3313 54.7052 76.1852 54.6471C75.9805 54.3793 75.719 54.2222 75.4682 54.2222C75.3302 54.2222 75.2092 54.2697 75.1058 54.3572C75.0923 53.8726 75.0138 53.5674 74.6642 53.5674C74.3985 53.5674 74.0271 53.7438 73.7251 54.0413C73.4809 53.7902 73.1409 53.6494 72.691 53.6494C71.7265 53.6494 70.5802 54.2964 70.3291 55.2917C69.3896 55.3195 68.672 55.5178 68.672 56.6799C68.672 56.8652 68.7233 57.042 68.8164 57.2037C68.4966 57.3794 68.3065 57.6401 68.3065 57.9905C68.3065 58.2184 68.3869 58.457 68.5311 58.6771C68.3893 58.6807 68.3176 58.7294 68.3038 58.891C68.2938 59.0076 68.316 59.1601 68.3781 59.2842C68.0511 59.5402 67.9605 59.8706 68.0138 60.2015C68.1004 60.7396 68.5351 61.0748 69.6077 60.8579C69.9072 60.7973 70.1854 60.7059 70.4289 60.594C70.6741 60.6574 70.9455 60.6927 71.2312 60.6927Z" fill="#2A994E"/>
<path d="M70.0193 32.7592C70.5539 48.56 61.2571 52.6382 60.0002 52.5862" stroke="#916363" stroke-width="2.5" stroke-linecap="round"/>
<path d="M23.8213 51.5102C12.5383 46.7153 14.445 38.4823 15.1232 37.5674" stroke="#916363" stroke-width="2" stroke-linecap="round"/>
<path d="M56.5922 36.5674C57.9852 57.6312 55.397 66.2176 55.0002 66.5674" stroke="#916363" stroke-width="9" stroke-linecap="round"/>
<path d="M25.5921 43.5674C26.985 60.4184 24.3969 67.2876 24.0001 67.5674" stroke="#916363" stroke-width="9" stroke-linecap="round"/>
<path fill-rule="evenodd" clip-rule="evenodd" d="M62.3904 42.5306C63.8803 42.5306 65.3082 42.2993 66.63 41.8754C67.5786 42.1647 68.6267 42.3253 69.7288 42.3253C73.3737 42.3253 76.4293 40.5691 77.244 38.2062C77.3076 38.2083 77.3714 38.2093 77.4355 38.2093C80.9696 38.2093 83 34.9814 83 30.9995C83 26.9522 82.3602 25.1768 81.1737 24.3981C81.8616 22.9062 82.2059 20.8814 81.964 18.2023C81.5723 13.8639 79.6295 13.5478 77.1344 13.5542C76.1152 9.12871 71.8228 8.56738 66.6822 8.56738L66.658 8.56741C65.7215 7.03082 64.225 6.06738 62.0002 6.06738C60.0308 6.06738 57.824 6.82236 55.9856 8.06157C55.237 7.73836 54.3739 7.56738 53.3885 7.56738C49.0687 7.56738 43.9028 10.8528 43.1056 15.846C40.4637 16.3117 38.632 17.766 38.632 22.1674C38.632 23.0361 38.8327 23.8653 39.1971 24.6235C37.9447 25.4477 37.2004 26.6707 37.2004 28.3147C37.2004 29.3845 37.5156 30.505 38.081 31.538C37.5323 31.5574 37.2543 31.7874 37.2006 32.5412C37.1618 33.0863 37.2478 33.7988 37.4892 34.3798C36.2036 35.5812 35.8472 37.134 36.0562 38.6884C36.3955 41.2126 38.0975 42.7851 42.298 41.7676C43.4698 41.4838 44.5583 41.0557 45.5114 40.5311C46.4709 40.8283 47.5334 40.9936 48.6515 40.9936C50.6782 40.9936 52.5227 40.4506 53.9011 39.5622C56.1095 41.4015 59.0991 42.5306 62.3904 42.5306Z" fill="url(#paint0_linear_580_2071)"/>
<path fill-rule="evenodd" clip-rule="evenodd" d="M18.0359 44.0417C19.8042 44.0417 21.4135 43.5952 22.616 42.8649C24.5425 44.3765 27.1503 45.3044 30.0213 45.3044C31.0014 45.3044 31.9509 45.1963 32.853 44.9937C34.0897 45.956 35.9412 46.5674 38.0105 46.5674C41.734 46.5674 44.7524 44.588 44.7524 42.1463C44.7524 41.8636 44.7119 41.5871 44.6346 41.3191C46.7932 40.7619 47.9999 39.0811 47.9999 37.0942C47.9999 33.4949 46.7922 32.8258 44.6318 32.7014C45.0256 31.9363 45.2544 31.1543 45.2544 30.4621C45.2544 28.6001 43.5987 27.9252 41.5282 27.7096C41.6774 27.0205 41.7561 26.3511 41.7561 25.7255C41.7561 21.945 38.8812 20.9562 34.9683 20.7318C34.3829 19.8676 33.6616 19.3023 32.9396 19.1412C32.7482 17.5482 32.0121 16.5674 29.5057 16.5674C28.2314 16.5674 26.6483 16.8209 25.0683 17.2795C24.4793 17.02 23.8014 16.8828 23.0288 16.8828C19.7339 16.8828 15.8183 19.3775 14.9606 23.2148C11.7507 23.3221 9.29899 24.0865 9.29899 28.5677C9.29899 29.2812 9.47382 29.9623 9.79123 30.5851C8.69786 31.2626 8.04801 32.2681 8.04801 33.6199C8.04801 34.4993 8.32298 35.4202 8.81611 36.2692C8.33796 36.2853 8.09568 36.4745 8.04888 37.0937C8.01504 37.5415 8.09 38.1266 8.30022 38.6039C7.1777 39.5915 6.86644 40.8684 7.04881 42.1465C7.34486 44.2212 8.82957 45.5136 12.4938 44.6774C13.5157 44.4441 14.465 44.0924 15.2963 43.6614C16.1334 43.9058 17.0605 44.0417 18.0359 44.0417Z" fill="url(#paint1_linear_580_2071)"/>
<ellipse cx="43.0001" cy="68.5674" rx="38" ry="6" fill="#089D49"/>
<path d="M24.2927 72.7256C27.9375 70.2356 35.7981 65.3968 38.083 65.9608" stroke="#31201F" stroke-width="0.5" stroke-linecap="round"/>
<path d="M26.589 66.3294C29.6483 64.8141 33.2785 65.2932 34.1719 67.7241C35.0653 70.1549 32.8836 73.6168 29.8243 75.1322C26.765 76.6476 20.813 75.4637 20.4729 74.5383C20.1327 73.6129 23.5298 67.8448 26.589 66.3294Z" fill="url(#paint2_linear_580_2071)"/>
<defs>
<linearGradient id="paint0_linear_580_2071" x1="77.0004" y1="12.0674" x2="42.0004" y2="35.5674" gradientUnits="userSpaceOnUse">
<stop stop-color="#00C13E"/>
<stop offset="1" stop-color="#00A234"/>
</linearGradient>
<linearGradient id="paint1_linear_580_2071" x1="27.5" y1="16.5674" x2="27.5" y2="46.5674" gradientUnits="userSpaceOnUse">
<stop stop-color="#F96613"/>
<stop offset="1" stop-color="#EA7D2E"/>
</linearGradient>
<linearGradient id="paint2_linear_580_2071" x1="23.802" y1="75.9265" x2="25.2874" y2="65.7359" gradientUnits="userSpaceOnUse">
<stop stop-color="#C98863"/>
<stop offset="1" stop-color="#F16F23"/>
</linearGradient>
</defs>
</svg>
