<svg width="70" height="70" viewBox="0 0 88 88" fill="none" xmlns="http://www.w3.org/2000/svg">
<rect x="39" y="24.5" width="10" height="46.5" fill="#926666"/>
<path d="M43.8593 35.1392C43.9372 35.0621 44.0628 35.0621 44.1407 35.1392L61.8408 52.6579C61.9678 52.7835 61.8788 53 61.7001 53H26.2999C26.1212 53 26.0322 52.7835 26.1592 52.6579L43.8593 35.1392Z" fill="#68BB4C"/>
<path d="M43.8559 29.1498C43.9346 29.068 44.0654 29.068 44.1441 29.1498L60.9946 46.6613C61.1169 46.7884 61.0268 47 60.8505 47H27.1495C26.9732 47 26.8831 46.7884 27.0054 46.6613L43.8559 29.1498Z" fill="#68BB4C"/>
<path d="M43.8498 24.1707C43.9295 24.0802 44.0705 24.0802 44.1502 24.1707L57.5642 39.4179C57.6779 39.5471 57.5862 39.75 57.4141 39.75H30.5859C30.4138 39.75 30.3221 39.5471 30.4358 39.4179L43.8498 24.1707Z" fill="#68BB4C"/>
<path d="M43.8445 18.1924C43.9245 18.0934 44.0755 18.0934 44.1555 18.1924L55.8611 32.6743C55.9668 32.8051 55.8737 33 55.7055 33H32.2945C32.1263 33 32.0332 32.8051 32.1389 32.6743L43.8445 18.1924Z" fill="#68BB4C"/>
<path d="M43.8346 12.2436C43.9139 12.1267 44.0861 12.1267 44.1654 12.2436L52.4481 24.4376C52.5383 24.5704 52.4432 24.75 52.2826 24.75H35.7174C35.5568 24.75 35.4617 24.5704 35.5519 24.4376L43.8346 12.2436Z" fill="#68BB4C"/>
<path d="M10.8006 59.6362L14.0064 63.2726L15.8842 70.5454H7L10.8006 59.6362Z" fill="#009932"/>
<path d="M14.0062 61.4546L18.4483 72.3637H9.56415L14.0062 61.4546Z" fill="#009932"/>
<path d="M17.8539 57.8184L22.296 70.0912H13.4118L17.8539 57.8184Z" fill="#009932"/>
<path d="M19.1361 59.6362L23.5782 70.5454H14.694L19.1361 59.6362Z" fill="#009932"/>
<path d="M20.4177 59.6362L21.6997 65.0908L24.8598 70.5454H15.9756L20.4177 59.6362Z" fill="#009932"/>
<path d="M21.7006 61.4546L26.1427 72.3637H17.2585L21.7006 61.4546Z" fill="#009932"/>
<path d="M23.5 58.6665L28.7074 69.6363H19.8232L22.9827 62.3635L23.5 58.6665Z" fill="#009932"/>
<path d="M26.8298 59.6362L31.2719 70.5454H22.3877L26.1883 65.0908L26.8298 59.6362Z" fill="#009932"/>
<path d="M28.112 59.6367L32.5541 70.5459H23.6699L25.5 62.0003L28.112 59.6367Z" fill="#009932"/>
<path d="M30.6774 59.6362L35.1195 70.5454H26.2354L30.036 60.5453L30.6774 59.6362Z" fill="#009932"/>
<path d="M33.2419 59.6362L34.5239 61.4544L37.684 70.5454H28.7998L33.2419 59.6362Z" fill="#009932"/>
<path d="M35.806 61.4546L40.2481 72.3637H31.364L35.806 61.4546Z" fill="#009932"/>
<path d="M39.653 59.6362L39.6527 65.0908L44.0951 70.5454H35.2109L39.653 59.6362Z" fill="#009932"/>
<path d="M41.5 61L43.8123 62.1733L46 69H37L41.5 61Z" fill="#009932"/>
<path d="M44.5 60L49 67H40L43.2007 63.5L44.5 60Z" fill="#009932"/>
<path d="M47.3471 59.6362L51.7892 70.5454H42.905L47.3471 59.6362Z" fill="#009932"/>
<path d="M51.194 61.4546L55.6361 71.0001H46.752L47.9879 65.091L51.194 61.4546Z" fill="#009932"/>
<path d="M52.476 61.4546L56.9181 71.0001H48.0339L52.476 61.4546Z" fill="#009932"/>
<path d="M55.0407 59.6362L59.4828 69.1817H50.5986L53.7581 64.1817L55.0407 59.6362Z" fill="#009932"/>
<path d="M57.6049 61.4546L62.047 71.0001H53.1628L57.6049 61.4546Z" fill="#009932"/>
<path d="M58.8874 61.4546L63.3295 71.0001H54.4453L58.2459 65.091L58.8874 61.4546Z" fill="#009932"/>
<path d="M61.4525 59.6362L65.8946 69.1817H57.0104L61.4525 59.6362Z" fill="#009932"/>
<path d="M64.0173 56L68.4594 69.6364H59.5752L62.7347 58.7273L64.0173 56Z" fill="#009932"/>
<path d="M66.5814 59.6362L71.0235 69.1817H62.1393L66.5814 59.6362Z" fill="#009932"/>
<path d="M67.8637 59.6362L72.3058 69.1817H63.4216L67.8637 59.6362Z" fill="#009932"/>
<path d="M70.4294 61.4546L71.7114 62.3637L74.8715 71.0001H65.9873L70.4294 61.4546Z" fill="#009932"/>
<path d="M72.9935 61.4546L77.4356 71.0001H68.5515L72.9935 61.4546Z" fill="#009932"/>
<path d="M75.5583 59.6362L80.0004 69.1817H71.1162L74.2757 65.0908L75.5583 59.6362Z" fill="#009932"/>
<path d="M49.9118 59.6362L49.2704 65.0908L54.3539 70.5454H45.4697L49.9118 59.6362Z" fill="#009932"/>
<ellipse cx="44" cy="70" rx="38" ry="6" fill="#04B13C"/>
</svg>
