<svg width="70" height="70" viewBox="0 0 88 88" fill="none" xmlns="http://www.w3.org/2000/svg">
<rect x="59" y="32.6997" width="8" height="34.8" fill="#926666"/>
<path d="M62.8464 40.6842C62.9264 40.5883 63.0736 40.5883 63.1536 40.6842L73.9847 53.6719C74.0933 53.8022 74.0007 54 73.8311 54H52.1689C51.9993 54 51.9067 53.8022 52.0153 53.6719L62.8464 40.6842Z" fill="#46B81F"/>
<path d="M62.8384 34.7216C62.9183 34.612 63.0817 34.612 63.1616 34.7216L73.1605 48.4322C73.2569 48.5643 73.1625 48.75 72.9989 48.75H53.0011C52.8375 48.75 52.7431 48.5643 52.8395 48.4322L62.8384 34.7216Z" fill="#46B81F"/>
<path d="M62.8398 30.7144C62.9198 30.6074 63.0802 30.6074 63.1602 30.7144L72.2874 42.9303C72.386 43.0622 72.2918 43.25 72.1272 43.25H53.8728C53.7082 43.25 53.614 43.0622 53.7126 42.9303L62.8398 30.7144Z" fill="#46B81F"/>
<path d="M62.8317 24.7624C62.9104 24.6397 63.0896 24.6397 63.1683 24.7624L71.4627 37.692C71.5481 37.8251 71.4525 38 71.2943 38H54.7057C54.5475 38 54.4519 37.8251 54.5373 37.692L62.8317 24.7624Z" fill="#46B81F"/>
<rect x="24" y="23.1001" width="10" height="46.3999" fill="#926666"/>
<path d="M28.8378 31.7247C28.9176 31.6141 29.0824 31.6141 29.1622 31.7247L46.0917 55.1834C46.1872 55.3157 46.0927 55.5004 45.9295 55.5004H12.0705C11.9073 55.5004 11.8128 55.3157 11.9083 55.1834L28.8378 31.7247Z" fill="#68BB4C"/>
<path d="M28.8323 23.7582C28.9111 23.6368 29.0889 23.6368 29.1677 23.7582L44.3878 47.1915C44.4742 47.3245 44.3787 47.5004 44.2201 47.5004H13.7799C13.6213 47.5004 13.5258 47.3245 13.6122 47.1915L28.8323 23.7582Z" fill="#68BB4C"/>
<path d="M28.33 18.7741C28.4082 18.648 28.5918 18.648 28.67 18.7741L40.868 38.4446C40.9506 38.5778 40.8548 38.75 40.698 38.75H16.302C16.1452 38.75 16.0494 38.5778 16.132 38.4446L28.33 18.7741Z" fill="#68BB4C"/>
<path d="M28.8356 16.7373C28.9151 16.6225 29.0849 16.6225 29.1644 16.7373L39.1748 31.1861C39.2667 31.3187 39.1718 31.5 39.0104 31.5H18.9896C18.8282 31.5 18.7333 31.3187 18.8252 31.1861L28.8356 16.7373Z" fill="#68BB4C"/>
<path d="M28.8268 10.8C28.9038 10.6667 29.0962 10.6667 29.1732 10.8L36.621 23.7C36.698 23.8333 36.6018 24 36.4478 24H21.5522C21.3982 24 21.302 23.8333 21.379 23.7L28.8268 10.8Z" fill="#68BB4C"/>
<path d="M11.8006 63.2271L15.0064 65.9543L16.8842 71.4089H8L11.8006 63.2271Z" fill="#009932"/>
<path d="M15.0062 64.5908L19.4483 72.7726H10.5641L15.0062 64.5908Z" fill="#009932"/>
<path d="M18.8539 61.8638L23.296 71.0683H14.4118L18.8539 61.8638Z" fill="#009932"/>
<path d="M20.1361 63.2271L24.5782 71.4089H15.694L20.1361 63.2271Z" fill="#009932"/>
<path d="M21.4177 63.2271L22.6997 67.318L25.8598 71.4089H16.9756L21.4177 63.2271Z" fill="#009932"/>
<path d="M22.7006 64.5908L27.1427 72.7726H18.2585L22.7006 64.5908Z" fill="#009932"/>
<path d="M24.5 62.5L29.7074 70.7273H20.8232L23.9827 65.2727L24.5 62.5Z" fill="#009932"/>
<path d="M27.8298 63.2271L32.2719 71.4089H23.3877L27.1883 67.318L27.8298 63.2271Z" fill="#009932"/>
<path d="M29.112 63.2275L33.5541 71.4094H24.6699L26.5 65.0002L29.112 63.2275Z" fill="#009932"/>
<path d="M31.6774 63.2271L36.1195 71.4089H27.2354L31.036 63.9089L31.6774 63.2271Z" fill="#009932"/>
<path d="M34.2419 63.2271L35.5239 64.5907L38.684 71.4089H29.7998L34.2419 63.2271Z" fill="#009932"/>
<path d="M36.806 64.5908L41.2481 72.7726H32.364L36.806 64.5908Z" fill="#009932"/>
<path d="M40.653 63.2271L40.6527 67.318L45.0951 71.4089H36.2109L40.653 63.2271Z" fill="#009932"/>
<path d="M43.2175 60.5L45.5 62L47.6596 70.7273H38.7754L43.2175 60.5Z" fill="#009932"/>
<path d="M45.7819 60.5L50.224 68.6818H41.3398L44.4993 64.5909L45.7819 60.5Z" fill="#009932"/>
<path d="M48.3471 63.2271L52.7892 71.4089H43.905L48.3471 63.2271Z" fill="#009932"/>
<path d="M52.194 64.5908L56.6361 71.7499H47.752L48.9879 67.3181L52.194 64.5908Z" fill="#009932"/>
<path d="M53.476 64.5908L57.9181 71.7499H49.0339L53.476 64.5908Z" fill="#009932"/>
<path d="M56.0407 63.2271L60.4828 70.3861H51.5986L54.7581 66.6361L56.0407 63.2271Z" fill="#009932"/>
<path d="M58.6049 64.5908L63.047 71.7499H54.1628L58.6049 64.5908Z" fill="#009932"/>
<path d="M59.8874 64.5908L64.3295 71.7499H55.4453L59.2459 67.3181L59.8874 64.5908Z" fill="#009932"/>
<path d="M62.4525 63.2271L66.8946 70.3861H58.0104L62.4525 63.2271Z" fill="#009932"/>
<path d="M65.0172 62.5455L69.4593 72.7727H60.5751L63.7345 64.5909L65.0172 62.5455Z" fill="#009932"/>
<path d="M67.5814 63.2271L72.0235 70.3861H63.1393L67.5814 63.2271Z" fill="#009932"/>
<path d="M68.8637 63.2271L73.3058 70.3861H64.4216L68.8637 63.2271Z" fill="#009932"/>
<path d="M71.4294 64.5908L72.7114 65.2726L75.8715 71.7499H66.9873L71.4294 64.5908Z" fill="#009932"/>
<path d="M73.9935 64.5908L78.4356 71.7499H69.5515L73.9935 64.5908Z" fill="#009932"/>
<path d="M76.5583 63.2271L81.0004 70.3861H72.1162L75.2757 67.318L76.5583 63.2271Z" fill="#009932"/>
<path d="M50.9118 63.2271L50.2704 67.318L55.3539 71.4089H46.4697L50.9118 63.2271Z" fill="#009932"/>
<ellipse cx="44" cy="71.5" rx="38" ry="6" fill="#04B13C"/>
</svg>
