<svg width="70" height="70" viewBox="0 0 88 88" fill="none" xmlns="http://www.w3.org/2000/svg">
<rect x="15" y="41.731" width="6" height="30.7692" fill="#926666"/>
<path d="M17.8281 46.7892C17.9056 46.6588 18.0944 46.6588 18.1719 46.7892L25.6146 59.3093C25.6938 59.4426 25.5978 59.6115 25.4427 59.6115H10.5573C10.4022 59.6115 10.3062 59.4426 10.3854 59.3093L17.8281 46.7892Z" fill="#78B463"/>
<path d="M17.8232 41.8346C17.8982 41.6926 18.1018 41.6926 18.1768 41.8346L24.7731 54.318C24.8435 54.4512 24.747 54.6115 24.5963 54.6115H11.4037C11.253 54.6115 11.1565 54.4512 11.2269 54.318L17.8232 41.8346Z" fill="#78B463"/>
<path d="M17.8275 38.7938C17.9048 38.6621 18.0952 38.6621 18.1725 38.7938L24.7513 49.9991C24.8296 50.1324 24.7335 50.3003 24.5789 50.3003H11.4211C11.2665 50.3003 11.1704 50.1324 11.2487 49.9991L17.8275 38.7938Z" fill="#78B463"/>
<path d="M17.817 33.9157C17.8871 33.7565 18.1129 33.7565 18.183 33.9157L23.0726 45.0197C23.1308 45.1519 23.034 45.3003 22.8896 45.3003H13.1104C12.966 45.3003 12.8692 45.1519 12.9274 45.0197L17.817 33.9157Z" fill="#78B463"/>
<rect x="39" y="24.5" width="10" height="47" fill="#926666"/>
<path d="M43.8227 35.8401C43.8974 35.6967 44.1026 35.6967 44.1773 35.8401L55.9718 58.4575C56.0413 58.5907 55.9447 58.75 55.7945 58.75H32.2055C32.0553 58.75 31.9587 58.5907 32.0282 58.4575L43.8227 35.8401Z" fill="#4AC221"/>
<path d="M43.8245 30.8207C43.9004 30.682 44.0996 30.682 44.1755 30.8207L55.9624 52.3629C56.0353 52.4962 55.9389 52.6589 55.7869 52.6589H32.2131C32.0611 52.6589 31.9647 52.4962 32.0376 52.3629L43.8245 30.8207Z" fill="#4AC221"/>
<path d="M43.8291 25.7811C43.907 25.653 44.093 25.653 44.1709 25.7811L55.9396 45.1391C56.0206 45.2724 55.9247 45.443 55.7687 45.443H32.2313C32.0753 45.443 31.9794 45.2724 32.0604 45.1391L43.8291 25.7811Z" fill="#4AC221"/>
<path d="M43.8258 20.8085C43.9024 20.6729 44.0976 20.6729 44.1742 20.8085L55.0899 40.1447C55.1652 40.278 55.0689 40.443 54.9158 40.443H33.0842C32.9311 40.443 32.8348 40.278 32.9101 40.1447L43.8258 20.8085Z" fill="#4AC221"/>
<path d="M43.8289 16.7829C43.9067 16.6543 44.0933 16.6543 44.1711 16.7829L53.3427 31.9465C53.4233 32.0798 53.3273 32.25 53.1716 32.25H34.8284C34.6726 32.25 34.5767 32.0798 34.6573 31.9465L43.8289 16.7829Z" fill="#4AC221"/>
<rect x="67" y="46.5" width="6" height="23" fill="#926666"/>
<path d="M69.8346 44.7436C69.9139 44.6267 70.0861 44.6267 70.1654 44.7436L78.4481 56.9376C78.5383 57.0704 78.4432 57.25 78.2826 57.25H61.7174C61.5568 57.25 61.4617 57.0704 61.5519 56.9376L69.8346 44.7436Z" fill="#4DBF27"/>
<path d="M69.8323 40.7582C69.9111 40.6368 70.0889 40.6368 70.1677 40.7582L77.5936 52.1911C77.68 52.3241 77.5845 52.5 77.4258 52.5H62.5742C62.4155 52.5 62.32 52.3241 62.4064 52.1911L69.8323 40.7582Z" fill="#4DBF27"/>
<path d="M69.8268 35.8C69.9038 35.6667 70.0962 35.6667 70.1732 35.8L76.755 47.2C76.832 47.3333 76.7358 47.5 76.5818 47.5H63.4182C63.2642 47.5 63.168 47.3333 63.245 47.2L69.8268 35.8Z" fill="#4DBF27"/>
<path d="M11.8006 63.9546L15.0064 67.4091L16.8842 74.3182H8L11.8006 63.9546Z" fill="#009932"/>
<path d="M15.0062 65.6816L19.4483 76.0453H10.5641L15.0062 65.6816Z" fill="#009932"/>
<path d="M18.1293 63.5L22.5714 75.1591H13.6872L18.1293 63.5Z" fill="#009932"/>
<path d="M20.1361 63.9546L24.5782 74.3182H15.694L20.1361 63.9546Z" fill="#009932"/>
<path d="M21.4177 63.9546L22.6997 69.1364L25.8598 74.3182H16.9756L21.4177 63.9546Z" fill="#009932"/>
<path d="M22.7006 65.6816L27.1427 76.0453H18.2585L22.7006 65.6816Z" fill="#009932"/>
<path d="M24.5 63.0337L29.7074 73.4549H20.8232L23.9827 66.5458L24.5 63.0337Z" fill="#009932"/>
<path d="M27.8298 63.9546L32.2719 74.3182H23.3877L27.1883 69.1364L27.8298 63.9546Z" fill="#009932"/>
<path d="M29.112 63.9546L33.5541 74.3182H24.6699L26.5 66.2L29.112 63.9546Z" fill="#009932"/>
<path d="M31.6774 63.9546L36.1195 74.3182H27.2354L31.036 64.8182L31.6774 63.9546Z" fill="#009932"/>
<path d="M34.2419 63.9546L35.5239 65.6819L38.684 74.3182H29.7998L34.2419 63.9546Z" fill="#009932"/>
<path d="M36.806 65.6816L41.2481 76.0453H32.364L36.806 65.6816Z" fill="#009932"/>
<path d="M40.653 63.9546L40.6527 69.1364L45.0951 74.3182H36.2109L40.653 63.9546Z" fill="#009932"/>
<path d="M42.4421 63.5L44.7246 65.4L46.8842 76.4545H38L42.4421 63.5Z" fill="#009932"/>
<path d="M44.4421 61.5L48.8842 71.8636H40L43.1595 66.6818L44.4421 61.5Z" fill="#009932"/>
<path d="M48.3471 63.9546L52.7892 74.3182H43.905L48.3471 63.9546Z" fill="#009932"/>
<path d="M52.194 65.6816L56.6361 74.7498H47.752L48.9879 69.1362L52.194 65.6816Z" fill="#009932"/>
<path d="M53.476 65.6816L57.9181 74.7498H49.0339L53.476 65.6816Z" fill="#009932"/>
<path d="M56.0407 63.9546L60.4828 73.0228H51.5986L54.7581 68.2728L56.0407 63.9546Z" fill="#009932"/>
<path d="M58.6049 65.6816L63.047 74.7498H54.1628L58.6049 65.6816Z" fill="#009932"/>
<path d="M59.8874 65.6816L64.3295 74.7498H55.4453L59.2459 69.1362L59.8874 65.6816Z" fill="#009932"/>
<path d="M62.4525 63.9546L66.8946 73.0228H58.0104L62.4525 63.9546Z" fill="#009932"/>
<path d="M65.4421 64.5L69.8842 77.4545H61L64.1595 67.0909L65.4421 64.5Z" fill="#009932"/>
<path d="M68.1293 65.5L72.5714 74.5682H63.6872L68.1293 65.5Z" fill="#009932"/>
<path d="M70.1293 66.5L74.5714 75.5682H65.6872L70.1293 66.5Z" fill="#009932"/>
<path d="M71.4294 65.6816L72.7114 66.5453L75.8715 74.7498H66.9873L71.4294 65.6816Z" fill="#009932"/>
<path d="M73.9935 65.6816L78.4356 74.7498H69.5515L73.9935 65.6816Z" fill="#009932"/>
<path d="M76.5583 63.9546L81.0004 73.0228H72.1162L75.2757 69.1364L76.5583 63.9546Z" fill="#009932"/>
<path d="M50.9118 63.9546L50.2704 69.1364L55.3539 74.3182H46.4697L50.9118 63.9546Z" fill="#009932"/>
<ellipse cx="44" cy="73.5" rx="38" ry="6" fill="#04B13C"/>
<mask id="path-46-inside-1_580_2074" fill="white">
<path fill-rule="evenodd" clip-rule="evenodd" d="M27.9988 18.0975C25.481 15.8621 23.3969 12.5281 21.9994 8.5C20.6019 12.5281 18.5178 15.8621 16 18.0975C18.5178 20.3329 20.6019 23.667 21.9994 27.6951C23.3969 23.667 25.481 20.3329 27.9988 18.0975Z"/>
</mask>
<path fill-rule="evenodd" clip-rule="evenodd" d="M27.9988 18.0975C25.481 15.8621 23.3969 12.5281 21.9994 8.5C20.6019 12.5281 18.5178 15.8621 16 18.0975C18.5178 20.3329 20.6019 23.667 21.9994 27.6951C23.3969 23.667 25.481 20.3329 27.9988 18.0975Z" fill="url(#paint0_linear_580_2074)"/>
<path d="M27.9988 18.0975L28.0652 18.1723L28.1494 18.0975L28.0652 18.0228L27.9988 18.0975ZM21.9994 8.5L22.0939 8.46722L21.9994 8.19491L21.9049 8.46722L21.9994 8.5ZM16 18.0975L15.9336 18.0227L15.8494 18.0975L15.9336 18.1723L16 18.0975ZM21.9994 27.6951L21.9049 27.7278L21.9994 28.0001L22.0939 27.7278L21.9994 27.6951ZM28.0652 18.0228C25.5632 15.8014 23.4872 12.4833 22.0939 8.46722L21.9049 8.53278C23.3066 12.5728 25.3988 15.9229 27.9324 18.1723L28.0652 18.0228ZM16.0664 18.1723C18.6 15.9229 20.6923 12.5728 22.0939 8.53278L21.9049 8.46722C20.5116 12.4833 18.4356 15.8014 15.9336 18.0227L16.0664 18.1723ZM22.0939 27.6623C20.6923 23.6223 18.6 20.2721 16.0664 18.0227L15.9336 18.1723C18.4356 20.3937 20.5116 23.7117 21.9049 27.7278L22.0939 27.6623ZM27.9324 18.0228C25.3988 20.2721 23.3066 23.6223 21.9049 27.6623L22.0939 27.7278C23.4872 23.7117 25.5632 20.3937 28.0652 18.1723L27.9324 18.0228Z" fill="#BDBDBD" mask="url(#path-46-inside-1_580_2074)"/>
<mask id="path-48-inside-2_580_2074" fill="white">
<path fill-rule="evenodd" clip-rule="evenodd" d="M58.7519 15.5006C56.9153 13.8701 55.3952 11.4382 54.3759 8.5C53.3567 11.4382 51.8365 13.8701 50 15.5006C51.8365 17.1311 53.3567 19.5631 54.3759 22.5013C55.3952 19.5631 56.9153 17.1311 58.7519 15.5006Z"/>
</mask>
<path fill-rule="evenodd" clip-rule="evenodd" d="M58.7519 15.5006C56.9153 13.8701 55.3952 11.4382 54.3759 8.5C53.3567 11.4382 51.8365 13.8701 50 15.5006C51.8365 17.1311 53.3567 19.5631 54.3759 22.5013C55.3952 19.5631 56.9153 17.1311 58.7519 15.5006Z" fill="url(#paint1_linear_580_2074)"/>
<path d="M58.7519 15.5006L58.8183 15.5754L58.9025 15.5006L58.8183 15.4258L58.7519 15.5006ZM54.3759 8.5L54.4704 8.46722L54.3759 8.19488L54.2815 8.46722L54.3759 8.5ZM50 15.5006L49.9336 15.4258L49.8494 15.5006L49.9336 15.5754L50 15.5006ZM54.3759 22.5013L54.2815 22.534L54.3759 22.8064L54.4704 22.534L54.3759 22.5013ZM58.8183 15.4258C56.9975 13.8094 55.4855 11.3935 54.4704 8.46722L54.2815 8.53277C55.3049 11.4829 56.8332 13.9309 58.6855 15.5754L58.8183 15.4258ZM50.0664 15.5754C51.9187 13.9309 53.447 11.4829 54.4704 8.53277L54.2815 8.46722C53.2663 11.3935 51.7543 13.8094 49.9336 15.4258L50.0664 15.5754ZM54.4704 22.4685C53.447 19.5184 51.9187 17.0704 50.0664 15.4258L49.9336 15.5754C51.7543 17.1919 53.2663 19.6078 54.2815 22.534L54.4704 22.4685ZM58.6855 15.4258C56.8332 17.0704 55.3049 19.5184 54.2815 22.4685L54.4704 22.534C55.4855 19.6078 56.9975 17.1919 58.8183 15.5754L58.6855 15.4258Z" fill="#BDBDBD" mask="url(#path-48-inside-2_580_2074)"/>
<mask id="path-50-inside-3_580_2074" fill="white">
<path fill-rule="evenodd" clip-rule="evenodd" d="M74.3546 24.1979C72.8113 22.8708 71.5339 20.8914 70.6773 18.5C69.8207 20.8914 68.5433 22.8708 67 24.1979C68.5433 25.525 69.8207 27.5044 70.6773 29.8958C71.5339 27.5044 72.8113 25.525 74.3546 24.1979Z"/>
</mask>
<path fill-rule="evenodd" clip-rule="evenodd" d="M74.3546 24.1979C72.8113 22.8708 71.5339 20.8914 70.6773 18.5C69.8207 20.8914 68.5433 22.8708 67 24.1979C68.5433 25.525 69.8207 27.5044 70.6773 29.8958C71.5339 27.5044 72.8113 25.525 74.3546 24.1979Z" fill="url(#paint2_linear_580_2074)"/>
<path d="M74.3546 24.1979L74.4198 24.2737L74.508 24.1979L74.4198 24.1221L74.3546 24.1979ZM70.6773 18.5L70.7714 18.4663L70.6773 18.2034L70.5832 18.4663L70.6773 18.5ZM67 24.1979L66.9348 24.1221L66.8466 24.1979L66.9348 24.2737L67 24.1979ZM70.6773 29.8958L70.5832 29.9295L70.6773 30.1923L70.7714 29.9295L70.6773 29.8958ZM74.4198 24.1221C72.8925 22.8087 71.6236 20.8454 70.7714 18.4663L70.5832 18.5337C71.4441 20.9374 72.7301 22.9328 74.2894 24.2737L74.4198 24.1221ZM67.0652 24.2737C68.6245 22.9328 69.9105 20.9374 70.7714 18.5337L70.5832 18.4663C69.731 20.8454 68.4621 22.8087 66.9348 24.1221L67.0652 24.2737ZM70.7714 29.8621C69.9105 27.4583 68.6245 25.4629 67.0652 24.1221L66.9348 24.2737C68.4621 25.5871 69.731 27.5504 70.5832 29.9295L70.7714 29.8621ZM74.2894 24.1221C72.7301 25.4629 71.4441 27.4583 70.5832 29.8621L70.7714 29.9295C71.6236 27.5504 72.8925 25.5871 74.4198 24.2737L74.2894 24.1221Z" fill="#BDBDBD" mask="url(#path-50-inside-3_580_2074)"/>
<defs>
<linearGradient id="paint0_linear_580_2074" x1="21.9994" y1="8.5" x2="21.9994" y2="27.6951" gradientUnits="userSpaceOnUse">
<stop stop-color="#FFF84E"/>
<stop offset="1" stop-color="#F0F50E"/>
</linearGradient>
<linearGradient id="paint1_linear_580_2074" x1="54.3759" y1="8.5" x2="54.3759" y2="22.5013" gradientUnits="userSpaceOnUse">
<stop stop-color="#FFF84E"/>
<stop offset="1" stop-color="#F0F50E"/>
</linearGradient>
<linearGradient id="paint2_linear_580_2074" x1="70.6773" y1="18.5" x2="70.6773" y2="29.8958" gradientUnits="userSpaceOnUse">
<stop stop-color="#FFF84E"/>
<stop offset="1" stop-color="#F0F50E"/>
</linearGradient>
</defs>
</svg>
