<svg width="24" height="24" viewBox="0 0 24 24" fill="none" xmlns="http://www.w3.org/2000/svg">
<g id="Frame 18314">
<rect width="24" height="24" rx="12" fill="#FFB018"/>
<path id="Vector" d="M19.6401 7.44721C19.6179 7.35906 19.5501 7.28714 19.4607 7.27073C18.7211 7.13502 15.225 6.71833 12.3252 10.242C12.2114 10.3802 11.9848 10.3713 11.8771 10.2283C11.2435 9.3866 9.12125 7.11851 4.58459 7.0035C4.4746 7.00071 4.37603 7.06687 4.34751 7.17313C4.01658 8.40611 2.38303 15.8395 10.7494 16.9501C10.8752 16.9668 10.9764 17.0741 10.9764 17.201V18.75C10.9764 18.8881 11.0883 19 11.2264 19H12.7729C12.9109 19 13.0229 18.8881 13.0229 18.75V17.2128C13.0229 17.0821 13.1222 16.9727 13.2518 16.9556C14.6258 16.7748 21.6534 15.4514 19.6401 7.44721ZM10.9594 14.8798C10.9511 15.0196 10.8276 15.1248 10.6898 15.0992C9.64513 14.9052 5.70454 13.8638 6.00203 9.22306C6.01148 9.07568 6.14973 8.95306 6.29602 8.97319C7.36986 9.12096 11.2492 9.99361 10.9594 14.8798ZM13.2093 15.0882C13.0816 15.1176 12.9521 15.0418 12.9285 14.9129C12.754 13.9603 12.4305 10.2607 17.5784 9.00653C17.7331 8.96882 17.9121 9.08236 17.9288 9.24079C18.0427 10.3229 18.0526 13.9763 13.2093 15.0882Z" fill="#FFE389"/>
</g>
</svg>
