<?xml version="1.0" encoding="utf-8"?>
<!-- Generator: Adobe Illustrator 27.8.1, SVG Export Plug-In . SVG Version: 6.00 Build 0)  -->
<svg version="1.1" id="Layer_1" xmlns="http://www.w3.org/2000/svg" xmlns:xlink="http://www.w3.org/1999/xlink" x="0px" y="0px"
	 viewBox="0 0 27 26" style="enable-background:new 0 0 27 26;" xml:space="preserve">
<style type="text/css">
	.st0{fill:none;stroke-width:2;stroke-linecap:round;stroke-miterlimit:10;}
</style>
<path class="st0" d="M1,3.8h14.8"/>
<path class="st0" d="M10.2,13h15.7"/>
<path class="st0" d="M21.3,3.8h4.6"/>
<path class="st0" d="M1,13h3.7"/>
<path class="st0" d="M22.2,22.2h3.7"/>
<path class="st0" d="M1,22.2h14.8"/>
<path class="st0" d="M18.5,6.5c1.5,0,2.8-1.2,2.8-2.8S20.1,1,18.5,1s-2.8,1.2-2.8,2.8S17,6.5,18.5,6.5z"/>
<path class="st0" d="M7.5,15.8c1.5,0,2.8-1.2,2.8-2.8S9,10.2,7.5,10.2c-1.5,0-2.8,1.2-2.8,2.8S5.9,15.8,7.5,15.8z"/>
<path class="st0" d="M19.5,25c1.5,0,2.8-1.2,2.8-2.8s-1.2-2.8-2.8-2.8s-2.8,1.2-2.8,2.8S17.9,25,19.5,25z"/>
</svg>
