<svg width="63" height="46" viewBox="0 0 63 46" fill="none" xmlns="http://www.w3.org/2000/svg">
<path d="M31.8873 6.91702V42.5556M31.8873 6.91702C40.3004 2.85744 45.3067 1.12017 55.0093 2.07179C55.5162 2.12151 55.9 2.55052 55.9 3.05992V36.4584C55.9 37.1286 55.2496 37.6076 54.6031 37.4308C44.5866 34.6909 39.6981 36.7845 31.8873 42.5556M31.8873 6.91702C23.2323 1.19991 17.9149 -0.217082 7.87727 1.98936C7.42307 2.0892 7.10001 2.49435 7.10001 2.9594V36.526C7.10001 37.1757 7.71279 37.6515 8.34613 37.507C18.1113 35.279 23.4186 36.4897 31.8873 42.5556" stroke="#005435" stroke-width="2"/>
<path d="M5.88 5.88867H2C1.44772 5.88867 1 6.33639 1 6.88867V43.4323C1 44.1632 1.76141 44.6472 2.43195 44.3562C12.5537 39.9645 21.0528 39.6432 30.28 41.3331" stroke="#005435" stroke-width="2"/>
<path d="M57.12 5.88867H61C61.5523 5.88867 62 6.33639 62 6.88867V43.4323C62 44.1632 61.2383 44.6469 60.5683 44.3548C50.4979 39.9645 42.5562 39.6434 33.33 41.3331" stroke="#005435" stroke-width="2"/>
</svg>
