<svg width="14" height="24" viewBox="0 0 14 24" fill="none" xmlns="http://www.w3.org/2000/svg">
<path id="Vector 91" d="M13 4.20494V1.72047C13 1.48726 12.8385 1.28389 12.6097 1.23886C10.2458 0.773766 8.40202 1.09151 7.75 1.32187C4.43005 2.12826 4.04421 6.30178 4.29839 8.756C4.33014 9.06252 4.09533 9.33731 3.78718 9.33731H1.5C1.22386 9.33731 1 9.56117 1 9.83731V12.6629C1 12.939 1.22386 13.1629 1.5 13.1629H3.875C4.15114 13.1629 4.375 13.3867 4.375 13.6629V22.5C4.375 22.7761 4.59886 23 4.875 23H8.75C9.02614 23 9.25 22.7761 9.25 22.5V13.6629C9.25 13.3867 9.47386 13.1629 9.75 13.1629H11.8385C12.0776 13.1629 12.2832 12.9936 12.3292 12.7591L12.8831 9.93351C12.9437 9.62464 12.7072 9.33731 12.3925 9.33731H9.75C9.47386 9.33731 9.25 9.11353 9.25 8.83739V6.42261C9.25 4.91345 11.1117 4.65236 12.4253 4.72622C12.7297 4.74333 13 4.50978 13 4.20494Z" stroke="#3F337C" stroke-width="2"/>
</svg>
