<svg width="19" height="23" viewBox="0 0 19 23" fill="none" xmlns="http://www.w3.org/2000/svg">
<g opacity="0.87">
<path d="M9.44437 22.0002H15.717C15.717 22.0002 17.8834 22.0392 17.9902 19.9515C18.097 17.8637 17.3493 14.4574 14.7321 12.2048C14.7321 12.2048 13.9304 11.5741 12.1684 12.6992C10.6194 13.6882 8.80343 13.3585 8.2159 13.1937C8.10908 13.164 7.50553 12.9487 7.40191 12.9086C7.11723 12.7987 6.55106 12.5696 6.23967 12.3696C5.8252 12.1031 4.60742 11.5268 3.60862 12.6943C3.54399 12.7696 3.47723 12.8432 3.40779 12.9135C2.92709 13.3981 1.00534 15.549 1.00534 18.9625V19.8762C1.00534 19.8762 0.800239 21.7964 2.93243 22.0002H9.44437Z" stroke="#005435" stroke-width="2" stroke-miterlimit="10"/>
<path d="M9.49845 10.8894C12.1533 10.8894 14.3055 8.67556 14.3055 5.94469C14.3055 3.21381 12.1533 1 9.49845 1C6.84359 1 4.69141 3.21381 4.69141 5.94469C4.69141 8.67556 6.84359 10.8894 9.49845 10.8894Z" stroke="#005435" stroke-width="2" stroke-miterlimit="10"/>
</g>
</svg>
