<svg width="24" height="25" viewBox="0 0 24 25" fill="none" xmlns="http://www.w3.org/2000/svg">
<g id="Redirect">
<path id="Union" fill-rule="evenodd" clip-rule="evenodd" d="M20 4.51593C20.0007 4.46982 19.9982 4.42313 19.9923 4.37607C19.9461 4.00655 19.7038 3.70945 19.3829 3.57612L19.3828 3.57598C19.3473 3.56128 19.3108 3.54855 19.2734 3.53794C19.167 3.50765 19.054 3.4947 18.9382 3.50198C18.912 3.50358 18.886 3.5062 18.8603 3.50979L14.876 4.00783C14.3279 4.07633 13.9392 4.57612 14.0077 5.12414C14.0762 5.67216 14.576 6.06089 15.124 5.99238L16.232 5.85389L8.29289 13.793C7.90237 14.1835 7.90237 14.8167 8.29289 15.2072C8.68342 15.5977 9.31658 15.5977 9.70711 15.2072L18 6.91432V8.00011C18 8.55239 18.4477 9.00011 19 9.00011C19.5523 9.00011 20 8.55239 20 8.00011V4.51593ZM6 6.00011C4.34315 6.00011 3 7.34325 3 9.00011V19.0001C3 20.657 4.34315 22.0001 6 22.0001H14C15.6569 22.0001 17 20.657 17 19.0001V11.9413C17 11.389 16.5523 10.9413 16 10.9413C15.4477 10.9413 15 11.389 15 11.9413V19.0001C15 19.5524 14.5523 20.0001 14 20.0001H6C5.44772 20.0001 5 19.5524 5 19.0001V9.00011C5 8.44782 5.44772 8.00011 6 8.00011H12C12.5523 8.00011 13 7.55239 13 7.00011C13 6.44782 12.5523 6.00011 12 6.00011H6Z" fill="#DCDCDC"/>
</g>
</svg>
