<svg width="100" height="24" viewBox="0 0 100 24" fill="none" xmlns="http://www.w3.org/2000/svg">
<g opacity="0.87">
<path d="M22.5 17.5033V6.49994C22.5 3.73851 20.2614 1.5 17.5 1.5H6.5C3.73858 1.5 1.5 3.73858 1.5 6.5V17.5C1.5 20.2614 3.73858 22.5 6.5 22.5H17.5C20.2614 22.5 22.5 20.2647 22.5 17.5033Z" stroke="#3F337C" stroke-width="2"/>
<circle cx="12.323" cy="12.323" r="4.94209" stroke="#3F337C" stroke-width="2"/>
<circle cx="18.4777" cy="5.31951" r="1" fill="#3F337C" stroke="#3F337C" stroke-width="0.971047"/>
</g>
<g opacity="0.87">
<path d="M56 4.20494V1.72047C56 1.48726 55.8385 1.28389 55.6097 1.23886C53.2458 0.773766 51.402 1.09151 50.75 1.32187C47.43 2.12826 47.0442 6.30178 47.2984 8.756C47.3301 9.06252 47.0953 9.33731 46.7872 9.33731H44.5C44.2239 9.33731 44 9.56117 44 9.83731V12.6629C44 12.939 44.2239 13.1629 44.5 13.1629H46.875C47.1511 13.1629 47.375 13.3867 47.375 13.6629V22.5C47.375 22.7761 47.5989 23 47.875 23H51.75C52.0261 23 52.25 22.7761 52.25 22.5V13.6629C52.25 13.3867 52.4739 13.1629 52.75 13.1629H54.8385C55.0776 13.1629 55.2832 12.9936 55.3292 12.7591L55.8831 9.93351C55.9437 9.62464 55.7072 9.33731 55.3925 9.33731H52.75C52.4739 9.33731 52.25 9.11353 52.25 8.83739V6.42261C52.25 4.91345 54.1117 4.65236 55.4253 4.72622C55.7297 4.74333 56 4.50978 56 4.20494Z" stroke="#3F337C" stroke-width="2"/>
</g>
<g opacity="0.87">
<path d="M96.2795 1.5H97.3279C97.5874 1.5 97.7245 1.80716 97.5512 2.00033L79.2512 22.4003C79.1943 22.4638 79.1131 22.5 79.0279 22.5H77.6795C77.4189 22.5 77.2822 22.1905 77.4578 21.9979L96.0578 1.59787C96.1147 1.53553 96.1951 1.5 96.2795 1.5Z" fill="#3F337C" stroke="#3F337C" stroke-width="2"/>
<path d="M83.8456 1.5H78.5695C78.3281 1.5 78.1855 1.77058 78.3221 1.96966L92.3106 22.3697C92.3666 22.4512 92.4591 22.5 92.558 22.5H98.417C98.6611 22.5 98.803 22.2242 98.6612 22.0256L84.0897 1.62563C84.0334 1.54679 83.9425 1.5 83.8456 1.5Z" fill="white" stroke="#3F337C" stroke-width="2"/>
</g>
</svg>
