<svg width="24" height="24" viewBox="0 0 24 24" fill="none" xmlns="http://www.w3.org/2000/svg">
<g id="Group 1261">
<path id="Vector 93" d="M20.2795 1.5H21.3279C21.5874 1.5 21.7245 1.80716 21.5512 2.00033L3.25118 22.4003C3.19427 22.4638 3.11308 22.5 3.02786 22.5H1.67951C1.41886 22.5 1.28221 22.1905 1.45782 21.9979L20.0578 1.59787C20.1147 1.53553 20.1951 1.5 20.2795 1.5Z" fill="#3F337C" stroke="#3F337C" stroke-width="2"/>
<path id="Vector 92" d="M7.84561 1.5H2.56947C2.32808 1.5 2.18554 1.77058 2.32205 1.96966L16.3106 22.3697C16.3666 22.4512 16.4591 22.5 16.558 22.5H22.417C22.6611 22.5 22.803 22.2242 22.6612 22.0256L8.08974 1.62563C8.03342 1.54679 7.9425 1.5 7.84561 1.5Z" fill="white" stroke="#3F337C" stroke-width="2"/>
</g>
</svg>
