<svg width="19" height="24" viewBox="0 0 19 24" fill="none" xmlns="http://www.w3.org/2000/svg">
<g id="Group 1264">
<path id="Vector" d="M9.44437 22.4999H15.717C15.717 22.4999 17.8834 22.539 17.9902 20.4512C18.097 18.3634 17.3493 14.9571 14.7321 12.7045C14.7321 12.7045 13.9304 12.0738 12.1684 13.199C10.6194 14.1879 8.80343 13.8583 8.2159 13.6935C8.10908 13.6638 7.50553 13.4484 7.40191 13.4083C7.11723 13.2984 6.55106 13.0693 6.23967 12.8693C5.8252 12.6029 4.60742 12.0266 3.60862 13.194C3.54399 13.2693 3.47723 13.3429 3.40779 13.4133C2.92709 13.8978 1.00534 16.0488 1.00534 19.4623V20.3759C1.00534 20.3759 0.800239 22.2961 2.93243 22.4999H9.44437Z" stroke="#005435" stroke-width="2" stroke-miterlimit="10"/>
<path id="Vector_2" d="M9.49845 11.3894C12.1533 11.3894 14.3055 9.17556 14.3055 6.44469C14.3055 3.71381 12.1533 1.5 9.49845 1.5C6.84359 1.5 4.69141 3.71381 4.69141 6.44469C4.69141 9.17556 6.84359 11.3894 9.49845 11.3894Z" stroke="#005435" stroke-width="2" stroke-miterlimit="10"/>
</g>
</svg>
