<svg width="58" height="52" viewBox="0 0 58 52" fill="none" xmlns="http://www.w3.org/2000/svg">
<ellipse cx="20.2216" cy="20.7978" rx="2.88883" ry="2.97118" fill="#005435"/>
<path d="M37.9988 37.1403C37.9988 42.358 33.8934 46.5394 28.8879 46.5394C23.8824 46.5394 19.777 42.358 19.777 37.1403C19.777 31.9227 23.8824 27.7412 28.8879 27.7412C33.8934 27.7412 37.9988 31.9227 37.9988 37.1403Z" stroke="#005435" stroke-width="2"/>
<ellipse cx="28.8874" cy="33.4247" rx="5.77765" ry="5.19956" fill="#005435"/>
<ellipse cx="37.5544" cy="20.7978" rx="2.88883" ry="2.97118" fill="#005435"/>
<path fill-rule="evenodd" clip-rule="evenodd" d="M15.29 5.0955C19.1672 2.69789 23.6352 1.48682 28.8883 1.48682C34.1413 1.48682 38.6093 2.69789 42.4865 5.0955C46.3523 7.48603 49.5448 11.0026 52.3356 15.4817C54.6791 19.2427 56.5219 22.9303 57.33 26.7887C58.1468 30.6886 57.8914 34.6888 56.1613 39.0313C54.9472 42.0788 52.5155 44.3648 49.7407 46.0791C46.958 47.7983 43.7106 49.0176 40.6627 49.8824C37.6059 50.7497 34.6936 51.2761 32.5501 51.5859C31.4765 51.741 30.5914 51.8425 29.972 51.9054C29.6621 51.9368 29.4185 51.9586 29.2507 51.9727C29.1667 51.9797 29.1017 51.9848 29.0568 51.9882L29.0048 51.9921L28.9903 51.9931L28.9861 51.9934C28.9856 51.9934 28.9838 51.9936 28.8883 50.5112C28.7927 51.9936 28.7923 51.9935 28.7918 51.9935L28.7862 51.9931L28.7717 51.9921L28.7197 51.9882C28.6748 51.9848 28.6098 51.9797 28.5259 51.9727C28.358 51.9586 28.1144 51.9368 27.8045 51.9054C27.1851 51.8425 26.3 51.741 25.2264 51.5859C23.0829 51.2761 20.1706 50.7497 17.1138 49.8824C14.0659 49.0176 10.8186 47.7983 8.03577 46.0791C5.26105 44.3648 2.82936 42.0788 1.61522 39.0313C-0.114878 34.6888 -0.370267 30.6886 0.446523 26.7887C1.25462 22.9303 3.0974 19.2427 5.44087 15.4817C8.23175 11.0026 11.4242 7.48603 15.29 5.0955ZM28.8883 50.5112L28.7918 51.9935L28.8883 52.0001L28.9838 51.9936L28.8883 50.5112ZM28.8882 49.0217C28.9222 49.0191 28.9649 49.0156 29.0159 49.0113C29.1684 48.9986 29.3957 48.9782 29.6883 48.9485C30.2736 48.8891 31.1189 48.7924 32.1481 48.6436C34.2102 48.3456 36.993 47.8415 39.8944 47.0182C42.8046 46.1925 45.7784 45.0611 48.2532 43.5321C50.736 41.9981 52.5984 40.1382 53.4882 37.9048C54.9995 34.1112 55.1986 30.7216 54.5059 27.4144C53.8046 24.0657 52.174 20.7289 49.9034 17.0848C47.2789 12.8728 44.3812 9.734 40.998 7.64186C37.6262 5.55681 33.6862 4.45799 28.8883 4.45799C24.0903 4.45799 20.1503 5.55681 16.7785 7.64186C13.3953 9.734 10.4976 12.8728 7.8731 17.0848C5.60249 20.7289 3.97192 24.0657 3.27057 27.4144C2.57791 30.7216 2.77696 34.1112 4.28833 37.9048C5.17814 40.1382 7.04047 41.9981 9.52333 43.5321C11.9981 45.0611 14.9719 46.1925 17.8821 47.0182C20.7835 47.8415 23.5663 48.3456 25.6284 48.6436C26.6576 48.7924 27.503 48.8891 28.0882 48.9485C28.3808 48.9782 28.6081 48.9986 28.7606 49.0113C28.8116 49.0156 28.8543 49.0191 28.8882 49.0217Z" fill="#005435"/>
<path d="M7.22226 15.5999C7.22226 15.5999 3.88544 6.00185 8.12737 2.63403C12.2441 -0.634364 20.4047 4.11963 20.4047 4.11963" stroke="#005435" stroke-width="2"/>
<path d="M37.7886 4.27194C37.7886 4.27194 45.0631 -0.711521 49.3238 2.63102C53.4588 5.87488 51.1063 15.2126 51.1063 15.2126" stroke="#005435" stroke-width="2"/>
</svg>
